<?xml version="1.0" standalone="no"?>
<!DOCTYPE svg PUBLIC "-//W3C//DTD SVG 1.1//EN" "http://www.w3.org/Graphics/SVG/1.1/DTD/svg11.dtd" >
<svg xmlns="http://www.w3.org/2000/svg" xmlns:xlink="http://www.w3.org/1999/xlink" version="1.1">
<metadata>
Created by FontForge 20181014 at Wed Jul 20 01:43:54 2016
 By convertio
Copyright (C)2015 Commercial Type.
</metadata>
<defs>
<font id="YandexSansDisplay-Bold" horiz-adv-x="454" >
  <font-face 
    font-family="Yandex Sans Display Bold"
    font-weight="700"
    font-stretch="normal"
    units-per-em="1000"
    panose-1="0 0 0 0 0 0 0 0 0 0"
    ascent="800"
    descent="-200"
    x-height="507"
    cap-height="695"
    bbox="-329 -237 1251 939"
    underline-thickness="65"
    underline-position="-175"
    unicode-range="U+0020-FEFF"
  />
<missing-glyph horiz-adv-x="216" 
 />
    <glyph glyph-name=".notdef" horiz-adv-x="216" 
 />
    <glyph glyph-name=".null" horiz-adv-x="0" 
 />
    <glyph glyph-name="nonmarkingreturn" horiz-adv-x="333" 
 />
    <glyph glyph-name="space" unicode=" " horiz-adv-x="216" 
 />
    <glyph glyph-name="exclam" unicode="!" horiz-adv-x="288" 
d="M219 699l-22 -480h-107l-22 480h151zM143 -8q-36 0 -60 25t-24 60q0 36 24 60.5t60 24.5t61 -24.5t25 -60.5q0 -35 -25 -60t-61 -25z" />
    <glyph glyph-name="quotedbl" unicode="&#x22;" horiz-adv-x="406" 
d="M49 695h130l-19 -219h-92zM227 695h130l-19 -219h-92z" />
    <glyph glyph-name="numbersign" unicode="#" horiz-adv-x="625" 
d="M382 426h-118l-23 -138h118zM342 181h-118l-29 -181h-90l29 181h-102v107h119l22 138h-115v107h132l26 162h91l-26 -162h118l26 162h90l-26 -162h104v-107h-121l-22 -138h116v-107h-133l-29 -181h-91z" />
    <glyph glyph-name="dollar" unicode="$" horiz-adv-x="573" 
d="M224 -114v106q-68 6 -109 25t-61 35l16 107q14 -10 33.5 -21.5t43.5 -21t52.5 -16t60.5 -6.5q56 0 90.5 23.5t34.5 72.5q0 25 -10 41t-28 26.5t-43.5 17.5t-56.5 14q-36 9 -71 21.5t-63.5 35.5t-46 59t-17.5 92q0 86 48 134t127 64v107h121v-99q60 -4 96 -18t53 -26
l-13 -107q-27 17 -66 32.5t-96 15.5q-69 0 -98.5 -22.5t-29.5 -64.5q0 -23 9 -38t26.5 -25.5t43.5 -17.5t60 -14q36 -8 72 -20t65.5 -35.5t47.5 -60.5t18 -95q0 -51 -15.5 -88t-41.5 -62t-60 -39.5t-71 -21.5v-110h-121z" />
    <glyph glyph-name="percent" unicode="%" horiz-adv-x="866" 
d="M175 -6l410 706h106l-411 -706h-105zM370 505q0 -47 -13.5 -82.5t-37.5 -60.5t-56.5 -37.5t-69.5 -12.5q-39 0 -71.5 12t-56 36t-36.5 59t-13 82t13 83t36.5 61t56 37.5t71.5 12.5q37 0 69.5 -12t56.5 -36t37.5 -59.5t13.5 -82.5zM131 503q0 -66 16.5 -93t45.5 -27t45 27
t16 93t-16 93.5t-45 27.5t-45.5 -27.5t-16.5 -93.5zM849 193q0 -47 -13.5 -82.5t-37 -60.5t-56 -37.5t-69.5 -12.5q-39 0 -71 12t-55.5 36t-36.5 59t-13 82t13 83t36.5 61t55.5 37.5t71 12.5q37 0 69.5 -12.5t56 -36.5t37 -59.5t13.5 -81.5zM673 311q-29 0 -45 -27t-16 -93
t16 -93t45 -27t45.5 27t16.5 93t-16.5 93t-45.5 27z" />
    <glyph glyph-name="ampersand" unicode="&#x26;" horiz-adv-x="744" 
d="M238 535q0 -36 18 -63.5t46 -55.5q42 24 66 54.5t24 70.5q0 34 -15.5 55.5t-53.5 21.5q-39 0 -62 -24t-23 -59zM304 81q35 0 65 9t56 26q-18 16 -37.5 34t-39.5 38l-113 113q-31 -16 -49.5 -41t-18.5 -65q0 -50 33 -82t104 -32zM654 3q-38 0 -75 13t-75 39
q-42 -30 -94 -47.5t-117 -17.5q-63 0 -111.5 14.5t-82.5 41t-51.5 63.5t-17.5 81q0 35 11 62.5t30.5 49t46 37t56.5 26.5q-69 85 -69 162q0 36 13.5 68.5t40.5 56.5t67 38t93 14t92 -13.5t64 -36.5t37 -53.5t12 -63.5q0 -32 -12 -60t-33 -51.5t-49.5 -42t-62.5 -32.5
l101 -100q12 -12 22.5 -23t21.5 -22q23 38 37.5 79.5t22.5 82.5l94 -26q-7 -51 -26.5 -103.5t-53.5 -100.5q25 -20 48 -29.5t49 -9.5q8 0 15.5 0.5t12.5 1.5q6 1 12 3l-10 -92q-7 -3 -16 -5q-8 -2 -18.5 -3t-24.5 -1z" />
    <glyph glyph-name="quotesingle" unicode="'" horiz-adv-x="228" 
d="M49 695h130l-19 -219h-92z" />
    <glyph glyph-name="parenleft" unicode="(" horiz-adv-x="394" 
d="M246 -135q-47 42 -80 91.5t-54 105t-30.5 115t-9.5 121.5q0 61 9.5 123t30.5 118.5t54 106t80 87.5h121q-39 -38 -68 -87.5t-48 -105.5t-28.5 -117t-9.5 -122q0 -124 38 -236t116 -200h-121z" />
    <glyph glyph-name="parenright" unicode=")" horiz-adv-x="394" 
d="M126.015 -135q46.9971 42 79.9951 91.5t53.9971 105t30.498 115t9.49902 121.5q0 61 -9.49902 123t-30.498 118.5t-53.9971 106t-79.9951 87.5h-120.992q38.9971 -38 67.9961 -87.5q28.998 -49.5 47.9971 -105.5q18.998 -56 28.498 -117q9.49902 -61 9.49902 -122
q0 -124 -37.9971 -236q-37.998 -112 -115.993 -200h120.992z" />
    <glyph glyph-name="asterisk" unicode="*" horiz-adv-x="423" 
d="M212 478l-55 -113l-85 63l92 86l-126 17l33 100l111 -61l-23 125h105l-23 -124l110 60l33 -100l-125 -17l91 -86l-85 -63z" />
    <glyph glyph-name="plus" unicode="+" horiz-adv-x="583" 
d="M353 277v-205h-123v205h-185v100h185v204h123v-204h185v-100h-185z" />
    <glyph glyph-name="comma" unicode="," horiz-adv-x="257" 
d="M44 -105q21 23 37.5 52t23.5 56q-28 8 -41 28.5t-13 42.5q0 33 21.5 55.5t56.5 22.5t57.5 -23t22.5 -64q0 -25 -7 -50.5t-18 -48t-24.5 -41t-26.5 -30.5h-89z" />
    <glyph glyph-name="hyphen" unicode="-" horiz-adv-x="346" 
d="M48 352h250v-109h-250v109z" />
    <glyph glyph-name="period" unicode="." horiz-adv-x="255" 
d="M127 -8q-34 0 -57 23t-23 57t23 57t57 23t57 -23t23 -57t-23 -57t-57 -23z" />
    <glyph glyph-name="slash" unicode="/" horiz-adv-x="423" 
d="M0 -116l313 849h110l-313 -849h-110z" />
    <glyph glyph-name="zero" unicode="0" horiz-adv-x="683" 
d="M343 -10q-63 0 -117.5 21.5t-95 66t-64 111.5t-23.5 159q0 91 23.5 158.5t64 111t95 65t117.5 21.5q62 0 116.5 -21t94.5 -64.5t63 -110.5t23 -158t-23 -158.5t-63 -112.5t-94.5 -67t-116.5 -22zM342 87q32 0 58.5 13t45.5 43.5t29.5 80.5t10.5 123t-11 123t-30 80.5
t-45.5 43.5t-56.5 13q-31 0 -58 -13t-46.5 -43.5t-30.5 -80.5t-11 -123t10.5 -123t29.5 -80.5t45.5 -43.5t59.5 -13z" />
    <glyph glyph-name="one" unicode="1" horiz-adv-x="431" 
d="M189 0v539l-143 -135v134l166 157h129v-695h-152z" />
    <glyph glyph-name="two" unicode="2" horiz-adv-x="573" 
d="M47 0v92q80 68 138.5 120.5t97 97t57 84.5t18.5 84q0 60 -34.5 92.5t-94.5 32.5q-52 0 -84.5 -17.5t-55.5 -34.5l-29 106q28 19 74.5 33t112.5 14q130 0 198.5 -57.5t68.5 -156.5q0 -58 -21 -108t-60 -97t-94 -92.5t-123 -94.5h303v-98h-472z" />
    <glyph glyph-name="three" unicode="3" horiz-adv-x="552" 
d="M229 -10q-69 0 -118.5 15.5t-77.5 38.5l30 100q31 -23 70 -38t97 -15q59 0 91 29t32 83q0 108 -128 108h-85v97h87q47 0 76.5 25.5t29.5 73.5q0 47 -28.5 71.5t-85.5 24.5q-46 0 -81 -16t-58 -33l-30 101q37 26 84.5 37.5t104.5 11.5q59 0 104 -13.5t75.5 -38t46 -58.5
t15.5 -75q0 -63 -36.5 -102.5t-94.5 -50.5q34 -5 62.5 -18.5t49.5 -35.5t32.5 -51t11.5 -66q0 -44 -18 -81.5t-53.5 -65t-87 -43t-117.5 -15.5z" />
    <glyph glyph-name="four" unicode="4" horiz-adv-x="612" 
d="M343 529l-203 -285h203v285zM490 147v-147h-147v147h-313v92l327 456h133v-451h90v-97h-90z" />
    <glyph glyph-name="five" unicode="5" horiz-adv-x="549" 
d="M229 -10q-69 0 -118.5 15.5t-77.5 38.5l30 100q15 -11 31 -21t35 -17.5t42 -11.5t53 -4q67 0 102 34.5t35 100.5q0 62 -30.5 91.5t-82.5 29.5q-39 0 -59.5 -12.5t-28.5 -20.5h-97v382h415v-105h-301v-181q16 11 44 22t72 11q48 0 89 -13.5t70.5 -40t46 -66.5t16.5 -93
q0 -57 -20 -101.5t-57 -75t-90 -46.5t-119 -16z" />
    <glyph glyph-name="six" unicode="6" horiz-adv-x="623" 
d="M321 -10q-60 0 -111 18t-88 53.5t-58 88.5t-21 122q0 86 31 154.5t77.5 121t101.5 89.5t103 58h182v-10q-56 -27 -108 -59.5t-95.5 -70t-76 -80.5t-47.5 -90q27 34 66 52t91 18q42 0 81 -12.5t68.5 -39.5t47.5 -69t18 -101q0 -58 -21 -103.5t-56.5 -76.5t-83 -47
t-101.5 -16zM316 89q51 0 84 35.5t33 104.5q0 71 -31 105t-84 34q-42 0 -72 -18.5t-50 -46.5q-3 -21 -3 -47q0 -44 9.5 -75.5t26 -52t39 -30t48.5 -9.5z" />
    <glyph glyph-name="seven" unicode="7" horiz-adv-x="550" 
d="M101 0l259 589h-319v106h480v-92l-261 -603h-159z" />
    <glyph glyph-name="eight" unicode="8" horiz-adv-x="610" 
d="M306 -10q-60 0 -109.5 13t-84.5 38t-54.5 61.5t-19.5 82.5q0 69 43 114.5t115 65.5q-60 17 -95.5 56t-35.5 101q0 43 17.5 77t49.5 57t76 35.5t98 12.5q53 0 97.5 -12t76.5 -34.5t49.5 -56.5t17.5 -77q0 -62 -35.5 -101.5t-95.5 -57.5q72 -19 114 -63.5t42 -113.5
q0 -47 -19.5 -83.5t-54.5 -62t-84 -39t-108 -13.5zM306 414q44 0 72.5 24t28.5 69q0 48 -28.5 73t-72.5 25t-72.5 -25t-28.5 -73q0 -45 28.5 -69t72.5 -24zM305 89q50 0 82.5 30.5t32.5 88.5q0 54 -32.5 82t-82.5 28q-51 0 -83 -28t-32 -82q0 -58 32 -88.5t83 -30.5z" />
    <glyph glyph-name="nine" unicode="9" horiz-adv-x="623" 
d="M110 10q50 26 98.5 59.5t89.5 71.5t71 81t43 88q-26 -32 -65.5 -51t-92.5 -19q-42 0 -80.5 12.5t-68.5 39.5t-48 69t-18 101q0 58 21 103t57 76t84.5 47t102.5 16q59 0 109.5 -18t87 -53.5t57.5 -88.5t21 -123q0 -80 -27.5 -147.5t-70 -121t-93.5 -92t-98 -60.5h-180v10z
M307 605q-51 0 -84 -35t-33 -104q0 -70 31 -104.5t84 -34.5q42 0 72 18t50 47q3 27 3 49q0 45 -10 76t-26.5 50.5t-39 28.5t-47.5 9z" />
    <glyph glyph-name="colon" unicode=":" horiz-adv-x="255" 
d="M127 324q-34 0 -57 23t-23 57t23 57t57 23t57 -23t23 -57t-23 -57t-57 -23zM127 -8q-34 0 -57 23t-23 57t23 57t57 23t57 -23t23 -57t-23 -57t-57 -23z" />
    <glyph glyph-name="semicolon" unicode=";" horiz-adv-x="257" 
d="M44 -105q21 23 37.5 52t23.5 56q-28 8 -41 28.5t-13 42.5q0 33 21.5 55.5t56.5 22.5t57.5 -23t22.5 -64q0 -25 -7 -50.5t-18 -48t-24.5 -41t-26.5 -30.5h-89zM127 324q-34 0 -57 23t-23 57t23 57t57 23t57 -23t23 -57t-23 -57t-57 -23z" />
    <glyph glyph-name="less" unicode="&#x3c;" horiz-adv-x="511" 
d="M45 266v121l421 189v-109l-312 -140l312 -140v-109z" />
    <glyph glyph-name="equal" unicode="=" horiz-adv-x="584" 
d="M45 384v103h494v-103h-494zM45 166v104h494v-104h-494z" />
    <glyph glyph-name="greater" unicode="&#x3e;" horiz-adv-x="511" 
d="M45 187l312 140l-312 140v109l421 -189v-121l-421 -188v109z" />
    <glyph glyph-name="question" unicode="?" horiz-adv-x="467" 
d="M433 518q0 -30 -7.5 -53.5t-20 -42.5t-29.5 -35t-35 -31q-22 -18 -41.5 -32t-34.5 -28t-23.5 -30t-8.5 -37v-10h-114v17q0 31 6.5 54t19.5 42.5t31 36t41 34.5q29 23 45 47.5t16 59.5q0 19 -5.5 35.5t-17.5 29.5t-32 20.5t-48 7.5q-39 0 -67.5 -11t-50.5 -22l-25 99
q23 11 62.5 23t105.5 12q57 0 101 -13.5t73 -38t44 -59t15 -75.5zM178 -8q-35 0 -59.5 25t-24.5 60q0 36 24.5 60.5t59.5 24.5q36 0 61 -24.5t25 -60.5q0 -35 -25 -60t-61 -25z" />
    <glyph glyph-name="at" unicode="@" horiz-adv-x="1015" 
d="M495 -177q-96 0 -179.5 26.5t-145 79t-96.5 129.5t-35 179q0 105 36.5 191t101.5 147.5t155 95t198 33.5q91 0 172.5 -25t142 -73t96 -117.5t35.5 -158.5q0 -61 -16 -114t-47 -92t-75.5 -61t-102.5 -22q-68 0 -103 27t-47 66q-27 -46 -69 -69.5t-92 -23.5q-31 0 -61 11
t-53.5 34t-38 60t-14.5 90t15.5 99t43.5 79.5t67 53t85 19.5q50 0 85.5 -21.5t52.5 -68.5l33 62h92l-39 -241q-3 -20 -1.5 -39t8.5 -34t21 -24.5t37 -9.5q26 0 50 13t42 39t29 64.5t11 89.5q0 76 -26.5 135.5t-74.5 100t-115 62t-148 21.5q-88 0 -161 -27t-126 -77.5
t-82.5 -123.5t-29.5 -164q0 -88 27.5 -154t77.5 -110t120 -66t156 -22q75 0 127.5 13.5t78.5 27.5l13 -71q-14 -7 -38.5 -14t-55.5 -12.5t-66.5 -9t-70.5 -3.5zM384 236q0 -36 7 -59t18.5 -37t26 -19.5t28.5 -5.5q27 0 48 15t35.5 39.5t22.5 56t8 64.5q0 34 -7 57.5
t-18.5 37t-26 19.5t-29.5 6q-27 0 -48.5 -15t-35.5 -39t-21.5 -55.5t-7.5 -64.5z" />
    <glyph glyph-name="A" unicode="A" horiz-adv-x="660" 
d="M313 563l-98 -304h194zM441 161h-257l-52 -161h-119l229 695h177l228 -695h-155z" />
    <glyph glyph-name="B" unicode="B" horiz-adv-x="628" 
d="M224 600v-197h58q53 0 84.5 24.5t31.5 80.5q0 53 -29 72.5t-86 19.5h-59zM224 313v-218h69q65 0 101 25t36 87q0 58 -33 82t-105 24h-68zM68 695h213q133 0 202.5 -39t69.5 -133q0 -72 -39.5 -109.5t-105.5 -51.5q88 -10 134 -48.5t46 -113.5q0 -55 -23 -93t-63.5 -62
t-96 -34.5t-120.5 -10.5h-217v695z" />
    <glyph glyph-name="C" unicode="C" horiz-adv-x="633" 
d="M397 -10q-79 0 -144.5 24.5t-112.5 70t-73 112t-26 150.5t25.5 150.5t71.5 112t111 70t145 24.5q66 0 115 -12t75 -30l-17 -118q-30 21 -70.5 37t-90.5 16q-100 0 -152 -64t-52 -186q0 -250 209 -250q46 0 82 11.5t67 33.5l33 -102q-27 -19 -76 -34.5t-120 -15.5z" />
    <glyph glyph-name="D" unicode="D" horiz-adv-x="725" 
d="M223 596v-497h94q47 0 85 15.5t65 47.5t42 82t15 118q0 69 -14.5 114t-40.5 72t-62.5 37.5t-79.5 10.5h-104zM67 695h240q81 0 150 -16t120 -54t79.5 -101t28.5 -156t-29 -162t-80.5 -115t-122.5 -68.5t-156 -22.5h-230v695z" />
    <glyph glyph-name="E" unicode="E" horiz-adv-x="570" 
d="M67 695h447v-99h-291v-187h240v-99h-240v-211h296v-99h-452v695z" />
    <glyph glyph-name="F" unicode="F" horiz-adv-x="544" 
d="M223 289v-289h-156v695h440v-99h-284v-208h235v-99h-235z" />
    <glyph glyph-name="G" unicode="G" horiz-adv-x="748" 
d="M701 272q0 -61 -19 -113t-57.5 -89.5t-96.5 -58.5t-137 -21q-80 0 -144.5 25t-110.5 71t-70.5 112t-24.5 149t26 149t74 112.5t115.5 71t151.5 24.5q46 0 83.5 -4.5t67 -12.5t52.5 -19t42 -24l-18 -110q-44 28 -92.5 45.5t-116.5 17.5q-109 0 -166.5 -63.5t-57.5 -186.5
q0 -125 48.5 -190t144.5 -65q42 0 72 12t48.5 33.5t27.5 51t9 63.5v28h-185v100h334v-108v0z" />
    <glyph glyph-name="H" unicode="H" horiz-adv-x="727" 
d="M504 296h-281v-296h-156v695h156v-299h281v299h156v-695h-156v296z" />
    <glyph glyph-name="I" unicode="I" horiz-adv-x="290" 
d="M223 695v-695h-156v695h156z" />
    <glyph glyph-name="J" unicode="J" horiz-adv-x="416" 
d="M351 695v-523q0 -40 -12.5 -73.5t-38.5 -57.5t-67 -37.5t-98 -13.5q-36 0 -65 5.5t-46 16.5l14 99q10 -3 26 -8.5t38 -5.5q51 0 72.5 21.5t21.5 66.5v510h155z" />
    <glyph glyph-name="K" unicode="K" horiz-adv-x="676" 
d="M487 0l-258 341l276 354h139l-256 -328l276 -367h-177zM223 695v-695h-156v695h156z" />
    <glyph glyph-name="L" unicode="L" horiz-adv-x="546" 
d="M67 695h156v-596h283v-99h-439v695z" />
    <glyph glyph-name="M" unicode="M" horiz-adv-x="849" 
d="M199 534l-28 -534h-117l37 695h194l136 -424l143 424h194l37 -695h-156l-28 531l-151 -441h-116z" />
    <glyph glyph-name="N" unicode="N" horiz-adv-x="725" 
d="M185 511v-511h-118v695h168l305 -499v499h117v-695h-159z" />
    <glyph glyph-name="O" unicode="O" horiz-adv-x="785" 
d="M392 -10q-74 0 -138 23t-111.5 67.5t-74.5 111t-27 153.5t27 154t74.5 112.5t111.5 69t138 23.5q73 0 137.5 -22.5t112 -67.5t75 -111t27.5 -153t-27.5 -154t-75 -113t-112 -69.5t-137.5 -23.5zM392 92q41 0 76 13.5t60.5 43.5t40 78.5t14.5 119.5q0 70 -14.5 119t-40 79
t-60.5 43.5t-76 13.5q-42 0 -76.5 -13.5t-60 -43.5t-39.5 -79t-14 -119q0 -71 14 -119.5t39.5 -78.5t60 -43.5t76.5 -13.5z" />
    <glyph glyph-name="P" unicode="P" horiz-adv-x="615" 
d="M223 596v-258h68q63 0 99 32t36 103q0 67 -33.5 95t-97.5 28h-72zM223 239v-239h-156v695h224q138 0 214 -53t76 -166q0 -62 -20.5 -106.5t-58.5 -73.5t-92 -43t-120 -14h-67z" />
    <glyph glyph-name="Q" unicode="Q" horiz-adv-x="785" 
d="M712 -151q-151 37 -258 75.5t-189 74.5q-52 24 -93.5 55t-70.5 72.5t-44.5 94.5t-15.5 121q0 87 27 154t74 113.5t111 70.5t138 24q73 0 137.5 -22.5t112.5 -67.5t75.5 -111t27.5 -153q0 -60 -13.5 -114t-43.5 -97.5t-77 -75.5t-114 -49q69 -16 138 -25.5t126 -14.5z
M392 88q42 0 77 14t60.5 45t39.5 79t14 117q0 70 -14 119t-39.5 80t-60.5 45.5t-77 14.5t-77 -14.5t-60 -45.5t-39 -80t-14 -119q0 -69 14 -117t39 -79t60 -45t77 -14z" />
    <glyph glyph-name="R" unicode="R" horiz-adv-x="647" 
d="M223 596v-235h76q61 0 96 28t35 93q0 63 -32.5 88.5t-94.5 25.5h-80zM297 262h-74v-262h-156v695h231q144 0 217 -52t73 -162q0 -82 -37 -129.5t-103 -69.5l172 -282h-164z" />
    <glyph glyph-name="S" unicode="S" horiz-adv-x="576" 
d="M270 -10q-46 0 -84 7t-67 17t-50 22t-33 23l16 107q14 -11 35.5 -24t48.5 -23.5t58.5 -17.5t65.5 -7q60 0 97.5 23.5t37.5 72.5q0 25 -10.5 41t-30 26.5t-47 17t-60.5 14.5q-37 9 -74 22t-66 36t-47.5 59t-18.5 92q0 54 20 93t55 64t83 37t104 12q75 0 126 -15.5
t73 -34.5l-13 -107q-31 23 -78 38t-104 15q-66 0 -96 -22.5t-30 -64.5q0 -23 10 -37.5t28.5 -25t46.5 -18t64 -14.5q37 -8 75 -20t69 -35.5t50 -60.5t19 -95q0 -64 -24.5 -106t-63.5 -66.5t-87.5 -34.5t-97.5 -10z" />
    <glyph glyph-name="T" unicode="T" horiz-adv-x="603" 
d="M379 596v-596h-156v596h-195v99h547v-99h-196z" />
    <glyph glyph-name="U" unicode="U" horiz-adv-x="691" 
d="M57 695h155v-452q0 -76 39 -112.5t109 -36.5q67 0 108.5 36.5t41.5 112.5v452l124 1v-446q0 -62 -20.5 -110.5t-58 -81.5t-90 -50.5t-117.5 -17.5q-64 0 -117.5 16.5t-92 48.5t-60 80t-21.5 110v450z" />
    <glyph glyph-name="V" unicode="V" horiz-adv-x="652" 
d="M13 695h159l169 -552l177 552h121l-223 -695h-181z" />
    <glyph glyph-name="W" unicode="W" horiz-adv-x="943" 
d="M16 695h154l112 -535l135 535h143l135 -534l114 534h118l-149 -695h-185l-123 490l-125 -490h-179z" />
    <glyph glyph-name="X" unicode="X" horiz-adv-x="667" 
d="M312 265l-163 -265h-135l229 359l-214 336h170l155 -244l150 244h135l-215 -338l229 -357h-173z" />
    <glyph glyph-name="Y" unicode="Y" horiz-adv-x="649" 
d="M247 0v284l-234 411h166l163 -298l166 298h128l-233 -411v-284h-156z" />
    <glyph glyph-name="Z" unicode="Z" horiz-adv-x="588" 
d="M37 0v94l341 502h-331v99h503v-94l-343 -502h344v-99h-514z" />
    <glyph glyph-name="bracketleft" unicode="[" horiz-adv-x="443" 
d="M80 733h330v-91h-190v-686h190v-91h-330v868z" />
    <glyph glyph-name="backslash" unicode="\" horiz-adv-x="423" 
d="M0 733h110l313 -849h-110z" />
    <glyph glyph-name="bracketright" unicode="]" horiz-adv-x="443" 
d="M341.005 733h-329.979v-91h189.988v-686h-189.988v-91h329.979v868z" />
    <glyph glyph-name="asciicircum" unicode="^" horiz-adv-x="451" 
d="M225 606l-104 -171h-91l134 265h122l134 -265h-92z" />
    <glyph glyph-name="underscore" unicode="_" horiz-adv-x="417" 
d="M1 -37h415v-96h-415v96z" />
    <glyph glyph-name="grave" unicode="`" 
d="M239 566l-106 149h154l57 -149h-105z" />
    <glyph glyph-name="a" unicode="a" horiz-adv-x="538" 
d="M245 79q36 0 57.5 17.5t33.5 43.5v92h-40q-68 0 -94.5 -21t-26.5 -61q0 -36 19 -53.5t51 -17.5zM356 0q-5 13 -8.5 30.5t-5.5 37.5q-9 -14 -22 -28t-30 -25t-40 -18t-52 -7q-36 0 -67 9t-53 27.5t-34.5 46.5t-12.5 65q0 74 64 119.5t198 45.5h43v28q0 45 -22 67.5
t-82 22.5q-44 0 -76 -14.5t-63 -36.5l-42 101q32 19 80.5 32.5t121.5 13.5q110 0 169.5 -42.5t59.5 -138.5v-255q0 -17 1.5 -42.5t4.5 -38.5h-132z" />
    <glyph glyph-name="b" unicode="b" horiz-adv-x="618" 
d="M368 -10q-61 0 -102.5 28t-66.5 74l-10 -92h-128v725h146v-296q26 41 66 64.5t97 23.5q45 0 85 -16t70 -48.5t48 -82t18 -116.5t-18 -116.5t-48.5 -82.5t-71 -49t-85.5 -16zM326 85q51 0 83.5 40.5t32.5 128.5t-32.5 128.5t-83.5 40.5q-25 0 -47 -10t-38 -30.5
t-25.5 -52.5t-9.5 -76t9.5 -76t25.5 -52.5t38 -30.5t47 -10z" />
    <glyph glyph-name="c" unicode="c" horiz-adv-x="497" 
d="M304 -10q-57 0 -106 17t-84.5 50t-56 81t-20.5 111q0 62 21 112t58 84.5t88.5 53t111.5 18.5q52 0 85 -7.5t53 -17.5l-32 -108q-24 17 -46.5 27t-60.5 10q-26 0 -49 -10.5t-40.5 -31t-28 -51.5t-10.5 -73q0 -85 37.5 -127t103.5 -42q29 0 56.5 10.5t47.5 26.5l30 -84
q-19 -17 -58.5 -33t-99.5 -16z" />
    <glyph glyph-name="d" unicode="d" horiz-adv-x="630" 
d="M304 85q50 0 84.5 41.5t34.5 127.5q0 85 -34 126.5t-85 41.5q-52 0 -85 -41.5t-33 -126.5t33 -127t85 -42zM429 91q-23 -45 -64 -73t-104 -28q-45 0 -86 16t-71.5 49t-48.5 82.5t-18 116.5t18 116.5t48.5 82t71.5 48.5t87 16q54 0 94 -21.5t66 -60.5v290h146v-725h-128z
" />
    <glyph glyph-name="e" unicode="e" horiz-adv-x="545" 
d="M286 431q-41 0 -67.5 -31.5t-34.5 -92.5h188q2 64 -21.5 94t-64.5 30zM499 41q-23 -17 -70 -34t-115 -17q-69 0 -121 18.5t-86.5 53t-52 83.5t-17.5 109q0 61 18 109.5t51 82.5t78.5 52.5t101.5 18.5t101 -18t74.5 -54t41 -90t-0.5 -125h-320q7 -72 44.5 -106.5
t103.5 -34.5q42 0 77.5 12t63.5 29z" />
    <glyph glyph-name="f" unicode="f" horiz-adv-x="406" 
d="M240 413v-413h-146v413h-63v94h63v32q0 93 56.5 144t151.5 51q37 0 63.5 -5.5t37.5 -10.5l-21 -99q-14 9 -30 14.5t-37 5.5q-35 0 -55 -24.5t-20 -75.5v-32h140v-94h-140z" />
    <glyph glyph-name="g" unicode="g" horiz-adv-x="624" 
d="M303 118q49 0 82 37.5t33 113.5q0 78 -33 115.5t-83 37.5t-83.5 -37.5t-33.5 -115.5q0 -76 33.5 -113.5t84.5 -37.5zM269 -192q-51 0 -88 7t-61 15q-29 10 -48 23l28 99q7 -4 20 -11.5t33 -14.5t46 -12t59 -5q88 0 124.5 35t36.5 114v58q-23 -42 -63 -67t-97 -25
q-45 0 -85 15.5t-70.5 46t-48.5 76.5t-18 107q0 62 18 108.5t48.5 77.5t71.5 46.5t86 15.5q60 0 100.5 -25.5t63.5 -70.5l1 6q0 9 1 20l2 22t2.5 21t3.5 17h132q-2 -13 -3.5 -38.5t-1.5 -41.5v-366q0 -57 -16 -103.5t-51 -79.5t-90.5 -51.5t-135.5 -18.5z" />
    <glyph glyph-name="h" unicode="h" horiz-adv-x="604" 
d="M207 0h-146v725h146v-288h2q22 35 63 57.5t103 22.5q78 0 125 -40.5t47 -125.5v-351h-145v339q0 42 -21.5 58t-58.5 16q-43 0 -70.5 -19t-44.5 -48v-346z" />
    <glyph glyph-name="i" unicode="i" horiz-adv-x="268" 
d="M134 565q-36 0 -60.5 21t-24.5 56t24.5 56.5t60.5 21.5q35 0 60 -21.5t25 -56.5t-25 -56t-60 -21zM207 507v-507h-146v507h146z" />
    <glyph glyph-name="j" unicode="j" horiz-adv-x="267" 
d="M132 565q-36 0 -60 21t-24 56t24 56.5t60 21.5t60.5 -21.5t24.5 -56.5t-24.5 -56t-60.5 -21zM206 49q0 -66 -16 -112t-45.5 -75t-72.5 -43t-97 -15l-22 102q28 1 48.5 7t33.5 20t19.5 37.5t6.5 59.5v477h145v-458z" />
    <glyph glyph-name="k" unicode="k" horiz-adv-x="564" 
d="M207 263v-263h-146v725h146v-460l198 242h130l-181 -223l195 -284h-165z" />
    <glyph glyph-name="l" unicode="l" horiz-adv-x="269" 
d="M207 725v-725h-146v725h146z" />
    <glyph glyph-name="m" unicode="m" horiz-adv-x="903" 
d="M207 0h-146v507h131l11 -73h2q21 35 60.5 59t99.5 24q57 0 95.5 -24t55.5 -73q26 49 69.5 73t100.5 24q73 0 118 -41t45 -125v-351h-147v335q0 41 -19 59.5t-51 18.5q-38 0 -62.5 -20t-41.5 -51v-342h-146v340q0 42 -19.5 57.5t-51.5 15.5q-39 0 -63 -19.5t-41 -51.5
v-342z" />
    <glyph glyph-name="n" unicode="n" horiz-adv-x="602" 
d="M323 413q-44 0 -71.5 -19t-44.5 -48v-346h-146v507h134l8 -73h2q23 35 65.5 59t105.5 24q78 0 125 -40.5t47 -125.5v-351h-146v339q0 42 -21.5 58t-57.5 16z" />
    <glyph glyph-name="o" unicode="o" horiz-adv-x="612" 
d="M305 -10q-56 0 -105 17.5t-85 51t-57 82.5t-21 113t21 113t57 82.5t85 50.5t105 17t105.5 -17t86 -50.5t57.5 -82.5t21 -113t-21 -113t-57.5 -82.5t-85.5 -51t-106 -17.5zM305 85q52 0 86.5 38.5t34.5 130.5q0 91 -34.5 129.5t-86.5 38.5q-26 0 -47.5 -9t-37.5 -29
t-25 -52t-9 -78t9 -78t25 -52.5t37.5 -29.5t47.5 -9z" />
    <glyph glyph-name="p" unicode="p" horiz-adv-x="628" 
d="M326 85q51 0 83.5 40.5t32.5 128.5q0 86 -33 127t-83 41q-51 0 -85.5 -40.5t-34.5 -127.5q0 -44 9 -76t25.5 -52.5t38 -30.5t47.5 -10zM368 -10q-56 0 -95.5 23.5t-65.5 64.5v-259h-146v688h131l11 -84q25 44 66.5 69t100.5 25q44 0 84 -16t70.5 -48.5t48.5 -82
t18 -116.5t-18 -116.5t-49 -82.5t-71 -49t-85 -16z" />
    <glyph glyph-name="q" unicode="q" horiz-adv-x="632" 
d="M422 -181v258q-24 -39 -63.5 -63t-97.5 -24q-45 0 -86 16t-71.5 49t-48.5 82.5t-18 116.5t18 116.5t48.5 82t71.5 48.5t87 16q57 0 98.5 -24t66.5 -67q2 24 5.5 45.5t7.5 35.5h133q-2 -13 -3.5 -38.5t-1.5 -41.5v-608h-146zM304 93q51 0 85 39.5t34 121.5q0 81 -34 120.5
t-85 39.5q-52 0 -85 -40t-33 -120q0 -81 33 -121t85 -40z" />
    <glyph glyph-name="r" unicode="r" horiz-adv-x="411" 
d="M378 375q-22 3 -46.5 1t-48 -9.5t-43.5 -20.5t-33 -32v-314h-146v507h131l11 -104h3q28 54 71.5 82t100.5 32v-142v0z" />
    <glyph glyph-name="s" unicode="s" horiz-adv-x="492" 
d="M233 -10q-72 0 -120 14.5t-75 35.5l23 95q26 -21 70 -36t101 -15q95 0 95 58q0 19 -9.5 29.5t-26 17t-38 9.5t-45.5 7q-30 5 -59 13.5t-52 24.5t-37.5 42.5t-14.5 68.5q0 81 55.5 122t162.5 41q64 0 104.5 -12.5t59.5 -23.5l-27 -92q-17 12 -53 24.5t-81 12.5
q-42 0 -69 -12t-27 -41q0 -17 8.5 -26.5t23 -15t33 -8t39.5 -5.5q31 -5 64 -13t60.5 -25t45 -46t17.5 -76q0 -49 -19 -81t-50.5 -51.5t-73 -27.5t-85.5 -8z" />
    <glyph glyph-name="t" unicode="t" horiz-adv-x="414" 
d="M385 15q-17 -10 -44.5 -17.5t-71.5 -7.5q-96 0 -140.5 43.5t-44.5 130.5v249h-60v94h60v106h147v-106h142v-94h-142v-246q0 -41 17.5 -57.5t49.5 -16.5q22 0 39 6.5t28 12.5l20 -97v0z" />
    <glyph glyph-name="u" unicode="u" horiz-adv-x="594" 
d="M387 73q-20 -35 -60 -59t-103 -24q-74 0 -121 43t-47 130v344h147v-340q0 -43 21.5 -57.5t51.5 -14.5q40 0 67 19t44 51v342h146v-507h-131l-12 73h-3v0z" />
    <glyph glyph-name="v" unicode="v" horiz-adv-x="538" 
d="M14 507h147l120 -390l121 390h122l-170 -507h-171z" />
    <glyph glyph-name="w" unicode="w" horiz-adv-x="768" 
d="M17 507h139l78 -374l94 374h134l92 -377l79 377h118l-112 -507h-172l-82 349l-83 -349h-172z" />
    <glyph glyph-name="x" unicode="x" horiz-adv-x="549" 
d="M259 179l-117 -179h-127l176 262l-162 245h162l103 -166l106 166h128l-166 -250l172 -257h-162z" />
    <glyph glyph-name="y" unicode="y" horiz-adv-x="568" 
d="M144 -188q-42 0 -65.5 5t-38.5 13l17 103q7 -4 27 -11.5t52 -7.5q52 0 80 55l-202 538h149l135 -380l135 380h121l-184 -489q-20 -54 -42 -93t-49 -64t-60 -37t-75 -12z" />
    <glyph glyph-name="z" unicode="z" horiz-adv-x="481" 
d="M36 0v85l243 330h-235v92h400v-85l-237 -330h238v-92h-409z" />
    <glyph glyph-name="braceleft" unicode="{" horiz-adv-x="449" 
d="M397 -129q-69 -13 -118 -7t-81 25.5t-47 49t-15 64.5q0 24 3.5 42.5t7 35.5l7 34t3.5 38q0 22 -4.5 39t-16 30t-31.5 20.5t-50 10.5v93q31 2 51 9.5t31 19.5t15.5 29t4.5 39q0 16 -3.5 32.5t-7 34.5t-7 39t-3.5 47q0 35 15 64t46.5 48t81 24.5t118.5 -5.5v-84
q-36 7 -59 3.5t-36 -14t-17.5 -27.5t-4.5 -37q0 -38 3 -66t3 -61q0 -50 -26.5 -86.5t-95.5 -56.5q69 -18 95.5 -54t26.5 -84q0 -35 -3 -62t-3 -60q0 -23 5 -41.5t17.5 -29.5t35.5 -14.5t59 3.5v-85v0z" />
    <glyph glyph-name="bar" unicode="|" horiz-adv-x="276" 
d="M195 733v-849h-114v849h114z" />
    <glyph glyph-name="braceright" unicode="}" horiz-adv-x="449" 
d="M30.0244 -129q68.9951 -13 117.992 -7t80.9951 25.5t46.9971 49t14.999 64.5q0 24 -3.49902 42.5q-3.5 18.5 -7 35.5t-6.99902 34q-3.5 17 -3.5 38q0 22 4.5 39q4.49902 17 15.999 30q11.499 13 31.498 20.5q19.998 7.5 49.9961 10.5v93q-30.998 2 -50.9961 9.5
q-19.999 7.5 -30.998 19.5q-11 12 -15.499 29q-4.5 17 -4.5 39q0 16 3.5 32.5q3.49902 16.5 6.99902 34.5t7 39q3.49902 21 3.49902 47q0 35 -14.999 64t-46.4971 48t-80.9951 24.5t-118.492 -5.5v-84q35.998 7 58.9961 3.5q22.999 -3.5 35.998 -14t17.499 -27.5t4.5 -37
q0 -38 -3 -66t-3 -61q0 -50 26.498 -86.5q26.499 -36.5 95.4941 -56.5q-68.9951 -18 -95.4941 -54q-26.498 -36 -26.498 -84q0 -35 3 -62t3 -60q0 -23 -5 -41.5t-17.499 -29.5t-35.498 -14.5q-22.998 -3.5 -58.9961 3.5v-85v0z" />
    <glyph glyph-name="asciitilde" unicode="~" horiz-adv-x="625" 
d="M49 226q-7 37 -1.5 72.5t24 63t51.5 44.5t80 17q42 0 73.5 -12.5t56 -28t45.5 -28t43 -12.5q27 0 42 19t13 70h100q7 -37 2.5 -72.5t-23 -63.5t-50.5 -45t-80 -17q-42 0 -73.5 13t-56 28t-45.5 28t-43 13q-26 0 -42.5 -19t-14.5 -70h-101v0z" />
    <glyph glyph-name="uni00A0" unicode="&#xa0;" horiz-adv-x="216" 
 />
    <glyph glyph-name="exclamdown" unicode="&#xa1;" horiz-adv-x="288" 
d="M69.0137 -194.957l21.998 479.971h106.994l21.998 -479.971h-150.99zM145.009 512q35.998 0 59.9961 -24.999q23.999 -24.998 23.999 -59.9961q0 -35.998 -23.999 -60.4961q-23.998 -24.499 -59.9961 -24.499t-60.9961 24.499q-24.999 24.498 -24.999 60.4961
q0 34.998 24.999 59.9961q24.998 24.999 60.9961 24.999z" />
    <glyph glyph-name="cent" unicode="&#xa2;" horiz-adv-x="508" 
d="M462 39q-14 -13 -40.5 -26t-64.5 -19v-114h-121v117q-44 9 -80.5 29.5t-63 52.5t-41 74.5t-14.5 95.5q0 52 15 96t41.5 77.5t64 55.5t82.5 32v107h120v-102q33 -3 57 -8.5t43 -13.5l-32 -113q-26 18 -53.5 29.5t-68.5 11.5q-23 0 -44 -10.5t-38 -31t-27 -51.5t-10 -73
q0 -85 37.5 -127t103.5 -42q29 0 56.5 10.5t47.5 26.5l30 -84v0z" />
    <glyph glyph-name="sterling" unicode="&#xa3;" horiz-adv-x="559" 
d="M526 0h-468v70q48 38 69.5 74t21.5 82q0 20 -2 36.5t-5 32.5h-88v86h60q-11 28 -18.5 56.5t-7.5 64.5q0 91 64 146.5t191 55.5q53 0 90.5 -8.5t60.5 -19.5l-29 -102q-23 12 -55.5 19.5t-69.5 7.5q-54 0 -79 -32.5t-25 -77.5q0 -35 8 -60t17 -50h156v-86h-133
q1 -8 1.5 -16.5t0.5 -18.5q0 -52 -21 -92.5t-59 -69.5h320v-98z" />
    <glyph glyph-name="currency" unicode="&#xa4;" horiz-adv-x="537" 
d="M375 164q-23 -14 -50.5 -22t-56.5 -8t-56.5 8t-50.5 22l-68 -68l-59 60l65 67q-16 24 -25 52t-9 59q0 60 33 110l-66 68l60 61l68 -70q48 31 108 31t108 -31l69 70l59 -61l-67 -68q34 -49 34 -110t-34 -110l66 -68l-60 -60zM269 451q-44 0 -73.5 -30.5t-29.5 -86.5
t29.5 -86.5t73.5 -30.5q43 0 71.5 30.5t28.5 86.5t-28.5 86.5t-71.5 30.5z" />
    <glyph glyph-name="yen" unicode="&#xa5;" horiz-adv-x="602" 
d="M373 148v-148h-142v148h-144v68h144v70h-144v68h124l-186 341h151l143 -275l146 275h112l-184 -341h125v-68h-145v-70h145v-68h-145z" />
    <glyph glyph-name="brokenbar" unicode="&#xa6;" horiz-adv-x="276" 
d="M195 733v-388h-114v388h114zM195 272v-388h-114v388h114z" />
    <glyph glyph-name="section" unicode="&#xa7;" horiz-adv-x="562" 
d="M286 177q58 0 90 22.5t32 63.5q0 42 -33 62.5t-93 20.5q-61 0 -93.5 -20.5t-32.5 -61.5q0 -26 12 -42.5t31 -26.5t42 -14t45 -4zM246 -189q-84 0 -135.5 18.5t-77.5 38.5l28 88q35 -26 82.5 -42t98.5 -16q62 0 95.5 21t33.5 64q0 23 -8.5 38.5t-25 26t-41.5 18t-58 13.5
q-41 8 -78 20t-65.5 31.5t-45 48.5t-16.5 70q0 62 38 99t97 47q-52 20 -77 55.5t-25 82.5q0 81 65.5 126t184.5 45q71 0 113 -12.5t66 -25.5l-30 -86q-29 17 -65.5 27t-84.5 10q-67 0 -94.5 -20.5t-27.5 -58.5q0 -21 9.5 -36t27 -25.5t41 -17t50.5 -11.5q41 -7 79 -19.5
t67.5 -33.5t47 -52t17.5 -75q0 -62 -35 -96t-89 -46q45 -17 68 -52t23 -83q0 -49 -21.5 -83.5t-56.5 -56t-80.5 -31t-94.5 -9.5z" />
    <glyph glyph-name="dieresis" unicode="&#xa8;" horiz-adv-x="453" 
d="M337 565q-33 0 -54.5 20t-21.5 53q0 34 21.5 53.5t54.5 19.5q32 0 54.5 -19.5t22.5 -53.5q0 -33 -22.5 -53t-54.5 -20zM115 565q-32 0 -54 20t-22 53q0 34 22 53.5t54 19.5q33 0 55.5 -19.5t22.5 -53.5q0 -33 -22.5 -53t-55.5 -20z" />
    <glyph glyph-name="copyright" unicode="&#xa9;" horiz-adv-x="875" 
d="M437 -97q-85 0 -158.5 30t-128 83.5t-85.5 127.5t-31 163q0 88 31 161.5t85.5 126.5t128 83t158.5 30q86 0 159.5 -30t127.5 -83t85 -126.5t31 -161.5q0 -89 -31 -163t-85 -127.5t-127.5 -83.5t-159.5 -30zM437 -37q73 0 133.5 25.5t103.5 71t66.5 109t23.5 138.5
t-23.5 137.5t-66.5 108t-103.5 71t-133.5 25.5t-133 -25.5t-103 -71t-66.5 -108t-23.5 -137.5t23.5 -138.5t66.5 -109t103 -71t133 -25.5zM461 97q-100 0 -157.5 55.5t-57.5 153.5t57 152.5t157 54.5q42 0 70.5 -7.5t43.5 -20.5l-13 -88q-18 13 -38.5 21.5t-49.5 8.5
q-58 0 -85 -30t-27 -91q0 -122 112 -122q53 0 90 23l11 -77q-13 -12 -40.5 -22.5t-72.5 -10.5z" />
    <glyph glyph-name="ordfeminine" unicode="&#xaa;" horiz-adv-x="502" 
d="M227 383q23 0 39.5 10t27 24.5t15.5 30t5 26.5v39h-51q-51 0 -73 -17.5t-22 -49.5q0 -29 15 -46t44 -17zM317 384q-8 -14 -20 -28t-29 -25.5t-40 -18.5t-53 -7q-58 0 -97 31t-39 95q0 145 221 145h54v21q0 44 -24.5 59.5t-64.5 15.5q-41 0 -73 -12t-55 -24l-29 84
q23 13 68.5 26t107.5 13q96 0 149 -37.5t53 -121.5v-217q0 -14 1 -36t3 -34h-122q-4 14 -6.5 33.5t-4.5 36.5v1z" />
    <glyph glyph-name="guillemotleft" unicode="&#xab;" horiz-adv-x="515" 
d="M155 83l-118 175l118 175h121l-118 -175l118 -175h-121zM357 83l-119 175l119 175h121l-118 -175l118 -175h-121z" />
    <glyph glyph-name="logicalnot" unicode="&#xac;" horiz-adv-x="592" 
d="M425 82v200h-380v100h502v-300h-122z" />
    <glyph glyph-name="registered" unicode="&#xae;" horiz-adv-x="875" 
d="M437 -97q-85 0 -158.5 30t-128 83.5t-85.5 127.5t-31 163q0 88 31 161.5t85.5 126.5t128 83t158.5 30q86 0 159.5 -30t127.5 -83t85 -126.5t31 -161.5q0 -89 -31 -163t-85 -127.5t-127.5 -83.5t-159.5 -30zM437 -37q73 0 133.5 25.5t103.5 71t66.5 109t23.5 138.5
t-23.5 137.5t-66.5 108t-103.5 71t-133.5 25.5t-133 -25.5t-103 -71t-66.5 -108t-23.5 -137.5t23.5 -138.5t66.5 -109t103 -71t133 -25.5zM390 438v-122h44q29 0 45.5 14t16.5 49t-16.5 47t-46.5 12h-43zM431 254h-41v-146h-109v404h149q88 0 132 -30t44 -96
q0 -45 -18.5 -71.5t-51.5 -40.5l95 -166h-119z" />
    <glyph glyph-name="macron" unicode="&#xaf;" 
d="M79 678h296v-89h-296v89z" />
    <glyph glyph-name="degree" unicode="&#xb0;" horiz-adv-x="461" 
d="M230 347q-39 0 -72 13.5t-57.5 37.5t-38 57.5t-13.5 72.5t13.5 72t38 57t57.5 37.5t72 13.5t72.5 -13.5t58 -37.5t38 -57t13.5 -72t-13.5 -72.5t-38 -57.5t-58 -37.5t-72.5 -13.5zM230 421q45 0 69.5 29.5t24.5 77.5t-24.5 77t-69.5 29q-44 0 -68 -29t-24 -77t24 -77.5
t68 -29.5z" />
    <glyph glyph-name="plusminus" unicode="&#xb1;" horiz-adv-x="584" 
d="M45 0v100h185v194h-185v99h185v197h123v-197h186v-99h-186v-194h186v-100h-494z" />
    <glyph glyph-name="two.sup" unicode="&#xb2;" horiz-adv-x="393" 
d="M39 315v70q52 36 88.5 65.5t58.5 55.5t32 50t10 49q0 36 -16.5 57t-54.5 21q-35 0 -57.5 -12t-36.5 -23l-22 77q22 14 54.5 23.5t77.5 9.5q83 0 129 -36t46 -105q0 -65 -44 -119.5t-134 -106.5h183v-76h-314z" />
    <glyph glyph-name="three.sup" unicode="&#xb3;" horiz-adv-x="393" 
d="M172 309q-51 0 -85 9t-55 21l24 72q14 -8 39 -17.5t64 -9.5q38 0 55.5 17t17.5 45q0 61 -76 61h-49v70h51q26 0 43.5 13t17.5 39q0 25 -16.5 39.5t-49.5 14.5q-29 0 -51 -9t-40 -22l-22 74q20 13 53 22.5t80 9.5q81 0 122 -31.5t41 -82.5q0 -41 -24 -65.5t-60 -31.5
q43 -6 72.5 -34t29.5 -76q0 -57 -45.5 -92.5t-136.5 -35.5z" />
    <glyph glyph-name="acute" unicode="&#xb4;" horiz-adv-x="453" 
d="M183 715h150l-106 -149h-103z" />
    <glyph glyph-name="paragraph" unicode="&#xb6;" horiz-adv-x="633" 
d="M560 -177h-97v872h97v-872zM293 -177v434h-18q-51 0 -95.5 13t-77 40t-51.5 68t-19 97q0 55 17 96.5t48 69t74.5 41t95.5 13.5h123v-872h-97z" />
    <glyph glyph-name="periodcentered" unicode="&#xb7;" horiz-adv-x="248" 
d="M124 188q-34 0 -57 23t-23 57t23 57t57 23t57 -23t23 -57t-23 -57t-57 -23z" />
    <glyph glyph-name="cedilla" unicode="&#xb8;" 
d="M209 -189q-33 0 -54.5 5.5t-29.5 10.5l11 54q7 -5 20 -9.5t30 -4.5q18 0 29.5 5.5t11.5 21.5q0 17 -13.5 23t-36.5 6h-16l29 80h69l-15 -41q48 -4 66.5 -24t18.5 -49q0 -42 -33.5 -60t-86.5 -18z" />
    <glyph glyph-name="one.sup" unicode="&#xb9;" horiz-adv-x="326" 
d="M139 315v331l-105 -97v97l116 106h109v-437h-120z" />
    <glyph glyph-name="ordmasculine" unicode="&#xba;" horiz-adv-x="538" 
d="M269 305q-50 0 -93 15t-74.5 43.5t-50 71t-18.5 98.5q0 55 18.5 97t50 70.5t74.5 43.5t92 15t92.5 -15t75.5 -43.5t50.5 -70.5t18.5 -97q0 -56 -18.5 -98.5t-50 -71t-75 -43.5t-92.5 -15zM269 390q45 0 73.5 35t28.5 108t-28.5 107t-73.5 34t-73 -34t-28 -107t28 -108
t73 -35z" />
    <glyph glyph-name="guillemotright" unicode="&#xbb;" horiz-adv-x="515" 
d="M155 258l-118 175h121l118 -175l-118 -175h-121zM357 258l-118 175h121l118 -175l-118 -175h-121z" />
    <glyph glyph-name="onequarter" unicode="&#xbc;" horiz-adv-x="966" 
d="M155 0l558 695h107l-559 -695h-106zM757 319l-116 -161h116v161zM870 87v-86h-113v86h-198v66l209 285h102v-280h52v-71h-52zM155 257v331l-105 -97v97l116 106h109v-437h-120z" />
    <glyph glyph-name="onehalf" unicode="&#xbd;" horiz-adv-x="1027" 
d="M155 0l558 695h107l-559 -695h-106zM666 1v70q52 36 88.5 65.5t58.5 55.5t32 50t10 49q0 36 -16.5 57t-54.5 21q-35 0 -57.5 -12t-36.5 -23l-22 77q22 14 54.5 23.5t77.5 9.5q83 0 129 -36t46 -105q0 -65 -44 -119.5t-134 -106.5h183v-76h-314zM155 257v331l-105 -97v97
l116 106h109v-437h-120z" />
    <glyph glyph-name="threequarters" unicode="&#xbe;" horiz-adv-x="991" 
d="M180 0l558 695h107l-559 -695h-106zM783 319l-116 -161h116v161zM896 87v-86h-113v86h-198v66l209 285h102v-280h52v-71h-52zM188 251q-51 0 -85 9t-55 21l24 72q14 -8 39 -17.5t64 -9.5q38 0 55.5 17t17.5 45q0 61 -76 61h-49v70h51q26 0 43.5 13t17.5 39
q0 25 -16.5 39.5t-49.5 14.5q-29 0 -51 -9t-40 -22l-22 74q20 13 53 22.5t80 9.5q81 0 122 -31.5t41 -82.5q0 -41 -24 -65.5t-60 -31.5q43 -6 72.5 -34t29.5 -76q0 -57 -45.5 -92.5t-136.5 -35.5z" />
    <glyph glyph-name="questiondown" unicode="&#xbf;" horiz-adv-x="467" 
d="M12.0264 -10.9688q0 29.998 7.5 53.4971q7.49902 23.499 19.998 42.4971q12.5 18.999 29.499 34.998q16.998 15.999 34.9971 30.998q21.999 17.999 41.498 31.998t34.498 27.998q14.999 14 23.498 29.999q8.5 15.999 8.5 36.9971v10h113.992v-16.999
q0 -30.998 -6.49902 -53.9971q-6.5 -22.998 -19.499 -42.4971t-30.998 -35.998t-40.9971 -34.498q-28.999 -22.998 -44.998 -47.4971q-15.999 -24.498 -15.999 -59.4961q0 -18.999 5.5 -35.498t17.499 -29.498t31.998 -20.499q19.999 -7.49902 47.9971 -7.49902
q38.9971 0 67.4961 10.999q28.498 10.999 50.4971 21.999l24.998 -98.9941q-22.999 -11 -62.4961 -22.999q-39.498 -11.999 -105.494 -11.999q-56.9961 0 -100.993 13.499t-72.9961 37.998q-28.998 24.498 -43.9971 58.9961t-14.999 75.4951zM267.011 515
q34.998 0 59.4961 -24.999q24.499 -24.998 24.499 -59.9961q0 -35.998 -24.499 -60.4961q-24.498 -24.499 -59.4961 -24.499q-35.998 0 -60.9961 24.499q-24.999 24.498 -24.999 60.4961q0 34.998 24.999 59.9961q24.998 24.999 60.9961 24.999z" />
    <glyph glyph-name="Agrave" unicode="&#xc0;" horiz-adv-x="660" 
d="M313 563l-98 -304h194zM441 161h-257l-52 -161h-119l229 695h177l228 -695h-155zM277 744l-110 126h162l61 -126h-113z" />
    <glyph glyph-name="Aacute" unicode="&#xc1;" horiz-adv-x="660" 
d="M313 563l-98 -304h194zM441 161h-257l-52 -161h-119l229 695h177l228 -695h-155zM331 870h155l-109 -126h-110z" />
    <glyph glyph-name="Acircumflex" unicode="&#xc2;" horiz-adv-x="660" 
d="M313 563l-98 -304h194zM441 161h-257l-52 -161h-119l229 695h177l228 -695h-155zM323 802l-70 -58h-95l91 126h148l92 -126h-96z" />
    <glyph glyph-name="Atilde" unicode="&#xc3;" horiz-adv-x="660" 
d="M313 563l-98 -304h194zM441 161h-257l-52 -161h-119l229 695h177l228 -695h-155zM152 750q-4 25 -0.5 49t15.5 42.5t33 30t52 11.5q25 0 45.5 -6.5t38 -14t33 -13.5t31.5 -6q17 0 24.5 9.5t6.5 33.5h71q4 -26 1 -50t-15 -42.5t-33 -30t-52 -11.5q-26 0 -46.5 6.5t-38 14
t-33 14t-31.5 6.5q-17 0 -24.5 -9.5t-6.5 -33.5h-71z" />
    <glyph glyph-name="Adieresis" unicode="&#xc4;" horiz-adv-x="660" 
d="M313 563l-98 -304h194zM441 161h-257l-52 -161h-119l229 695h177l228 -695h-155zM444 739q-33 0 -55 20.5t-22 52.5q0 34 22 53.5t55 19.5q32 0 54.5 -19.5t22.5 -53.5q0 -32 -22.5 -52.5t-54.5 -20.5zM209 739q-32 0 -54 20.5t-22 52.5q0 34 22 53.5t54 19.5
q33 0 55 -19.5t22 -53.5q0 -32 -22 -52.5t-55 -20.5z" />
    <glyph glyph-name="Aring" unicode="&#xc5;" horiz-adv-x="660" 
d="M313 563l-98 -304h194zM441 161h-257l-52 -161h-119l229 695h177l228 -695h-155zM327 726q-49 0 -81.5 30t-32.5 77t32.5 76.5t81.5 29.5t81.5 -29.5t32.5 -76.5t-32.5 -77t-81.5 -30zM327 782q21 0 33.5 14t12.5 37q0 22 -12.5 36.5t-33.5 14.5t-33.5 -14.5t-12.5 -36.5
q0 -23 12.5 -37t33.5 -14z" />
    <glyph glyph-name="AE" unicode="&#xc6;" horiz-adv-x="968" 
d="M466 599l-171 -310h171v310zM466 189h-226l-104 -189h-123l383 695h516v-99h-292v-188h241v-99h-241v-210h297v-99h-451v189z" />
    <glyph glyph-name="Ccedilla" unicode="&#xc7;" horiz-adv-x="633" 
d="M350 -189q-33 0 -54.5 5.5t-29.5 10.5l11 54q7 -5 20 -9.5t30 -4.5q18 0 29.5 5.5t11.5 21.5q0 17 -13.5 23t-36.5 6h-16l26 72q-65 10 -118 38t-90.5 73t-58 105.5t-20.5 135.5q0 84 25.5 150.5t71.5 112t111 70t145 24.5q66 0 115 -12t75 -30l-17 -118q-30 21 -70.5 37
t-90.5 16q-100 0 -152 -64t-52 -186q0 -250 209 -250q46 0 82 11.5t67 33.5l33 -102q-27 -19 -76 -34.5t-120 -15.5h-2l-10 -28q48 -4 66.5 -24t18.5 -49q0 -42 -33.5 -60t-86.5 -18z" />
    <glyph glyph-name="Egrave" unicode="&#xc8;" horiz-adv-x="570" 
d="M67 695h447v-99h-291v-187h240v-99h-240v-211h296v-99h-452v695zM259 744l-110 126h162l61 -126h-113z" />
    <glyph glyph-name="Eacute" unicode="&#xc9;" horiz-adv-x="570" 
d="M67 695h447v-99h-291v-187h240v-99h-240v-211h296v-99h-452v695zM306 870h155l-109 -126h-110z" />
    <glyph glyph-name="Ecircumflex" unicode="&#xca;" horiz-adv-x="570" 
d="M67 695h447v-99h-291v-187h240v-99h-240v-211h296v-99h-452v695zM298 800l-70 -58h-95l91 126h148l92 -126h-96z" />
    <glyph glyph-name="Edieresis" unicode="&#xcb;" horiz-adv-x="570" 
d="M67 695h447v-99h-291v-187h240v-99h-240v-211h296v-99h-452v695zM412 739q-33 0 -55 20.5t-22 52.5q0 34 22 53.5t55 19.5q32 0 54.5 -19.5t22.5 -53.5q0 -32 -22.5 -52.5t-54.5 -20.5zM177 739q-32 0 -54 20.5t-22 52.5q0 34 22 53.5t54 19.5q33 0 55 -19.5t22 -53.5
q0 -32 -22 -52.5t-55 -20.5z" />
    <glyph glyph-name="Igrave" unicode="&#xcc;" horiz-adv-x="290" 
d="M223 695v-695h-156v695h156zM96 744l-110 126h162l61 -126h-113z" />
    <glyph glyph-name="Iacute" unicode="&#xcd;" horiz-adv-x="290" 
d="M223 695v-695h-156v695h156zM149 870h155l-109 -126h-110z" />
    <glyph glyph-name="Icircumflex" unicode="&#xce;" horiz-adv-x="290" 
d="M223 695v-695h-156v695h156zM142 802l-70 -58h-95l91 126h148l92 -126h-96z" />
    <glyph glyph-name="Idieresis" unicode="&#xcf;" horiz-adv-x="290" 
d="M250 749q-33 0 -54.5 20.5t-21.5 52.5q0 34 21.5 53.5t54.5 19.5q32 0 54.5 -19.5t22.5 -53.5q0 -32 -22.5 -52.5t-54.5 -20.5zM40 749q-33 0 -54.5 20.5t-21.5 52.5q0 34 21.5 53.5t54.5 19.5q32 0 54.5 -19.5t22.5 -53.5q0 -32 -22.5 -52.5t-54.5 -20.5zM223 695v-695
h-156v695h156z" />
    <glyph glyph-name="Eth" unicode="&#xd0;" horiz-adv-x="749" 
d="M246 309v-210h82q50 0 90.5 15.5t69.5 47.5t44.5 82t15.5 118q0 69 -15.5 114t-43 72t-66.5 37.5t-85 10.5h-92v-198h154v-89h-154zM90 309h-78v89h78v297h240q81 0 150.5 -16t120 -54t79 -101t28.5 -156t-28.5 -162t-80 -115t-123 -68.5t-156.5 -22.5h-230v309z" />
    <glyph glyph-name="Ntilde" unicode="&#xd1;" horiz-adv-x="725" 
d="M185 511v-511h-118v695h168l305 -499v499h117v-695h-159zM206 750q-4 25 -0.5 49t15.5 42.5t33 30t52 11.5q25 0 45.5 -6.5t38 -14t33 -13.5t31.5 -6q17 0 24.5 9.5t6.5 33.5h71q4 -26 1 -50t-15 -42.5t-33 -30t-52 -11.5q-26 0 -46.5 6.5t-38 14t-33 14t-31.5 6.5
q-17 0 -24.5 -9.5t-6.5 -33.5h-71z" />
    <glyph glyph-name="Ograve" unicode="&#xd2;" horiz-adv-x="785" 
d="M392 -10q-74 0 -138 23t-111.5 67.5t-74.5 111t-27 153.5t27 154t74.5 112.5t111.5 69t138 23.5q73 0 137.5 -22.5t112 -67.5t75 -111t27.5 -153t-27.5 -154t-75 -113t-112 -69.5t-137.5 -23.5zM392 92q41 0 76 13.5t60.5 43.5t40 78.5t14.5 119.5q0 70 -14.5 119t-40 79
t-60.5 43.5t-76 13.5q-42 0 -76.5 -13.5t-60 -43.5t-39.5 -79t-14 -119q0 -71 14 -119.5t39.5 -78.5t60 -43.5t76.5 -13.5zM343 744l-110 126h162l61 -126h-113z" />
    <glyph glyph-name="Oacute" unicode="&#xd3;" horiz-adv-x="785" 
d="M392 -10q-74 0 -138 23t-111.5 67.5t-74.5 111t-27 153.5t27 154t74.5 112.5t111.5 69t138 23.5q73 0 137.5 -22.5t112 -67.5t75 -111t27.5 -153t-27.5 -154t-75 -113t-112 -69.5t-137.5 -23.5zM392 92q41 0 76 13.5t60.5 43.5t40 78.5t14.5 119.5q0 70 -14.5 119t-40 79
t-60.5 43.5t-76 13.5q-42 0 -76.5 -13.5t-60 -43.5t-39.5 -79t-14 -119q0 -71 14 -119.5t39.5 -78.5t60 -43.5t76.5 -13.5zM396 870h155l-109 -126h-110z" />
    <glyph glyph-name="Ocircumflex" unicode="&#xd4;" horiz-adv-x="785" 
d="M392 -10q-74 0 -138 23t-111.5 67.5t-74.5 111t-27 153.5t27 154t74.5 112.5t111.5 69t138 23.5q73 0 137.5 -22.5t112 -67.5t75 -111t27.5 -153t-27.5 -154t-75 -113t-112 -69.5t-137.5 -23.5zM392 92q41 0 76 13.5t60.5 43.5t40 78.5t14.5 119.5q0 70 -14.5 119t-40 79
t-60.5 43.5t-76 13.5q-42 0 -76.5 -13.5t-60 -43.5t-39.5 -79t-14 -119q0 -71 14 -119.5t39.5 -78.5t60 -43.5t76.5 -13.5zM389 802l-70 -58h-95l91 126h148l92 -126h-96z" />
    <glyph glyph-name="Otilde" unicode="&#xd5;" horiz-adv-x="785" 
d="M392 -10q-74 0 -138 23t-111.5 67.5t-74.5 111t-27 153.5t27 154t74.5 112.5t111.5 69t138 23.5q73 0 137.5 -22.5t112 -67.5t75 -111t27.5 -153t-27.5 -154t-75 -113t-112 -69.5t-137.5 -23.5zM392 92q41 0 76 13.5t60.5 43.5t40 78.5t14.5 119.5q0 70 -14.5 119t-40 79
t-60.5 43.5t-76 13.5q-42 0 -76.5 -13.5t-60 -43.5t-39.5 -79t-14 -119q0 -71 14 -119.5t39.5 -78.5t60 -43.5t76.5 -13.5zM217 750q-4 25 -0.5 49t15.5 42.5t33 30t52 11.5q25 0 45.5 -6.5t38 -14t33 -13.5t31.5 -6q17 0 24.5 9.5t6.5 33.5h71q4 -26 1 -50t-15 -42.5
t-33 -30t-52 -11.5q-26 0 -46.5 6.5t-38 14t-33 14t-31.5 6.5q-17 0 -24.5 -9.5t-6.5 -33.5h-71z" />
    <glyph glyph-name="Odieresis" unicode="&#xd6;" horiz-adv-x="785" 
d="M392 -10q-74 0 -138 23t-111.5 67.5t-74.5 111t-27 153.5t27 154t74.5 112.5t111.5 69t138 23.5q73 0 137.5 -22.5t112 -67.5t75 -111t27.5 -153t-27.5 -154t-75 -113t-112 -69.5t-137.5 -23.5zM392 92q41 0 76 13.5t60.5 43.5t40 78.5t14.5 119.5q0 70 -14.5 119t-40 79
t-60.5 43.5t-76 13.5q-42 0 -76.5 -13.5t-60 -43.5t-39.5 -79t-14 -119q0 -71 14 -119.5t39.5 -78.5t60 -43.5t76.5 -13.5zM510 739q-33 0 -55 20.5t-22 52.5q0 34 22 53.5t55 19.5q32 0 54.5 -19.5t22.5 -53.5q0 -32 -22.5 -52.5t-54.5 -20.5zM275 739q-32 0 -54 20.5
t-22 52.5q0 34 22 53.5t54 19.5q33 0 55 -19.5t22 -53.5q0 -32 -22 -52.5t-55 -20.5z" />
    <glyph glyph-name="multiply" unicode="&#xd7;" horiz-adv-x="581" 
d="M291 256l-173 -173l-73 73l173 173l-170 170l72 73l171 -171l173 173l72 -72l-173 -173l173 -173l-72 -73z" />
    <glyph glyph-name="Oslash" unicode="&#xd8;" horiz-adv-x="785" 
d="M392 -10q-74 0 -138 23l-12 4l-50 -85h-90l71 122q-16 12 -31 26q-47 45 -74 111.5t-27 153.5t27 154t74.5 112.5t111.5 69t138 23.5q73 0 137 -23q5 -1 10 -3l43 74h90l-65 -110q18 -13 34 -28q48 -45 75.5 -111t27.5 -153t-27.5 -154t-75 -113t-112 -69.5t-137.5 -23.5
zM392 92q41 0 76 13.5t60.5 43.5t40 78.5t14.5 119.5q0 70 -15 119q-11 36 -27 62l-243 -415q8 -4 17 -8q35 -13 77 -13zM468 588q-35 14 -76 14q-42 0 -76.5 -13.5t-60 -43.5t-39.5 -79t-14 -119q0 -71 14 -120q9 -33 24 -58l242 413z" />
    <glyph glyph-name="Ugrave" unicode="&#xd9;" horiz-adv-x="691" 
d="M57 695h155v-452q0 -76 39 -112.5t109 -36.5q67 0 108.5 36.5t41.5 112.5v452l124 1v-446q0 -62 -20.5 -110.5t-58 -81.5t-90 -50.5t-117.5 -17.5q-64 0 -117.5 16.5t-92 48.5t-60 80t-21.5 110v450zM312 745l-110 126h162l61 -126h-113z" />
    <glyph glyph-name="Uacute" unicode="&#xda;" horiz-adv-x="691" 
d="M57 695h155v-452q0 -76 39 -112.5t109 -36.5q67 0 108.5 36.5t41.5 112.5v452l124 1v-446q0 -62 -20.5 -110.5t-58 -81.5t-90 -50.5t-117.5 -17.5q-64 0 -117.5 16.5t-92 48.5t-60 80t-21.5 110v450zM365 871h155l-109 -126h-110z" />
    <glyph glyph-name="Ucircumflex" unicode="&#xdb;" horiz-adv-x="691" 
d="M57 695h155v-452q0 -76 39 -112.5t109 -36.5q67 0 108.5 36.5t41.5 112.5v452l124 1v-446q0 -62 -20.5 -110.5t-58 -81.5t-90 -50.5t-117.5 -17.5q-64 0 -117.5 16.5t-92 48.5t-60 80t-21.5 110v450zM358 803l-70 -58h-95l91 126h148l92 -126h-96z" />
    <glyph glyph-name="Udieresis" unicode="&#xdc;" horiz-adv-x="691" 
d="M57 695h155v-452q0 -76 39 -112.5t109 -36.5q67 0 108.5 36.5t41.5 112.5v452l124 1v-446q0 -62 -20.5 -110.5t-58 -81.5t-90 -50.5t-117.5 -17.5q-64 0 -117.5 16.5t-92 48.5t-60 80t-21.5 110v450zM479 740q-33 0 -55 20.5t-22 52.5q0 34 22 53.5t55 19.5
q32 0 54.5 -19.5t22.5 -53.5q0 -32 -22.5 -52.5t-54.5 -20.5zM244 740q-32 0 -54 20.5t-22 52.5q0 34 22 53.5t54 19.5q33 0 55 -19.5t22 -53.5q0 -32 -22 -52.5t-55 -20.5z" />
    <glyph glyph-name="Yacute" unicode="&#xdd;" horiz-adv-x="649" 
d="M247 0v284l-234 411h166l163 -298l166 298h128l-233 -411v-284h-156zM344 870h155l-109 -126h-110z" />
    <glyph glyph-name="Thorn" unicode="&#xde;" horiz-adv-x="634" 
d="M224 472v-251h86q66 0 101 31.5t35 100.5q0 65 -34 92t-101 27h-87zM224 122v-122h-156v695h156v-124h87q138 0 214.5 -50.5t76.5 -162.5q0 -60 -20.5 -104.5t-58.5 -74t-92 -43.5t-121 -14h-86z" />
    <glyph glyph-name="germandbls" unicode="&#xdf;" horiz-adv-x="625" 
d="M601 145q0 -40 -15 -69.5t-41.5 -48.5t-62.5 -28t-79 -9q-52 0 -86 8.5t-48 16.5l11 99q17 -11 42 -20.5t57 -9.5q35 0 53.5 13t18.5 39q0 21 -13 33t-33 22t-42.5 20t-42.5 26t-33 40.5t-13 63.5q0 42 19.5 70t43 51t43 46.5t19.5 56.5t-22.5 52t-63.5 19
q-57 0 -81.5 -39.5t-24.5 -105.5v-491h-146v485q0 55 16 100t47.5 77.5t79.5 50.5t112 18q54 0 96 -12t70 -34t42.5 -51.5t14.5 -65.5q0 -44 -21.5 -73.5t-47.5 -52t-47.5 -40.5t-21.5 -40q0 -19 15 -31t37 -23t48 -23t48 -30t37 -44t15 -66z" />
    <glyph glyph-name="agrave" unicode="&#xe0;" horiz-adv-x="538" 
d="M245 79q36 0 57.5 17.5t33.5 43.5v92h-40q-68 0 -94.5 -21t-26.5 -61q0 -36 19 -53.5t51 -17.5zM356 0q-5 13 -8.5 30.5t-5.5 37.5q-9 -14 -22 -28t-30 -25t-40 -18t-52 -7q-36 0 -67 9t-53 27.5t-34.5 46.5t-12.5 65q0 74 64 119.5t198 45.5h43v28q0 45 -22 67.5
t-82 22.5q-44 0 -76 -14.5t-63 -36.5l-42 101q32 19 80.5 32.5t121.5 13.5q110 0 169.5 -42.5t59.5 -138.5v-255q0 -17 1.5 -42.5t4.5 -38.5h-132zM219 566l-106 149h154l57 -149h-105z" />
    <glyph glyph-name="aacute" unicode="&#xe1;" horiz-adv-x="538" 
d="M245 79q36 0 57.5 17.5t33.5 43.5v92h-40q-68 0 -94.5 -21t-26.5 -61q0 -36 19 -53.5t51 -17.5zM356 0q-5 13 -8.5 30.5t-5.5 37.5q-9 -14 -22 -28t-30 -25t-40 -18t-52 -7q-36 0 -67 9t-53 27.5t-34.5 46.5t-12.5 65q0 74 64 119.5t198 45.5h43v28q0 45 -22 67.5
t-82 22.5q-44 0 -76 -14.5t-63 -36.5l-42 101q32 19 80.5 32.5t121.5 13.5q110 0 169.5 -42.5t59.5 -138.5v-255q0 -17 1.5 -42.5t4.5 -38.5h-132zM269 715h150l-106 -149h-103z" />
    <glyph glyph-name="acircumflex" unicode="&#xe2;" horiz-adv-x="538" 
d="M245 79q36 0 57.5 17.5t33.5 43.5v92h-40q-68 0 -94.5 -21t-26.5 -61q0 -36 19 -53.5t51 -17.5zM356 0q-5 13 -8.5 30.5t-5.5 37.5q-9 -14 -22 -28t-30 -25t-40 -18t-52 -7q-36 0 -67 9t-53 27.5t-34.5 46.5t-12.5 65q0 74 64 119.5t198 45.5h43v28q0 45 -22 67.5
t-82 22.5q-44 0 -76 -14.5t-63 -36.5l-42 101q32 19 80.5 32.5t121.5 13.5q110 0 169.5 -42.5t59.5 -138.5v-255q0 -17 1.5 -42.5t4.5 -38.5h-132zM268 637l-68 -71h-97l101 143h131l101 -143h-100z" />
    <glyph glyph-name="atilde" unicode="&#xe3;" horiz-adv-x="538" 
d="M245 79q36 0 57.5 17.5t33.5 43.5v92h-40q-68 0 -94.5 -21t-26.5 -61q0 -36 19 -53.5t51 -17.5zM356 0q-5 13 -8.5 30.5t-5.5 37.5q-9 -14 -22 -28t-30 -25t-40 -18t-52 -7q-36 0 -67 9t-53 27.5t-34.5 46.5t-12.5 65q0 74 64 119.5t198 45.5h43v28q0 45 -22 67.5
t-82 22.5q-44 0 -76 -14.5t-63 -36.5l-42 101q32 19 80.5 32.5t121.5 13.5q110 0 169.5 -42.5t59.5 -138.5v-255q0 -17 1.5 -42.5t4.5 -38.5h-132zM99 572q-4 26 -0.5 50t15.5 42.5t33 29.5t51 11q24 0 42.5 -6.5t33.5 -14t28.5 -13.5t27.5 -6q17 0 24 9.5t7 33.5h74
q4 -26 0.5 -50t-15.5 -42.5t-32.5 -29.5t-50.5 -11q-25 0 -43.5 6.5t-33.5 14l-28 14t-28 6.5q-17 0 -24 -10t-6 -34h-75z" />
    <glyph glyph-name="adieresis" unicode="&#xe4;" horiz-adv-x="538" 
d="M245 79q36 0 57.5 17.5t33.5 43.5v92h-40q-68 0 -94.5 -21t-26.5 -61q0 -36 19 -53.5t51 -17.5zM356 0q-5 13 -8.5 30.5t-5.5 37.5q-9 -14 -22 -28t-30 -25t-40 -18t-52 -7q-36 0 -67 9t-53 27.5t-34.5 46.5t-12.5 65q0 74 64 119.5t198 45.5h43v28q0 45 -22 67.5
t-82 22.5q-44 0 -76 -14.5t-63 -36.5l-42 101q32 19 80.5 32.5t121.5 13.5q110 0 169.5 -42.5t59.5 -138.5v-255q0 -17 1.5 -42.5t4.5 -38.5h-132zM378 565q-33 0 -54.5 20t-21.5 53q0 34 21.5 53.5t54.5 19.5q32 0 54.5 -19.5t22.5 -53.5q0 -33 -22.5 -53t-54.5 -20z
M156 565q-32 0 -54 20t-22 53q0 34 22 53.5t54 19.5q33 0 55.5 -19.5t22.5 -53.5q0 -33 -22.5 -53t-55.5 -20z" />
    <glyph glyph-name="aring" unicode="&#xe5;" horiz-adv-x="538" 
d="M245 79q36 0 57.5 17.5t33.5 43.5v92h-40q-68 0 -94.5 -21t-26.5 -61q0 -36 19 -53.5t51 -17.5zM356 0q-5 13 -8.5 30.5t-5.5 37.5q-9 -14 -22 -28t-30 -25t-40 -18t-52 -7q-36 0 -67 9t-53 27.5t-34.5 46.5t-12.5 65q0 74 64 119.5t198 45.5h43v28q0 45 -22 67.5
t-82 22.5q-44 0 -76 -14.5t-63 -36.5l-42 101q32 19 80.5 32.5t121.5 13.5q110 0 169.5 -42.5t59.5 -138.5v-255q0 -17 1.5 -42.5t4.5 -38.5h-132zM268 556q-49 0 -81.5 30t-32.5 77t32.5 76.5t81.5 29.5t81.5 -29.5t32.5 -76.5t-32.5 -77t-81.5 -30zM268 612q21 0 33.5 14
t12.5 37q0 22 -12.5 36t-33.5 14t-33.5 -14t-12.5 -36q0 -23 12.5 -37t33.5 -14z" />
    <glyph glyph-name="ae" unicode="&#xe6;" horiz-adv-x="858" 
d="M593 431q-45 0 -73.5 -33.5t-35.5 -98.5h201q3 68 -22.5 100t-69.5 32zM807 41q-24 -17 -71.5 -34t-113.5 -17q-84 0 -139.5 27.5t-85.5 78.5q-8 -18 -22 -37t-36.5 -34t-54.5 -25t-76 -10q-79 0 -128 36t-49 109q0 80 57.5 121.5t183.5 41.5h67v20q0 27 -4 46.5t-16 32
t-33.5 18.5t-55.5 6q-48 0 -82 -16t-65 -38l-42 101q32 19 82.5 34t127.5 15q66 0 111 -15.5t71 -49.5q60 65 165 65q55 0 100.5 -18t75 -54t41.5 -91t0 -128h-331q6 -69 43 -103t113 -34q38 0 74 12t65 29zM248 79q27 0 45 10.5t28 27t14 35.5t4 37v40h-59q-63 0 -84 -21
t-21 -59q0 -31 17.5 -50.5t55.5 -19.5z" />
    <glyph glyph-name="ccedilla" unicode="&#xe7;" horiz-adv-x="497" 
d="M261 -189q-33 0 -54.5 5.5t-29.5 10.5l11 54q7 -5 20 -9.5t30 -4.5q18 0 29.5 5.5t11.5 21.5q0 17 -13.5 23t-36.5 6h-16l26 73q-45 9 -82 29.5t-63.5 52t-41.5 74.5t-15 97q0 62 21 112t58 84.5t88.5 53t111.5 18.5q52 0 85 -7.5t53 -17.5l-32 -108q-24 17 -46.5 27
t-60.5 10q-26 0 -49 -10.5t-40.5 -31t-28 -51.5t-10.5 -73q0 -85 37.5 -127t103.5 -42q29 0 56.5 10.5t47.5 26.5l30 -84q-19 -17 -58 -32.5t-98 -16.5l-10 -28q48 -4 66.5 -24t18.5 -49q0 -42 -33.5 -60t-86.5 -18z" />
    <glyph glyph-name="egrave" unicode="&#xe8;" horiz-adv-x="545" 
d="M286 431q-41 0 -67.5 -31.5t-34.5 -92.5h188q2 64 -21.5 94t-64.5 30zM499 41q-23 -17 -70 -34t-115 -17q-69 0 -121 18.5t-86.5 53t-52 83.5t-17.5 109q0 61 18 109.5t51 82.5t78.5 52.5t101.5 18.5t101 -18t74.5 -54t41 -90t-0.5 -125h-320q7 -72 44.5 -106.5
t103.5 -34.5q42 0 77.5 12t63.5 29zM246 566l-106 149h154l57 -149h-105z" />
    <glyph glyph-name="eacute" unicode="&#xe9;" horiz-adv-x="545" 
d="M286 431q-41 0 -67.5 -31.5t-34.5 -92.5h188q2 64 -21.5 94t-64.5 30zM499 41q-23 -17 -70 -34t-115 -17q-69 0 -121 18.5t-86.5 53t-52 83.5t-17.5 109q0 61 18 109.5t51 82.5t78.5 52.5t101.5 18.5t101 -18t74.5 -54t41 -90t-0.5 -125h-320q7 -72 44.5 -106.5
t103.5 -34.5q42 0 77.5 12t63.5 29zM286 715h150l-106 -149h-103z" />
    <glyph glyph-name="ecircumflex" unicode="&#xea;" horiz-adv-x="545" 
d="M286 431q-41 0 -67.5 -31.5t-34.5 -92.5h188q2 64 -21.5 94t-64.5 30zM499 41q-23 -17 -70 -34t-115 -17q-69 0 -121 18.5t-86.5 53t-52 83.5t-17.5 109q0 61 18 109.5t51 82.5t78.5 52.5t101.5 18.5t101 -18t74.5 -54t41 -90t-0.5 -125h-320q7 -72 44.5 -106.5
t103.5 -34.5q42 0 77.5 12t63.5 29zM285 637l-68 -71h-97l101 143h131l101 -143h-100z" />
    <glyph glyph-name="edieresis" unicode="&#xeb;" horiz-adv-x="545" 
d="M286 431q-41 0 -67.5 -31.5t-34.5 -92.5h188q2 64 -21.5 94t-64.5 30zM499 41q-23 -17 -70 -34t-115 -17q-69 0 -121 18.5t-86.5 53t-52 83.5t-17.5 109q0 61 18 109.5t51 82.5t78.5 52.5t101.5 18.5t101 -18t74.5 -54t41 -90t-0.5 -125h-320q7 -72 44.5 -106.5
t103.5 -34.5q42 0 77.5 12t63.5 29zM395 565q-33 0 -54.5 20t-21.5 53q0 34 21.5 53.5t54.5 19.5q32 0 54.5 -19.5t22.5 -53.5q0 -33 -22.5 -53t-54.5 -20zM173 565q-32 0 -54 20t-22 53q0 34 22 53.5t54 19.5q33 0 55.5 -19.5t22.5 -53.5q0 -33 -22.5 -53t-55.5 -20z" />
    <glyph glyph-name="igrave" unicode="&#xec;" horiz-adv-x="268" 
d="M207 507v-507h-146v507h146zM88 566l-106 149h154l57 -149h-105z" />
    <glyph glyph-name="iacute" unicode="&#xed;" horiz-adv-x="268" 
d="M207 507v-507h-146v507h146zM137 715h150l-106 -149h-103z" />
    <glyph glyph-name="icircumflex" unicode="&#xee;" horiz-adv-x="268" 
d="M136 634l-50 -68h-88l81 143h117l81 -143h-91zM207 507v-507h-146v507h146z" />
    <glyph glyph-name="idieresis" unicode="&#xef;" horiz-adv-x="268" 
d="M235 565q-33 0 -54.5 20t-21.5 53q0 34 21.5 53.5t54.5 19.5q32 0 54.5 -19.5t22.5 -53.5q0 -33 -22.5 -53t-54.5 -20zM37 565q-32 0 -54 20t-22 53q0 34 22 53.5t54 19.5q33 0 55 -19.5t22 -53.5q0 -33 -22 -53t-55 -20zM207 507v-507h-146v507h146z" />
    <glyph glyph-name="eth" unicode="&#xf0;" horiz-adv-x="607" 
d="M299 -10q-54 0 -102.5 17t-85 51t-57.5 85.5t-21 121.5q0 65 19.5 112.5t51.5 78.5t73 46t85 15q38 0 68 -9t51 -30q-11 30 -32.5 58t-50.5 53l-166 -56l-24 64l124 43q-32 21 -66 37t-66 27v21h183q41 -16 80 -41l104 36l24 -65l-63 -21q66 -61 104.5 -148t38.5 -197
q0 -78 -22.5 -134.5t-60 -93t-86.5 -54t-103 -17.5zM180 260q0 -91 34.5 -131t87.5 -40q56 0 89 45t33 137q0 28 -3 59t-9 50q-19 23 -45.5 37t-66.5 14q-52 0 -86 -41t-34 -130z" />
    <glyph glyph-name="ntilde" unicode="&#xf1;" horiz-adv-x="602" 
d="M323 413q-44 0 -71.5 -19t-44.5 -48v-346h-146v507h134l8 -73h2q23 35 65.5 59t105.5 24q78 0 125 -40.5t47 -125.5v-351h-146v339q0 42 -21.5 58t-57.5 16zM135 572q-4 26 -0.5 50t15.5 42.5t33 29.5t51 11q24 0 42.5 -6.5t33.5 -14t28.5 -13.5t27.5 -6q17 0 24 9.5
t7 33.5h74q4 -26 0.5 -50t-15.5 -42.5t-32.5 -29.5t-50.5 -11q-25 0 -43.5 6.5t-33.5 14l-28 14t-28 6.5q-17 0 -24 -10t-6 -34h-75z" />
    <glyph glyph-name="ograve" unicode="&#xf2;" horiz-adv-x="612" 
d="M305 -10q-56 0 -105 17.5t-85 51t-57 82.5t-21 113t21 113t57 82.5t85 50.5t105 17t105.5 -17t86 -50.5t57.5 -82.5t21 -113t-21 -113t-57.5 -82.5t-85.5 -51t-106 -17.5zM305 85q52 0 86.5 38.5t34.5 130.5q0 91 -34.5 129.5t-86.5 38.5q-26 0 -47.5 -9t-37.5 -29
t-25 -52t-9 -78t9 -78t25 -52.5t37.5 -29.5t47.5 -9zM257 566l-106 149h154l57 -149h-105z" />
    <glyph glyph-name="oacute" unicode="&#xf3;" horiz-adv-x="612" 
d="M305 -10q-56 0 -105 17.5t-85 51t-57 82.5t-21 113t21 113t57 82.5t85 50.5t105 17t105.5 -17t86 -50.5t57.5 -82.5t21 -113t-21 -113t-57.5 -82.5t-85.5 -51t-106 -17.5zM305 85q52 0 86.5 38.5t34.5 130.5q0 91 -34.5 129.5t-86.5 38.5q-26 0 -47.5 -9t-37.5 -29
t-25 -52t-9 -78t9 -78t25 -52.5t37.5 -29.5t47.5 -9zM307 715h150l-106 -149h-103z" />
    <glyph glyph-name="ocircumflex" unicode="&#xf4;" horiz-adv-x="612" 
d="M305 -10q-56 0 -105 17.5t-85 51t-57 82.5t-21 113t21 113t57 82.5t85 50.5t105 17t105.5 -17t86 -50.5t57.5 -82.5t21 -113t-21 -113t-57.5 -82.5t-85.5 -51t-106 -17.5zM305 85q52 0 86.5 38.5t34.5 130.5q0 91 -34.5 129.5t-86.5 38.5q-26 0 -47.5 -9t-37.5 -29
t-25 -52t-9 -78t9 -78t25 -52.5t37.5 -29.5t47.5 -9zM306 637l-68 -71h-97l101 143h131l101 -143h-100z" />
    <glyph glyph-name="otilde" unicode="&#xf5;" horiz-adv-x="612" 
d="M305 -10q-56 0 -105 17.5t-85 51t-57 82.5t-21 113t21 113t57 82.5t85 50.5t105 17t105.5 -17t86 -50.5t57.5 -82.5t21 -113t-21 -113t-57.5 -82.5t-85.5 -51t-106 -17.5zM305 85q52 0 86.5 38.5t34.5 130.5q0 91 -34.5 129.5t-86.5 38.5q-26 0 -47.5 -9t-37.5 -29
t-25 -52t-9 -78t9 -78t25 -52.5t37.5 -29.5t47.5 -9zM136 572q-4 26 -0.5 50t15.5 42.5t33 29.5t51 11q24 0 42.5 -6.5t33.5 -14t28.5 -13.5t27.5 -6q17 0 24 9.5t7 33.5h74q4 -26 0.5 -50t-15.5 -42.5t-32.5 -29.5t-50.5 -11q-25 0 -43.5 6.5t-33.5 14l-28 14t-28 6.5
q-17 0 -24 -10t-6 -34h-75z" />
    <glyph glyph-name="odieresis" unicode="&#xf6;" horiz-adv-x="612" 
d="M305 -10q-56 0 -105 17.5t-85 51t-57 82.5t-21 113t21 113t57 82.5t85 50.5t105 17t105.5 -17t86 -50.5t57.5 -82.5t21 -113t-21 -113t-57.5 -82.5t-85.5 -51t-106 -17.5zM305 85q52 0 86.5 38.5t34.5 130.5q0 91 -34.5 129.5t-86.5 38.5q-26 0 -47.5 -9t-37.5 -29
t-25 -52t-9 -78t9 -78t25 -52.5t37.5 -29.5t47.5 -9zM416 565q-33 0 -54.5 20t-21.5 53q0 34 21.5 53.5t54.5 19.5q32 0 54.5 -19.5t22.5 -53.5q0 -33 -22.5 -53t-54.5 -20zM194 565q-32 0 -54 20t-22 53q0 34 22 53.5t54 19.5q33 0 55.5 -19.5t22.5 -53.5q0 -33 -22.5 -53
t-55.5 -20z" />
    <glyph glyph-name="divide" unicode="&#xf7;" horiz-adv-x="583" 
d="M289 43q-34 0 -57 23t-23 57t23 57t57 23t57 -23t23 -57t-23 -57t-57 -23zM289 441q-34 0 -57 23t-23 57t23 57t57 23t57 -23t23 -57t-23 -57t-57 -23zM45 277v100h493v-100h-493z" />
    <glyph glyph-name="oslash" unicode="&#xf8;" horiz-adv-x="612" 
d="M178 254q0 -78 28 -123l147 291q-21 9 -48 9q-55 0 -91 -43t-36 -134zM305 76q56 0 93 43.5t37 134.5q0 76 -28 121l-147 -291q22 -8 45 -8zM305 -10q-47 0 -87 12l-40 -80h-77l54 107q-54 32 -86 88.5t-32 136.5q0 64 21 113t57 82.5t85 50.5t105 17q48 0 90 -12l39 76
h77l-52 -104q53 -32 84.5 -88t31.5 -135q0 -64 -21 -113t-57.5 -82.5t-85.5 -51t-106 -17.5z" />
    <glyph glyph-name="ugrave" unicode="&#xf9;" horiz-adv-x="594" 
d="M387 73q-20 -35 -60 -59t-103 -24q-74 0 -121 43t-47 130v344h147v-340q0 -43 21.5 -57.5t51.5 -14.5q40 0 67 19t44 51v342h146v-507h-131l-12 73h-3v0zM254 566l-106 149h154l57 -149h-105z" />
    <glyph glyph-name="uacute" unicode="&#xfa;" horiz-adv-x="594" 
d="M387 73q-20 -35 -60 -59t-103 -24q-74 0 -121 43t-47 130v344h147v-340q0 -43 21.5 -57.5t51.5 -14.5q40 0 67 19t44 51v342h146v-507h-131l-12 73h-3v0zM304 715h150l-106 -149h-103z" />
    <glyph glyph-name="ucircumflex" unicode="&#xfb;" horiz-adv-x="594" 
d="M387 73q-20 -35 -60 -59t-103 -24q-74 0 -121 43t-47 130v344h147v-340q0 -43 21.5 -57.5t51.5 -14.5q40 0 67 19t44 51v342h146v-507h-131l-12 73h-3v0zM303 637l-68 -71h-97l101 143h131l101 -143h-100z" />
    <glyph glyph-name="udieresis" unicode="&#xfc;" horiz-adv-x="594" 
d="M387 73q-20 -35 -60 -59t-103 -24q-74 0 -121 43t-47 130v344h147v-340q0 -43 21.5 -57.5t51.5 -14.5q40 0 67 19t44 51v342h146v-507h-131l-12 73h-3v0zM413 565q-33 0 -54.5 20t-21.5 53q0 34 21.5 53.5t54.5 19.5q32 0 54.5 -19.5t22.5 -53.5q0 -33 -22.5 -53
t-54.5 -20zM191 565q-32 0 -54 20t-22 53q0 34 22 53.5t54 19.5q33 0 55.5 -19.5t22.5 -53.5q0 -33 -22.5 -53t-55.5 -20z" />
    <glyph glyph-name="yacute" unicode="&#xfd;" horiz-adv-x="568" 
d="M144 -188q-42 0 -65.5 5t-38.5 13l17 103q7 -4 27 -11.5t52 -7.5q52 0 80 55l-202 538h149l135 -380l135 380h121l-184 -489q-20 -54 -42 -93t-49 -64t-60 -37t-75 -12zM295 715h150l-106 -149h-103z" />
    <glyph glyph-name="thorn" unicode="&#xfe;" horiz-adv-x="628" 
d="M326 85q51 0 83.5 42t32.5 127t-32.5 126.5t-83.5 41.5t-85.5 -41.5t-34.5 -126.5t34.5 -127t85.5 -42zM368 -10q-56 0 -95.5 23.5t-65.5 64.5v-250h-146v879h146v-273q26 39 65.5 61t94.5 22q45 0 86 -16t71.5 -48.5t48.5 -82t18 -116.5t-18 -116.5t-49 -82.5t-71 -49
t-85 -16z" />
    <glyph glyph-name="ydieresis" unicode="&#xff;" horiz-adv-x="568" 
d="M144 -188q-42 0 -65.5 5t-38.5 13l17 103q7 -4 27 -11.5t52 -7.5q52 0 80 55l-202 538h149l135 -380l135 380h121l-184 -489q-20 -54 -42 -93t-49 -64t-60 -37t-75 -12zM401 565q-33 0 -54.5 20t-21.5 53q0 34 21.5 53.5t54.5 19.5q32 0 54.5 -19.5t22.5 -53.5
q0 -33 -22.5 -53t-54.5 -20zM179 565q-32 0 -54 20t-22 53q0 34 22 53.5t54 19.5q33 0 55.5 -19.5t22.5 -53.5q0 -33 -22.5 -53t-55.5 -20z" />
    <glyph glyph-name="Amacron" unicode="&#x100;" horiz-adv-x="660" 
d="M313 563l-98 -304h194zM441 161h-257l-52 -161h-119l229 695h177l228 -695h-155zM176 854h301v-88h-301v88z" />
    <glyph glyph-name="amacron" unicode="&#x101;" horiz-adv-x="538" 
d="M245 79q36 0 57.5 17.5t33.5 43.5v92h-40q-68 0 -94.5 -21t-26.5 -61q0 -36 19 -53.5t51 -17.5zM356 0q-5 13 -8.5 30.5t-5.5 37.5q-9 -14 -22 -28t-30 -25t-40 -18t-52 -7q-36 0 -67 9t-53 27.5t-34.5 46.5t-12.5 65q0 74 64 119.5t198 45.5h43v28q0 45 -22 67.5
t-82 22.5q-44 0 -76 -14.5t-63 -36.5l-42 101q32 19 80.5 32.5t121.5 13.5q110 0 169.5 -42.5t59.5 -138.5v-255q0 -17 1.5 -42.5t4.5 -38.5h-132zM120 678h296v-89h-296v89z" />
    <glyph glyph-name="Abreve" unicode="&#x102;" horiz-adv-x="660" 
d="M313 563l-98 -304h194zM441 161h-257l-52 -161h-119l229 695h177l228 -695h-155zM327 738q-40 0 -69 11.5t-48.5 31t-29.5 45.5t-10 55h93q1 -30 18.5 -43t45.5 -13t45 13t18 43h93q0 -29 -10 -55t-29 -45.5t-48.5 -31t-68.5 -11.5z" />
    <glyph glyph-name="abreve" unicode="&#x103;" horiz-adv-x="538" 
d="M245 79q36 0 57.5 17.5t33.5 43.5v92h-40q-68 0 -94.5 -21t-26.5 -61q0 -36 19 -53.5t51 -17.5zM356 0q-5 13 -8.5 30.5t-5.5 37.5q-9 -14 -22 -28t-30 -25t-40 -18t-52 -7q-36 0 -67 9t-53 27.5t-34.5 46.5t-12.5 65q0 74 64 119.5t198 45.5h43v28q0 45 -22 67.5
t-82 22.5q-44 0 -76 -14.5t-63 -36.5l-42 101q32 19 80.5 32.5t121.5 13.5q110 0 169.5 -42.5t59.5 -138.5v-255q0 -17 1.5 -42.5t4.5 -38.5h-132zM279 555q-39 0 -68 12t-47.5 32t-28 46.5t-9.5 56.5h93q1 -32 17 -46t43 -14t42.5 14t16.5 46h93q0 -30 -9.5 -56.5
t-28 -46.5t-47 -32t-67.5 -12z" />
    <glyph glyph-name="Aogonek" unicode="&#x104;" horiz-adv-x="660" 
d="M441 161h-257l-52 -161h-119l229 695h177l228 -695q-26 -10 -43.5 -28t-17.5 -44q0 -34 39 -34q14 0 25 3t16 5l10 -74q-8 -5 -27.5 -9t-51.5 -4q-61 0 -95.5 23t-34.5 65q0 20 7.5 36t19.5 28t25.5 20t25.5 13h-53zM313 563l-98 -304h194z" />
    <glyph glyph-name="aogonek" unicode="&#x105;" horiz-adv-x="538" 
d="M434 -185q-61 0 -95.5 23t-34.5 65q0 31 17.5 51.5t37.5 33.5q-5 16 -10 36.5t-8 43.5q-9 -15 -21.5 -29t-30 -25t-40 -17.5t-51.5 -6.5q-36 0 -67 9t-53 27.5t-34.5 46.5t-12.5 65q0 74 64 119.5t198 45.5h43v28q0 45 -22 67.5t-82 22.5q-44 0 -77.5 -16t-64.5 -38
l-42 101q32 19 82 34t123 15q110 0 169.5 -42.5t59.5 -138.5v-255q0 -17 1.5 -42.5t4.5 -38.5q-26 -11 -45.5 -28.5t-19.5 -43.5q0 -34 39 -34q14 0 25 3t16 5l10 -74q-8 -5 -27.5 -9t-51.5 -4zM245 79q36 0 57.5 17.5t33.5 43.5v92h-40q-68 0 -94.5 -21t-26.5 -61
q0 -36 19 -53.5t51 -17.5z" />
    <glyph glyph-name="Cacute" unicode="&#x106;" horiz-adv-x="633" 
d="M397 -10q-79 0 -144.5 24.5t-112.5 70t-73 112t-26 150.5t25.5 150.5t71.5 112t111 70t145 24.5q66 0 115 -12t75 -30l-17 -118q-30 21 -70.5 37t-90.5 16q-100 0 -152 -64t-52 -186q0 -250 209 -250q46 0 82 11.5t67 33.5l33 -102q-27 -19 -76 -34.5t-120 -15.5z
M377 870h155l-109 -126h-110z" />
    <glyph glyph-name="cacute" unicode="&#x107;" horiz-adv-x="497" 
d="M304 -10q-57 0 -106 17t-84.5 50t-56 81t-20.5 111q0 62 21 112t58 84.5t88.5 53t111.5 18.5q52 0 85 -7.5t53 -17.5l-32 -108q-24 17 -46.5 27t-60.5 10q-26 0 -49 -10.5t-40.5 -31t-28 -51.5t-10.5 -73q0 -85 37.5 -127t103.5 -42q29 0 56.5 10.5t47.5 26.5l30 -84
q-19 -17 -58.5 -33t-99.5 -16zM284 715h150l-106 -149h-103z" />
    <glyph glyph-name="Ccircumflex" unicode="&#x108;" horiz-adv-x="633" 
d="M397 -10q-79 0 -144.5 24.5t-112.5 70t-73 112t-26 150.5t25.5 150.5t71.5 112t111 70t145 24.5q66 0 115 -12t75 -30l-17 -118q-30 21 -70.5 37t-90.5 16q-100 0 -152 -64t-52 -186q0 -250 209 -250q46 0 82 11.5t67 33.5l33 -102q-27 -19 -76 -34.5t-120 -15.5z
M371 800l-70 -58h-95l91 126h148l92 -126h-96z" />
    <glyph glyph-name="ccircumflex" unicode="&#x109;" horiz-adv-x="497" 
d="M304 -10q-57 0 -106 17t-84.5 50t-56 81t-20.5 111q0 62 21 112t58 84.5t88.5 53t111.5 18.5q52 0 85 -7.5t53 -17.5l-32 -108q-24 17 -46.5 27t-60.5 10q-26 0 -49 -10.5t-40.5 -31t-28 -51.5t-10.5 -73q0 -85 37.5 -127t103.5 -42q29 0 56.5 10.5t47.5 26.5l30 -84
q-19 -17 -58.5 -33t-99.5 -16zM280 637l-68 -71h-97l101 143h131l101 -143h-100z" />
    <glyph glyph-name="Cdotaccent" unicode="&#x10a;" horiz-adv-x="633" 
d="M397 -10q-79 0 -144.5 24.5t-112.5 70t-73 112t-26 150.5t25.5 150.5t71.5 112t111 70t145 24.5q66 0 115 -12t75 -30l-17 -118q-30 21 -70.5 37t-90.5 16q-100 0 -152 -64t-52 -186q0 -250 209 -250q46 0 82 11.5t67 33.5l33 -102q-27 -19 -76 -34.5t-120 -15.5z
M373 739q-36 0 -59.5 21t-23.5 56t23.5 56t59.5 21t60.5 -21t24.5 -56t-24.5 -56t-60.5 -21z" />
    <glyph glyph-name="cdotaccent" unicode="&#x10b;" horiz-adv-x="497" 
d="M304 -10q-57 0 -106 17t-84.5 50t-56 81t-20.5 111q0 62 21 112t58 84.5t88.5 53t111.5 18.5q52 0 85 -7.5t53 -17.5l-32 -108q-24 17 -46.5 27t-60.5 10q-26 0 -49 -10.5t-40.5 -31t-28 -51.5t-10.5 -73q0 -85 37.5 -127t103.5 -42q29 0 56.5 10.5t47.5 26.5l30 -84
q-19 -17 -58.5 -33t-99.5 -16zM279 564q-35 0 -59 20.5t-24 55.5q0 36 24 57t59 21q36 0 60.5 -21t24.5 -57q0 -35 -24.5 -55.5t-60.5 -20.5z" />
    <glyph glyph-name="Ccaron" unicode="&#x10c;" horiz-adv-x="633" 
d="M397 -10q-79 0 -144.5 24.5t-112.5 70t-73 112t-26 150.5t25.5 150.5t71.5 112t111 70t145 24.5q66 0 115 -12t75 -30l-17 -118q-30 21 -70.5 37t-90.5 16q-100 0 -152 -64t-52 -186q0 -250 209 -250q46 0 82 11.5t67 33.5l33 -102q-27 -19 -76 -34.5t-120 -15.5z
M292 746l-92 129h97l75 -59l75 59h97l-93 -129h-159z" />
    <glyph glyph-name="ccaron" unicode="&#x10d;" horiz-adv-x="497" 
d="M304 -10q-57 0 -106 17t-84.5 50t-56 81t-20.5 111q0 62 21 112t58 84.5t88.5 53t111.5 18.5q52 0 85 -7.5t53 -17.5l-32 -108q-24 17 -46.5 27t-60.5 10q-26 0 -49 -10.5t-40.5 -31t-28 -51.5t-10.5 -73q0 -85 37.5 -127t103.5 -42q29 0 56.5 10.5t47.5 26.5l30 -84
q-19 -17 -58.5 -33t-99.5 -16zM222 566l-101 143h100l68 -70l68 70h97l-101 -143h-131z" />
    <glyph glyph-name="Dcaron" unicode="&#x10e;" horiz-adv-x="725" 
d="M223 596v-497h94q47 0 85 15.5t65 47.5t42 82t15 118q0 69 -14.5 114t-40.5 72t-62.5 37.5t-79.5 10.5h-104zM67 695h240q81 0 150 -16t120 -54t79.5 -101t28.5 -156t-29 -162t-80.5 -115t-122.5 -68.5t-156 -22.5h-230v695zM265 746l-92 129h97l75 -59l75 59h97
l-93 -129h-159z" />
    <glyph glyph-name="dcaron" unicode="&#x10f;" horiz-adv-x="628" 
d="M305 85q50 0 84.5 41.5t34.5 127.5q0 85 -34 126.5t-85 41.5q-52 0 -85 -41.5t-33 -126.5t33 -127t85 -42zM430 91q-23 -45 -64 -73t-104 -28q-45 0 -86 16t-71.5 49t-48.5 82.5t-18 116.5t18 116.5t48.5 82t71.5 48.5t87 16q54 0 94 -21.5t66 -60.5v290h146v-725h-128z
M607 564l18 161h114l-50 -161h-82z" />
    <glyph glyph-name="Dcroat" unicode="&#x110;" horiz-adv-x="747" 
d="M244 309v-210h82q50 0 90.5 15.5t69.5 47.5t44.5 82t15.5 118q0 69 -15.5 114t-43 72t-66.5 37.5t-85 10.5h-92v-198h154v-89h-154zM88 309h-78v89h78v297h240q81 0 150.5 -16t120 -54t79 -101t28.5 -156t-28.5 -162t-80 -115t-123 -68.5t-156.5 -22.5h-230v309z" />
    <glyph glyph-name="dcroat" unicode="&#x111;" horiz-adv-x="630" 
d="M429 91q-23 -45 -64 -73t-104 -28q-45 0 -86 16t-71.5 49t-48.5 82.5t-18 116.5t18 116.5t48.5 82t71.5 48.5t87 16q54 0 94 -21.5t66 -60.5v122h-146v77h146v91h146v-91h58v-77h-58v-557h-128zM304 85q50 0 84.5 41.5t34.5 127.5q0 85 -34 126.5t-85 41.5
q-52 0 -85 -41.5t-33 -126.5t33 -127t85 -42z" />
    <glyph glyph-name="Emacron" unicode="&#x112;" horiz-adv-x="570" 
d="M67 695h447v-99h-291v-187h240v-99h-240v-211h296v-99h-452v695zM151 854h301v-88h-301v88z" />
    <glyph glyph-name="emacron" unicode="&#x113;" horiz-adv-x="545" 
d="M286 431q-41 0 -67.5 -31.5t-34.5 -92.5h188q2 64 -21.5 94t-64.5 30zM499 41q-23 -17 -70 -34t-115 -17q-69 0 -121 18.5t-86.5 53t-52 83.5t-17.5 109q0 61 18 109.5t51 82.5t78.5 52.5t101.5 18.5t101 -18t74.5 -54t41 -90t-0.5 -125h-320q7 -72 44.5 -106.5
t103.5 -34.5q42 0 77.5 12t63.5 29zM137 678h296v-89h-296v89z" />
    <glyph glyph-name="Ebreve" unicode="&#x114;" horiz-adv-x="570" 
d="M67 695h447v-99h-291v-187h240v-99h-240v-211h296v-99h-452v695zM297 738q-40 0 -69 11.5t-48.5 31t-29.5 45.5t-10 55h93q1 -30 18.5 -43t45.5 -13t45 13t18 43h93q0 -29 -10 -55t-29 -45.5t-48.5 -31t-68.5 -11.5z" />
    <glyph glyph-name="ebreve" unicode="&#x115;" horiz-adv-x="545" 
d="M286 431q-41 0 -67.5 -31.5t-34.5 -92.5h188q2 64 -21.5 94t-64.5 30zM499 41q-23 -17 -70 -34t-115 -17q-69 0 -121 18.5t-86.5 53t-52 83.5t-17.5 109q0 61 18 109.5t51 82.5t78.5 52.5t101.5 18.5t101 -18t74.5 -54t41 -90t-0.5 -125h-320q7 -72 44.5 -106.5
t103.5 -34.5q42 0 77.5 12t63.5 29zM285 555q-39 0 -68 12t-47.5 32t-28 46.5t-9.5 56.5h93q1 -32 17 -46t43 -14t42.5 14t16.5 46h93q0 -30 -9.5 -56.5t-28 -46.5t-47 -32t-67.5 -12z" />
    <glyph glyph-name="Edotaccent" unicode="&#x116;" horiz-adv-x="570" 
d="M67 695h447v-99h-291v-187h240v-99h-240v-211h296v-99h-452v695zM298 739q-36 0 -59.5 21t-23.5 56t23.5 56t59.5 21t60.5 -21t24.5 -56t-24.5 -56t-60.5 -21z" />
    <glyph glyph-name="edotaccent" unicode="&#x117;" horiz-adv-x="545" 
d="M286 431q-41 0 -67.5 -31.5t-34.5 -92.5h188q2 64 -21.5 94t-64.5 30zM499 41q-23 -17 -70 -34t-115 -17q-69 0 -121 18.5t-86.5 53t-52 83.5t-17.5 109q0 61 18 109.5t51 82.5t78.5 52.5t101.5 18.5t101 -18t74.5 -54t41 -90t-0.5 -125h-320q7 -72 44.5 -106.5
t103.5 -34.5q42 0 77.5 12t63.5 29zM284 565q-35 0 -59 20.5t-24 55.5q0 36 24 57t59 21q36 0 60.5 -21t24.5 -57q0 -35 -24.5 -55.5t-60.5 -20.5z" />
    <glyph glyph-name="Eogonek" unicode="&#x118;" horiz-adv-x="570" 
d="M67 695h447v-99h-291v-187h240v-99h-240v-211h296v-99h-452v695zM448 -185q-61 0 -95.5 23t-34.5 65q0 20 7.5 36t19.5 28t25.5 20t25.5 13h97q-20 -11 -38 -28.5t-18 -43.5q0 -34 39 -34q14 0 25 3t16 5l10 -74q-8 -5 -27.5 -9t-51.5 -4z" />
    <glyph glyph-name="eogonek" unicode="&#x119;" horiz-adv-x="545" 
d="M244 -97q0 32 20 53.5t43 33.5h-1q-68 0 -118.5 18.5t-84 53t-50 83.5t-16.5 109q0 61 18 109.5t51 82.5t78.5 52.5t101.5 18.5t101 -18t74.5 -54t41 -90t-0.5 -125h-319q5 -71 39 -106t102 -35q50 0 85 12.5t61 28.5l29 -85q-17 -11 -39 -22.5t-46 -25.5
q-16 -9 -33.5 -26.5t-17.5 -42.5q0 -34 39 -34q14 0 25 3t16 5l10 -74q-8 -5 -27.5 -9t-51.5 -4q-61 0 -95.5 23t-34.5 65zM286 431q-43 0 -70 -31t-33 -93h189q3 63 -20.5 93.5t-65.5 30.5z" />
    <glyph glyph-name="Ecaron" unicode="&#x11a;" horiz-adv-x="570" 
d="M67 695h447v-99h-291v-187h240v-99h-240v-211h296v-99h-452v695zM220 746l-92 129h97l75 -59l75 59h97l-93 -129h-159z" />
    <glyph glyph-name="ecaron" unicode="&#x11b;" horiz-adv-x="545" 
d="M286 431q-41 0 -67.5 -31.5t-34.5 -92.5h188q2 64 -21.5 94t-64.5 30zM499 41q-23 -17 -70 -34t-115 -17q-69 0 -121 18.5t-86.5 53t-52 83.5t-17.5 109q0 61 18 109.5t51 82.5t78.5 52.5t101.5 18.5t101 -18t74.5 -54t41 -90t-0.5 -125h-320q7 -72 44.5 -106.5
t103.5 -34.5q42 0 77.5 12t63.5 29zM227 566l-101 143h100l68 -70l68 70h97l-101 -143h-131z" />
    <glyph glyph-name="Gcircumflex" unicode="&#x11c;" horiz-adv-x="748" 
d="M701 272q0 -61 -19 -113t-57.5 -89.5t-96.5 -58.5t-137 -21q-80 0 -144.5 25t-110.5 71t-70.5 112t-24.5 149t26 149t74 112.5t115.5 71t151.5 24.5q46 0 83.5 -4.5t67 -12.5t52.5 -19t42 -24l-18 -110q-44 28 -92.5 45.5t-116.5 17.5q-109 0 -166.5 -63.5t-57.5 -186.5
q0 -125 48.5 -190t144.5 -65q42 0 72 12t48.5 33.5t27.5 51t9 63.5v28h-185v100h334v-108v0zM385 802l-70 -58h-95l91 126h148l92 -126h-96z" />
    <glyph glyph-name="gcircumflex" unicode="&#x11d;" horiz-adv-x="624" 
d="M303 118q49 0 82 37.5t33 113.5q0 78 -33 115.5t-83 37.5t-83.5 -37.5t-33.5 -115.5q0 -76 33.5 -113.5t84.5 -37.5zM269 -192q-51 0 -88 7t-61 15q-29 10 -48 23l28 99q7 -4 20 -11.5t33 -14.5t46 -12t59 -5q88 0 124.5 35t36.5 114v58q-23 -42 -63 -67t-97 -25
q-45 0 -85 15.5t-70.5 46t-48.5 76.5t-18 107q0 62 18 108.5t48.5 77.5t71.5 46.5t86 15.5q60 0 100.5 -25.5t63.5 -70.5l1 6q0 9 1 20l2 22t2.5 21t3.5 17h132q-2 -13 -3.5 -38.5t-1.5 -41.5v-366q0 -57 -16 -103.5t-51 -79.5t-90.5 -51.5t-135.5 -18.5zM304 637l-68 -71
h-97l101 143h131l101 -143h-100z" />
    <glyph glyph-name="Gbreve" unicode="&#x11e;" horiz-adv-x="748" 
d="M701 272q0 -61 -19 -113t-57.5 -89.5t-96.5 -58.5t-137 -21q-80 0 -144.5 25t-110.5 71t-70.5 112t-24.5 149t26 149t74 112.5t115.5 71t151.5 24.5q46 0 83.5 -4.5t67 -12.5t52.5 -19t42 -24l-18 -110q-44 28 -92.5 45.5t-116.5 17.5q-109 0 -166.5 -63.5t-57.5 -186.5
q0 -125 48.5 -190t144.5 -65q42 0 72 12t48.5 33.5t27.5 51t9 63.5v28h-185v100h334v-108v0zM389 738q-40 0 -69 11.5t-48.5 31t-29.5 45.5t-10 55h93q1 -30 18.5 -43t45.5 -13t45 13t18 43h93q0 -29 -10 -55t-29 -45.5t-48.5 -31t-68.5 -11.5z" />
    <glyph glyph-name="gbreve" unicode="&#x11f;" horiz-adv-x="624" 
d="M303 118q49 0 82 37.5t33 113.5q0 78 -33 115.5t-83 37.5t-83.5 -37.5t-33.5 -115.5q0 -76 33.5 -113.5t84.5 -37.5zM269 -192q-51 0 -88 7t-61 15q-29 10 -48 23l28 99q7 -4 20 -11.5t33 -14.5t46 -12t59 -5q88 0 124.5 35t36.5 114v58q-23 -42 -63 -67t-97 -25
q-45 0 -85 15.5t-70.5 46t-48.5 76.5t-18 107q0 62 18 108.5t48.5 77.5t71.5 46.5t86 15.5q60 0 100.5 -25.5t63.5 -70.5l1 6q0 9 1 20l2 22t2.5 21t3.5 17h132q-2 -13 -3.5 -38.5t-1.5 -41.5v-366q0 -57 -16 -103.5t-51 -79.5t-90.5 -51.5t-135.5 -18.5zM305 555
q-39 0 -68 12t-47.5 32t-28 46.5t-9.5 56.5h93q1 -32 17 -46t43 -14t42.5 14t16.5 46h93q0 -30 -9.5 -56.5t-28 -46.5t-47 -32t-67.5 -12z" />
    <glyph glyph-name="Gdotaccent" unicode="&#x120;" horiz-adv-x="748" 
d="M701 272q0 -61 -19 -113t-57.5 -89.5t-96.5 -58.5t-137 -21q-80 0 -144.5 25t-110.5 71t-70.5 112t-24.5 149t26 149t74 112.5t115.5 71t151.5 24.5q46 0 83.5 -4.5t67 -12.5t52.5 -19t42 -24l-18 -110q-44 28 -92.5 45.5t-116.5 17.5q-109 0 -166.5 -63.5t-57.5 -186.5
q0 -125 48.5 -190t144.5 -65q42 0 72 12t48.5 33.5t27.5 51t9 63.5v28h-185v100h334v-108v0zM388 739q-36 0 -59.5 21t-23.5 56t23.5 56t59.5 21t60.5 -21t24.5 -56t-24.5 -56t-60.5 -21z" />
    <glyph glyph-name="gdotaccent" unicode="&#x121;" horiz-adv-x="624" 
d="M303 118q49 0 82 37.5t33 113.5q0 78 -33 115.5t-83 37.5t-83.5 -37.5t-33.5 -115.5q0 -76 33.5 -113.5t84.5 -37.5zM269 -192q-51 0 -88 7t-61 15q-29 10 -48 23l28 99q7 -4 20 -11.5t33 -14.5t46 -12t59 -5q88 0 124.5 35t36.5 114v58q-23 -42 -63 -67t-97 -25
q-45 0 -85 15.5t-70.5 46t-48.5 76.5t-18 107q0 62 18 108.5t48.5 77.5t71.5 46.5t86 15.5q60 0 100.5 -25.5t63.5 -70.5l1 6q0 9 1 20l2 22t2.5 21t3.5 17h132q-2 -13 -3.5 -38.5t-1.5 -41.5v-366q0 -57 -16 -103.5t-51 -79.5t-90.5 -51.5t-135.5 -18.5zM303 565
q-35 0 -59 20.5t-24 55.5q0 36 24 57t59 21q36 0 60.5 -21t24.5 -57q0 -35 -24.5 -55.5t-60.5 -20.5z" />
    <glyph glyph-name="uni0122" unicode="&#x122;" horiz-adv-x="748" 
d="M701 272q0 -61 -19 -113t-57.5 -89.5t-96.5 -58.5t-137 -21q-80 0 -144.5 25t-110.5 71t-70.5 112t-24.5 149t26 149t74 112.5t115.5 71t151.5 24.5q46 0 83.5 -4.5t67 -12.5t52.5 -19t42 -24l-18 -110q-44 28 -92.5 45.5t-116.5 17.5q-109 0 -166.5 -63.5t-57.5 -186.5
q0 -125 48.5 -190t144.5 -65q42 0 72 12t48.5 33.5t27.5 51t9 63.5v28h-185v100h334v-108v0zM318 -233q15 15 28 32t24 38q-23 4 -37 19.5t-14 39.5q0 27 19 44.5t49 17.5t50.5 -18.5t19.5 -54.5q0 -38 -20 -67.5t-42 -50.5h-77z" />
    <glyph glyph-name="uni0123" unicode="&#x123;" horiz-adv-x="624" 
d="M303 118q49 0 82 37.5t33 113.5q0 78 -33 115.5t-83 37.5t-83.5 -37.5t-33.5 -115.5q0 -76 33.5 -113.5t84.5 -37.5zM269 -192q-51 0 -88 7t-61 15q-29 10 -48 23l28 99q7 -4 20 -11.5t33 -14.5t46 -12t59 -5q88 0 124.5 35t36.5 114v58q-23 -42 -63 -67t-97 -25
q-45 0 -85 15.5t-70.5 46t-48.5 76.5t-18 107q0 62 18 108.5t48.5 77.5t71.5 46.5t86 15.5q60 0 100.5 -25.5t63.5 -70.5l1 6q0 9 1 20l2 22t2.5 21t3.5 17h132q-2 -13 -3.5 -38.5t-1.5 -41.5v-366q0 -57 -16 -103.5t-51 -79.5t-90.5 -51.5t-135.5 -18.5zM281 568
q-30 0 -50.5 18.5t-19.5 54.5q0 38 20 67.5t42 50.5h77q-15 -15 -28 -32t-24 -38q23 -4 37 -19.5t14 -39.5q0 -27 -19 -44.5t-49 -17.5z" />
    <glyph glyph-name="Hcircumflex" unicode="&#x124;" horiz-adv-x="727" 
d="M504 296h-281v-296h-156v695h156v-299h281v299h156v-695h-156v296zM367 802l-70 -58h-95l91 126h148l92 -126h-96z" />
    <glyph glyph-name="hcircumflex" unicode="&#x125;" horiz-adv-x="604" 
d="M207 0h-146v725h146v-288h2q22 35 63 57.5t103 22.5q78 0 125 -40.5t47 -125.5v-351h-145v339q0 42 -21.5 58t-58.5 16q-43 0 -70.5 -19t-44.5 -48v-346zM308 832l-70 -58h-95l91 126h148l92 -126h-96z" />
    <glyph glyph-name="Hbar" unicode="&#x126;" horiz-adv-x="767" 
d="M523 296h-281v-296h-156v503h-82v80h82v112h156v-112h281v112h156v-112h83v-80h-83v-503h-156v296zM523 396v107h-281v-107h281z" />
    <glyph glyph-name="hbar" unicode="&#x127;" horiz-adv-x="603" 
d="M208 0h-146v557h-64v77h64v91h146v-91h135v-77h-135v-120h2q22 35 63 57.5t103 22.5q78 0 125 -40.5t47 -125.5v-351h-145v339q0 42 -21.5 58t-58.5 16q-43 0 -70.5 -19t-44.5 -48v-346z" />
    <glyph glyph-name="Itilde" unicode="&#x128;" horiz-adv-x="290" 
d="M223 695v-695h-156v695h156zM-30 750q-4 25 -0.5 49t15.5 42.5t33 30t52 11.5q25 0 45.5 -6.5t38 -14t33 -13.5t31.5 -6q17 0 24.5 9.5t6.5 33.5h71q4 -26 1 -50t-15 -42.5t-33 -30t-52 -11.5q-26 0 -46.5 6.5t-38 14t-33 14t-31.5 6.5q-17 0 -24.5 -9.5t-6.5 -33.5h-71z
" />
    <glyph glyph-name="itilde" unicode="&#x129;" horiz-adv-x="268" 
d="M207 507v-507h-146v507h146zM-33 572q-4 26 -0.5 50t15.5 42.5t33 29.5t51 11q24 0 42.5 -6.5t33.5 -14t28.5 -13.5t27.5 -6q17 0 24 9.5t7 33.5h74q4 -26 0.5 -50t-15.5 -42.5t-32.5 -29.5t-50.5 -11q-25 0 -43.5 6.5t-33.5 14l-28 14t-28 6.5q-17 0 -24 -10t-6 -34h-75
z" />
    <glyph glyph-name="Imacron" unicode="&#x12a;" horiz-adv-x="290" 
d="M223 695v-695h-156v695h156zM-5 854h301v-88h-301v88z" />
    <glyph glyph-name="imacron" unicode="&#x12b;" horiz-adv-x="268" 
d="M13 678h248v-89h-248v89zM207 507v-507h-146v507h146z" />
    <glyph glyph-name="Ibreve" unicode="&#x12c;" horiz-adv-x="290" 
d="M223 695v-695h-156v695h156zM146 738q-40 0 -69 11.5t-48.5 31t-29.5 45.5t-10 55h93q1 -30 18.5 -43t45.5 -13t45 13t18 43h93q0 -29 -10 -55t-29 -45.5t-48.5 -31t-68.5 -11.5z" />
    <glyph glyph-name="ibreve" unicode="&#x12d;" horiz-adv-x="268" 
d="M207 507v-507h-146v507h146zM137 555q-39 0 -68 12t-47.5 32t-28 46.5t-9.5 56.5h93q1 -32 17 -46t43 -14t42.5 14t16.5 46h93q0 -30 -9.5 -56.5t-28 -46.5t-47 -32t-67.5 -12z" />
    <glyph glyph-name="Iogonek" unicode="&#x12e;" horiz-adv-x="290" 
d="M223 695v-695q-27 -11 -48.5 -28.5t-21.5 -43.5q0 -34 39 -34q14 0 25 3t16 5l10 -74q-8 -5 -27.5 -9t-51.5 -4q-61 0 -95.5 23t-34.5 65q0 20 8 36t20 28t27 20t29 13h-51v695h156z" />
    <glyph glyph-name="iogonek" unicode="&#x12f;" horiz-adv-x="268" 
d="M207 507v-507q-27 -11 -44.5 -28.5t-17.5 -43.5q0 -34 39 -34q14 0 25 3t16 5l10 -74q-8 -5 -27.5 -9t-51.5 -4q-61 0 -95.5 23t-34.5 65q0 40 23.5 63.5t52.5 33.5h-41v507h146zM134 565q-36 0 -60.5 21t-24.5 56t24.5 56.5t60.5 21.5q35 0 60 -21.5t25 -56.5t-25 -56
t-60 -21z" />
    <glyph glyph-name="Idotaccent" unicode="&#x130;" horiz-adv-x="290" 
d="M223 695v-695h-156v695h156zM145 739q-36 0 -59.5 21t-23.5 56t23.5 56t59.5 21t60.5 -21t24.5 -56t-24.5 -56t-60.5 -21z" />
    <glyph glyph-name="dotlessi" unicode="&#x131;" horiz-adv-x="268" 
d="M207 507v-507h-146v507h146z" />
    <glyph glyph-name="IJ" unicode="&#x132;" horiz-adv-x="653" 
d="M224 695v-695h-156v695h156zM588 695v-523q0 -40 -12.5 -73.5t-38.5 -57.5t-67 -37.5t-98 -13.5q-29 0 -52.5 6.5t-38.5 15.5l14 99q10 -5 26.5 -9.5t40.5 -4.5q38 0 54.5 21.5t16.5 66.5v510h155z" />
    <glyph glyph-name="ij" unicode="&#x133;" horiz-adv-x="517" 
d="M134 565q-36 0 -60.5 21t-24.5 56t24.5 56.5t60.5 21.5q35 0 60 -21.5t25 -56.5t-25 -56t-60 -21zM207 507v-507h-146v507h146zM382 565q-36 0 -60 21t-24 56t24 56.5t60 21.5t60.5 -21.5t24.5 -56.5t-24.5 -56t-60.5 -21zM456 49q0 -66 -16 -112t-45.5 -75t-72.5 -43
t-97 -15l-22 102q28 1 48.5 7t33.5 20t19.5 37.5t6.5 59.5v477h145v-458z" />
    <glyph glyph-name="Jcircumflex" unicode="&#x134;" horiz-adv-x="416" 
d="M351 695v-523q0 -40 -12.5 -73.5t-38.5 -57.5t-67 -37.5t-98 -13.5q-36 0 -65 5.5t-46 16.5l14 99q10 -3 26 -8.5t38 -5.5q51 0 72.5 21.5t21.5 66.5v510h155zM268 802l-70 -58h-95l91 126h148l92 -126h-96z" />
    <glyph glyph-name="jcircumflex" unicode="&#x135;" horiz-adv-x="267" 
d="M133 634l-50 -68h-88l81 143h117l81 -143h-91zM206 49q0 -66 -16 -112t-45.5 -75t-72.5 -43t-97 -15l-22 102q28 1 48.5 7t33.5 20t19.5 37.5t6.5 59.5v477h145v-458z" />
    <glyph glyph-name="uni0136" unicode="&#x136;" horiz-adv-x="676" 
d="M487 0l-258 341l276 354h139l-256 -328l276 -367h-177zM223 695v-695h-156v695h156zM274 -233q15 15 28 32t24 38q-23 4 -37 19.5t-14 39.5q0 27 19 44.5t49 17.5t50.5 -18.5t19.5 -54.5q0 -38 -20 -67.5t-42 -50.5h-77z" />
    <glyph glyph-name="uni0137" unicode="&#x137;" horiz-adv-x="564" 
d="M207 263v-263h-146v725h146v-460l198 242h130l-181 -223l195 -284h-165zM213 -233q15 15 28 32t24 38q-23 4 -37 19.5t-14 39.5q0 27 19 44.5t49 17.5t50.5 -18.5t19.5 -54.5q0 -38 -20 -67.5t-42 -50.5h-77z" />
    <glyph glyph-name="Lacute" unicode="&#x139;" horiz-adv-x="546" 
d="M67 695h156v-596h283v-99h-439v695zM154 870h155l-109 -126h-110z" />
    <glyph glyph-name="lacute" unicode="&#x13a;" horiz-adv-x="269" 
d="M207 725v-725h-146v725h146zM138 900h155l-109 -126h-110z" />
    <glyph glyph-name="uni013B" unicode="&#x13b;" horiz-adv-x="546" 
d="M67 695h156v-596h283v-99h-439v695zM226 -233q15 15 28 32t24 38q-23 4 -37 19.5t-14 39.5q0 27 19 44.5t49 17.5t50.5 -18.5t19.5 -54.5q0 -38 -20 -67.5t-42 -50.5h-77z" />
    <glyph glyph-name="uni013C" unicode="&#x13c;" horiz-adv-x="269" 
d="M207 725v-725h-146v725h146zM63 -233q15 15 28 32t24 38q-23 4 -37 19.5t-14 39.5q0 27 19 44.5t49 17.5t50.5 -18.5t19.5 -54.5q0 -38 -20 -67.5t-42 -50.5h-77z" />
    <glyph glyph-name="Lcaron" unicode="&#x13d;" horiz-adv-x="546" 
d="M67 695h156v-596h283v-99h-439v695zM281 534l18 161h114l-50 -161h-82z" />
    <glyph glyph-name="lcaron" unicode="&#x13e;" horiz-adv-x="269" 
d="M207 725v-725h-146v725h146zM246 564l18 161h114l-50 -161h-82z" />
    <glyph glyph-name="Ldot" unicode="&#x13f;" horiz-adv-x="546" 
d="M67 695h156v-596h283v-99h-439v695zM431 297q-34 0 -57 23t-23 57t23 57t57 23t57 -23t23 -57t-23 -57t-57 -23z" />
    <glyph glyph-name="ldot" unicode="&#x140;" horiz-adv-x="406" 
d="M207 725v-725h-146v725h146zM336 291q-34 0 -57 23t-23 57t23 57t57 23t57 -23t23 -57t-23 -57t-57 -23z" />
    <glyph glyph-name="Lslash" unicode="&#x141;" horiz-adv-x="577" 
d="M27 262l70 37v396h156v-314l202 106v-99l-202 -106v-183h283v-99h-439v200l-70 -37v99z" />
    <glyph glyph-name="lslash" unicode="&#x142;" horiz-adv-x="317" 
d="M20 334l63 40v351h146v-259l68 43v-94l-68 -43v-372h-146v280l-63 -39v93z" />
    <glyph glyph-name="Nacute" unicode="&#x143;" horiz-adv-x="725" 
d="M185 511v-511h-118v695h168l305 -499v499h117v-695h-159zM385 870h155l-109 -126h-110z" />
    <glyph glyph-name="nacute" unicode="&#x144;" horiz-adv-x="602" 
d="M323 413q-44 0 -71.5 -19t-44.5 -48v-346h-146v507h134l8 -73h2q23 35 65.5 59t105.5 24q78 0 125 -40.5t47 -125.5v-351h-146v339q0 42 -21.5 58t-57.5 16zM305 715h150l-106 -149h-103z" />
    <glyph glyph-name="uni0145" unicode="&#x145;" horiz-adv-x="725" 
d="M185 511v-511h-118v695h168l305 -499v499h117v-695h-159zM278 -233q15 15 28 32t24 38q-23 4 -37 19.5t-14 39.5q0 27 19 44.5t49 17.5t50.5 -18.5t19.5 -54.5q0 -38 -20 -67.5t-42 -50.5h-77z" />
    <glyph glyph-name="uni0146" unicode="&#x146;" horiz-adv-x="602" 
d="M323 413q-44 0 -71.5 -19t-44.5 -48v-346h-146v507h134l8 -73h2q23 35 65.5 59t105.5 24q78 0 125 -40.5t47 -125.5v-351h-146v339q0 42 -21.5 58t-57.5 16zM233 -233q15 15 28 32t24 38q-23 4 -37 19.5t-14 39.5q0 27 19 44.5t49 17.5t50.5 -18.5t19.5 -54.5
q0 -38 -20 -67.5t-42 -50.5h-77z" />
    <glyph glyph-name="Ncaron" unicode="&#x147;" horiz-adv-x="725" 
d="M185 511v-511h-118v695h168l305 -499v499h117v-695h-159zM300 746l-92 129h97l75 -59l75 59h97l-93 -129h-159z" />
    <glyph glyph-name="ncaron" unicode="&#x148;" horiz-adv-x="602" 
d="M323 413q-44 0 -71.5 -19t-44.5 -48v-346h-146v507h134l8 -73h2q23 35 65.5 59t105.5 24q78 0 125 -40.5t47 -125.5v-351h-146v339q0 42 -21.5 58t-57.5 16zM236 566l-101 143h100l68 -70l68 70h97l-101 -143h-131z" />
    <glyph glyph-name="Eng" unicode="&#x14a;" horiz-adv-x="726" 
d="M455 -195q-33 0 -59.5 5t-46.5 12l20 94q31 -13 81 -13q45 0 67.5 22.5t22.5 74.5h-46l-308 503v-503h-118v695h168l304 -498v498h118v-701q0 -88 -50.5 -138.5t-152.5 -50.5z" />
    <glyph glyph-name="eng" unicode="&#x14b;" horiz-adv-x="597" 
d="M547 49q0 -66 -16 -112t-45.5 -75t-72.5 -43t-97 -15l-22 102q28 1 48.5 7t33.5 20t19.5 37.5t6.5 59.5v309q0 42 -21.5 58t-57.5 16q-44 0 -71.5 -19t-44.5 -48v-346h-146v507h134l8 -73h2q23 35 65.5 59t105.5 24q78 0 124.5 -40.5t46.5 -125.5v-302v0z" />
    <glyph glyph-name="Omacron" unicode="&#x14c;" horiz-adv-x="785" 
d="M392 -10q-74 0 -138 23t-111.5 67.5t-74.5 111t-27 153.5t27 154t74.5 112.5t111.5 69t138 23.5q73 0 137.5 -22.5t112 -67.5t75 -111t27.5 -153t-27.5 -154t-75 -113t-112 -69.5t-137.5 -23.5zM392 92q41 0 76 13.5t60.5 43.5t40 78.5t14.5 119.5q0 70 -14.5 119t-40 79
t-60.5 43.5t-76 13.5q-42 0 -76.5 -13.5t-60 -43.5t-39.5 -79t-14 -119q0 -71 14 -119.5t39.5 -78.5t60 -43.5t76.5 -13.5zM242 854h301v-88h-301v88z" />
    <glyph glyph-name="omacron" unicode="&#x14d;" horiz-adv-x="612" 
d="M305 -10q-56 0 -105 17.5t-85 51t-57 82.5t-21 113t21 113t57 82.5t85 50.5t105 17t105.5 -17t86 -50.5t57.5 -82.5t21 -113t-21 -113t-57.5 -82.5t-85.5 -51t-106 -17.5zM305 85q52 0 86.5 38.5t34.5 130.5q0 91 -34.5 129.5t-86.5 38.5q-26 0 -47.5 -9t-37.5 -29
t-25 -52t-9 -78t9 -78t25 -52.5t37.5 -29.5t47.5 -9zM158 678h296v-89h-296v89z" />
    <glyph glyph-name="Obreve" unicode="&#x14e;" horiz-adv-x="785" 
d="M392 -10q-74 0 -138 23t-111.5 67.5t-74.5 111t-27 153.5t27 154t74.5 112.5t111.5 69t138 23.5q73 0 137.5 -22.5t112 -67.5t75 -111t27.5 -153t-27.5 -154t-75 -113t-112 -69.5t-137.5 -23.5zM392 92q41 0 76 13.5t60.5 43.5t40 78.5t14.5 119.5q0 70 -14.5 119t-40 79
t-60.5 43.5t-76 13.5q-42 0 -76.5 -13.5t-60 -43.5t-39.5 -79t-14 -119q0 -71 14 -119.5t39.5 -78.5t60 -43.5t76.5 -13.5zM393 738q-40 0 -69 11.5t-48.5 31t-29.5 45.5t-10 55h93q1 -30 18.5 -43t45.5 -13t45 13t18 43h93q0 -29 -10 -55t-29 -45.5t-48.5 -31t-68.5 -11.5z
" />
    <glyph glyph-name="obreve" unicode="&#x14f;" horiz-adv-x="612" 
d="M305 -10q-56 0 -105 17.5t-85 51t-57 82.5t-21 113t21 113t57 82.5t85 50.5t105 17t105.5 -17t86 -50.5t57.5 -82.5t21 -113t-21 -113t-57.5 -82.5t-85.5 -51t-106 -17.5zM305 85q52 0 86.5 38.5t34.5 130.5q0 91 -34.5 129.5t-86.5 38.5q-26 0 -47.5 -9t-37.5 -29
t-25 -52t-9 -78t9 -78t25 -52.5t37.5 -29.5t47.5 -9zM306 555q-39 0 -68 12t-47.5 32t-28 46.5t-9.5 56.5h93q1 -32 17 -46t43 -14t42.5 14t16.5 46h93q0 -30 -9.5 -56.5t-28 -46.5t-47 -32t-67.5 -12z" />
    <glyph glyph-name="Ohungarumlaut" unicode="&#x150;" horiz-adv-x="785" 
d="M392 -10q-74 0 -138 23t-111.5 67.5t-74.5 111t-27 153.5t27 154t74.5 112.5t111.5 69t138 23.5q73 0 137.5 -22.5t112 -67.5t75 -111t27.5 -153t-27.5 -154t-75 -113t-112 -69.5t-137.5 -23.5zM392 92q41 0 76 13.5t60.5 43.5t40 78.5t14.5 119.5q0 70 -14.5 119t-40 79
t-60.5 43.5t-76 13.5q-42 0 -76.5 -13.5t-60 -43.5t-39.5 -79t-14 -119q0 -71 14 -119.5t39.5 -78.5t60 -43.5t76.5 -13.5zM429 744l41 126h136l-74 -126h-103zM242 744l41 126h136l-74 -126h-103z" />
    <glyph glyph-name="ohungarumlaut" unicode="&#x151;" horiz-adv-x="612" 
d="M305 -10q-56 0 -105 17.5t-85 51t-57 82.5t-21 113t21 113t57 82.5t85 50.5t105 17t105.5 -17t86 -50.5t57.5 -82.5t21 -113t-21 -113t-57.5 -82.5t-85.5 -51t-106 -17.5zM305 85q52 0 86.5 38.5t34.5 130.5q0 91 -34.5 129.5t-86.5 38.5q-26 0 -47.5 -9t-37.5 -29
t-25 -52t-9 -78t9 -78t25 -52.5t37.5 -29.5t47.5 -9zM345 566l55 149h125l-84 -149h-96zM167 566l55 149h125l-83 -149h-97z" />
    <glyph glyph-name="OE" unicode="&#x152;" horiz-adv-x="987" 
d="M481 99v497h-58q-50 0 -90.5 -11.5t-70 -39t-45.5 -74t-16 -116.5q0 -68 16 -116t46 -79.5t73 -46t96 -14.5h49zM434 0q-86 0 -158.5 22t-124.5 66t-81 111.5t-29 158.5q0 96 30 160.5t82.5 103.5t124.5 56t157 17h495v-99h-293v-188h242v-99h-242v-210h298v-99h-501z
" />
    <glyph glyph-name="oe" unicode="&#x153;" horiz-adv-x="954" 
d="M685 431q-47 0 -76.5 -34t-36.5 -100h209q3 69 -23 101.5t-73 32.5zM305 85q26 0 48 10t38.5 30.5t25.5 52.5t9 76q0 88 -34.5 128t-86.5 40q-51 0 -85 -40t-34 -128q0 -89 34 -129t85 -40zM892 41q-23 -17 -66 -34t-111 -17q-78 0 -132 23.5t-86 66.5
q-32 -45 -81.5 -67.5t-110.5 -22.5q-56 0 -105 17.5t-85 51t-57 82.5t-21 113t21 113t57 82.5t85 50.5t105 17q60 0 110 -22.5t82 -67.5q31 44 78.5 67t108.5 23q59 0 106.5 -19t78 -56t43 -93t0.5 -129h-340q8 -66 45.5 -98.5t115.5 -32.5q41 0 73 12.5t60 32.5z" />
    <glyph glyph-name="Racute" unicode="&#x154;" horiz-adv-x="647" 
d="M223 596v-235h76q61 0 96 28t35 93q0 63 -32.5 88.5t-94.5 25.5h-80zM297 262h-74v-262h-156v695h231q144 0 217 -52t73 -162q0 -82 -37 -129.5t-103 -69.5l172 -282h-164zM310 870h155l-109 -126h-110z" />
    <glyph glyph-name="racute" unicode="&#x155;" horiz-adv-x="411" 
d="M378 375q-22 3 -46.5 1t-48 -9.5t-43.5 -20.5t-33 -32v-314h-146v507h131l11 -104h3q28 54 71.5 82t100.5 32v-142v0zM240 715h150l-106 -149h-103z" />
    <glyph glyph-name="uni0156" unicode="&#x156;" horiz-adv-x="647" 
d="M223 596v-235h76q61 0 96 28t35 93q0 63 -32.5 88.5t-94.5 25.5h-80zM297 262h-74v-262h-156v695h231q144 0 217 -52t73 -162q0 -82 -37 -129.5t-103 -69.5l172 -282h-164zM263 -233q15 15 28 32t24 38q-23 4 -37 19.5t-14 39.5q0 27 19 44.5t49 17.5t50.5 -18.5
t19.5 -54.5q0 -38 -20 -67.5t-42 -50.5h-77z" />
    <glyph glyph-name="uni0157" unicode="&#x157;" horiz-adv-x="411" 
d="M378 375q-22 3 -46.5 1t-48 -9.5t-43.5 -20.5t-33 -32v-314h-146v507h131l11 -104h3q28 54 71.5 82t100.5 32v-142v0zM62 -233q15 15 28 32t24 38q-23 4 -37 19.5t-14 39.5q0 27 19 44.5t49 17.5t50.5 -18.5t19.5 -54.5q0 -38 -20 -67.5t-42 -50.5h-77z" />
    <glyph glyph-name="Rcaron" unicode="&#x158;" horiz-adv-x="647" 
d="M223 596v-235h76q61 0 96 28t35 93q0 63 -32.5 88.5t-94.5 25.5h-80zM297 262h-74v-262h-156v695h231q144 0 217 -52t73 -162q0 -82 -37 -129.5t-103 -69.5l172 -282h-164zM225 746l-92 129h97l75 -59l75 59h97l-93 -129h-159z" />
    <glyph glyph-name="rcaron" unicode="&#x159;" horiz-adv-x="411" 
d="M378 375q-22 3 -46.5 1t-48 -9.5t-43.5 -20.5t-33 -32v-314h-146v507h131l11 -104h3q28 54 71.5 82t100.5 32v-142v0zM171 566l-101 143h100l68 -70l68 70h97l-101 -143h-131z" />
    <glyph glyph-name="Sacute" unicode="&#x15a;" horiz-adv-x="576" 
d="M270 -10q-46 0 -84 7t-67 17t-50 22t-33 23l16 107q14 -11 35.5 -24t48.5 -23.5t58.5 -17.5t65.5 -7q60 0 97.5 23.5t37.5 72.5q0 25 -10.5 41t-30 26.5t-47 17t-60.5 14.5q-37 9 -74 22t-66 36t-47.5 59t-18.5 92q0 54 20 93t55 64t83 37t104 12q75 0 126 -15.5
t73 -34.5l-13 -107q-31 23 -78 38t-104 15q-66 0 -96 -22.5t-30 -64.5q0 -23 10 -37.5t28.5 -25t46.5 -18t64 -14.5q37 -8 75 -20t69 -35.5t50 -60.5t19 -95q0 -64 -24.5 -106t-63.5 -66.5t-87.5 -34.5t-97.5 -10zM305 874h155l-109 -126h-110z" />
    <glyph glyph-name="sacute" unicode="&#x15b;" horiz-adv-x="492" 
d="M233 -10q-72 0 -120 14.5t-75 35.5l23 95q26 -21 70 -36t101 -15q95 0 95 58q0 19 -9.5 29.5t-26 17t-38 9.5t-45.5 7q-30 5 -59 13.5t-52 24.5t-37.5 42.5t-14.5 68.5q0 81 55.5 122t162.5 41q64 0 104.5 -12.5t59.5 -23.5l-27 -92q-17 12 -53 24.5t-81 12.5
q-42 0 -69 -12t-27 -41q0 -17 8.5 -26.5t23 -15t33 -8t39.5 -5.5q31 -5 64 -13t60.5 -25t45 -46t17.5 -76q0 -49 -19 -81t-50.5 -51.5t-73 -27.5t-85.5 -8zM254 715h150l-106 -149h-103z" />
    <glyph glyph-name="Scircumflex" unicode="&#x15c;" horiz-adv-x="576" 
d="M270 -10q-46 0 -84 7t-67 17t-50 22t-33 23l16 107q14 -11 35.5 -24t48.5 -23.5t58.5 -17.5t65.5 -7q60 0 97.5 23.5t37.5 72.5q0 25 -10.5 41t-30 26.5t-47 17t-60.5 14.5q-37 9 -74 22t-66 36t-47.5 59t-18.5 92q0 54 20 93t55 64t83 37t104 12q75 0 126 -15.5
t73 -34.5l-13 -107q-31 23 -78 38t-104 15q-66 0 -96 -22.5t-30 -64.5q0 -23 10 -37.5t28.5 -25t46.5 -18t64 -14.5q37 -8 75 -20t69 -35.5t50 -60.5t19 -95q0 -64 -24.5 -106t-63.5 -66.5t-87.5 -34.5t-97.5 -10zM297 806l-70 -58h-95l91 126h148l92 -126h-96z" />
    <glyph glyph-name="scircumflex" unicode="&#x15d;" horiz-adv-x="492" 
d="M233 -10q-72 0 -120 14.5t-75 35.5l23 95q26 -21 70 -36t101 -15q95 0 95 58q0 19 -9.5 29.5t-26 17t-38 9.5t-45.5 7q-30 5 -59 13.5t-52 24.5t-37.5 42.5t-14.5 68.5q0 81 55.5 122t162.5 41q64 0 104.5 -12.5t59.5 -23.5l-27 -92q-17 12 -53 24.5t-81 12.5
q-42 0 -69 -12t-27 -41q0 -17 8.5 -26.5t23 -15t33 -8t39.5 -5.5q31 -5 64 -13t60.5 -25t45 -46t17.5 -76q0 -49 -19 -81t-50.5 -51.5t-73 -27.5t-85.5 -8zM253 637l-68 -71h-97l101 143h131l101 -143h-100z" />
    <glyph glyph-name="uni015E" unicode="&#x15e;" horiz-adv-x="576" 
d="M264 -189q-33 0 -54.5 5.5t-29.5 10.5l11 54q7 -5 20 -9.5t30 -4.5q18 0 29.5 5.5t11.5 21.5q0 17 -13.5 23t-36.5 6h-16l24 68q-80 5 -131 26.5t-73 41.5l16 107q14 -11 35.5 -24t48.5 -23.5t58.5 -17.5t65.5 -7q60 0 97.5 23.5t37.5 72.5q0 25 -10.5 41t-30 26.5
t-47 17t-60.5 14.5q-37 9 -74 22t-66 36t-47.5 59t-18.5 92q0 54 20 93t55 64t83 37t104 12q75 0 126 -15.5t73 -34.5l-13 -107q-31 23 -78 38t-104 15q-66 0 -96 -22.5t-30 -64.5q0 -23 10 -37.5t28.5 -25t46.5 -18t64 -14.5q37 -8 75 -20t69 -35.5t50 -60.5t19 -95
q0 -57 -20 -96.5t-52.5 -65t-74.5 -38t-86 -15.5l-11 -30q48 -4 66.5 -24t18.5 -49q0 -42 -33.5 -60t-86.5 -18z" />
    <glyph glyph-name="uni015F" unicode="&#x15f;" horiz-adv-x="492" 
d="M212 -189q-33 0 -54.5 5.5t-29.5 10.5l11 54q7 -5 20 -9.5t30 -4.5q18 0 29.5 5.5t11.5 21.5q0 17 -13.5 23t-36.5 6h-16l25 69q-54 4 -91 17t-60 31l23 95q26 -21 70 -36t101 -15q95 0 95 58q0 19 -9.5 29.5t-26 17t-38 9.5t-45.5 7q-30 5 -59 13.5t-52 24.5t-37.5 42.5
t-14.5 68.5q0 81 55.5 122t162.5 41q64 0 104.5 -12.5t59.5 -23.5l-27 -92q-17 12 -53 24.5t-81 12.5q-42 0 -69 -12t-27 -41q0 -17 8.5 -26.5t23 -15t33 -8t39.5 -5.5q31 -5 64 -13t60.5 -25t45 -46t17.5 -76q0 -45 -16.5 -76.5t-44.5 -51t-65 -28.5t-78 -11l-10 -29
q48 -4 66.5 -24t18.5 -49q0 -42 -33.5 -60t-86.5 -18z" />
    <glyph glyph-name="Scaron" unicode="&#x160;" horiz-adv-x="576" 
d="M270 -10q-46 0 -84 7t-67 17t-50 22t-33 23l16 107q14 -11 35.5 -24t48.5 -23.5t58.5 -17.5t65.5 -7q60 0 97.5 23.5t37.5 72.5q0 25 -10.5 41t-30 26.5t-47 17t-60.5 14.5q-37 9 -74 22t-66 36t-47.5 59t-18.5 92q0 54 20 93t55 64t83 37t104 12q75 0 126 -15.5
t73 -34.5l-13 -107q-31 23 -78 38t-104 15q-66 0 -96 -22.5t-30 -64.5q0 -23 10 -37.5t28.5 -25t46.5 -18t64 -14.5q37 -8 75 -20t69 -35.5t50 -60.5t19 -95q0 -64 -24.5 -106t-63.5 -66.5t-87.5 -34.5t-97.5 -10zM220 750l-92 129h97l75 -59l75 59h97l-93 -129h-159z" />
    <glyph glyph-name="scaron" unicode="&#x161;" horiz-adv-x="492" 
d="M233 -10q-72 0 -120 14.5t-75 35.5l23 95q26 -21 70 -36t101 -15q95 0 95 58q0 19 -9.5 29.5t-26 17t-38 9.5t-45.5 7q-30 5 -59 13.5t-52 24.5t-37.5 42.5t-14.5 68.5q0 81 55.5 122t162.5 41q64 0 104.5 -12.5t59.5 -23.5l-27 -92q-17 12 -53 24.5t-81 12.5
q-42 0 -69 -12t-27 -41q0 -17 8.5 -26.5t23 -15t33 -8t39.5 -5.5q31 -5 64 -13t60.5 -25t45 -46t17.5 -76q0 -49 -19 -81t-50.5 -51.5t-73 -27.5t-85.5 -8zM186 566l-101 143h100l68 -70l68 70h97l-101 -143h-131z" />
    <glyph glyph-name="Tcommaaccent" unicode="&#x162;" horiz-adv-x="603" 
d="M379 596v-596h-156v596h-195v99h547v-99h-196zM230 -233q15 15 28 32t24 38q-23 4 -37 19.5t-14 39.5q0 27 19 44.5t49 17.5t50.5 -18.5t19.5 -54.5q0 -38 -20 -67.5t-42 -50.5h-77z" />
    <glyph glyph-name="tcommaaccent" unicode="&#x163;" horiz-adv-x="410" 
d="M385 15q-17 -10 -44.5 -17.5t-71.5 -7.5q-96 0 -140.5 43.5t-44.5 130.5v249h-60v94h60v106h147v-106h142v-94h-142v-246q0 -41 17.5 -57.5t49.5 -16.5q22 0 39 6.5t28 12.5l20 -97v0zM152 -233q15 15 28 32t24 38q-23 4 -37 19.5t-14 39.5q0 27 19 44.5t49 17.5
t50.5 -18.5t19.5 -54.5q0 -38 -20 -67.5t-42 -50.5h-77z" />
    <glyph glyph-name="Tcaron" unicode="&#x164;" horiz-adv-x="603" 
d="M379 596v-596h-156v596h-195v99h547v-99h-196zM220 746l-92 129h97l75 -59l75 59h97l-93 -129h-159z" />
    <glyph glyph-name="tcaron" unicode="&#x165;" horiz-adv-x="410" 
d="M385 15q-17 -10 -44.5 -17.5t-71.5 -7.5q-96 0 -140.5 43.5t-44.5 130.5v249h-60v94h60v106h147v-106h142v-94h-142v-246q0 -41 17.5 -57.5t49.5 -16.5q22 0 39 6.5t28 12.5l20 -97v0zM278 564l18 161h114l-50 -161h-82z" />
    <glyph glyph-name="Tbar" unicode="&#x166;" horiz-adv-x="603" 
d="M73 418h150v178h-195v99h547v-99h-196v-178h150v-88h-150v-330h-156v330h-150v88z" />
    <glyph glyph-name="tbar" unicode="&#x167;" horiz-adv-x="414" 
d="M389 15q-17 -10 -44.5 -17.5t-71.5 -7.5q-96 0 -140.5 43.5t-44.5 130.5v97h-60v77h60v75h-60v94h60v106h147v-106h142v-94h-142v-75h141v-77h-141v-94q0 -41 17.5 -57.5t49.5 -16.5q22 0 39 6.5t28 12.5z" />
    <glyph glyph-name="Utilde" unicode="&#x168;" horiz-adv-x="691" 
d="M57 695h155v-452q0 -76 39 -112.5t109 -36.5q67 0 108.5 36.5t41.5 112.5v452l124 1v-446q0 -62 -20.5 -110.5t-58 -81.5t-90 -50.5t-117.5 -17.5q-64 0 -117.5 16.5t-92 48.5t-60 80t-21.5 110v450zM186 751q-4 25 -0.5 49t15.5 42.5t33 30t52 11.5q25 0 45.5 -6.5
t38 -14t33 -13.5t31.5 -6q17 0 24.5 9.5t6.5 33.5h71q4 -26 1 -50t-15 -42.5t-33 -30t-52 -11.5q-26 0 -46.5 6.5t-38 14t-33 14t-31.5 6.5q-17 0 -24.5 -9.5t-6.5 -33.5h-71z" />
    <glyph glyph-name="utilde" unicode="&#x169;" horiz-adv-x="594" 
d="M387 73q-20 -35 -60 -59t-103 -24q-74 0 -121 43t-47 130v344h147v-340q0 -43 21.5 -57.5t51.5 -14.5q40 0 67 19t44 51v342h146v-507h-131l-12 73h-3v0zM133 572q-4 26 -0.5 50t15.5 42.5t33 29.5t51 11q24 0 42.5 -6.5t33.5 -14t28.5 -13.5t27.5 -6q17 0 24 9.5t7 33.5
h74q4 -26 0.5 -50t-15.5 -42.5t-32.5 -29.5t-50.5 -11q-25 0 -43.5 6.5t-33.5 14l-28 14t-28 6.5q-17 0 -24 -10t-6 -34h-75z" />
    <glyph glyph-name="Umacron" unicode="&#x16a;" horiz-adv-x="691" 
d="M57 695h155v-452q0 -76 39 -112.5t109 -36.5q67 0 108.5 36.5t41.5 112.5v452l124 1v-446q0 -62 -20.5 -110.5t-58 -81.5t-90 -50.5t-117.5 -17.5q-64 0 -117.5 16.5t-92 48.5t-60 80t-21.5 110v450zM211 855h301v-88h-301v88z" />
    <glyph glyph-name="umacron" unicode="&#x16b;" horiz-adv-x="594" 
d="M387 73q-20 -35 -60 -59t-103 -24q-74 0 -121 43t-47 130v344h147v-340q0 -43 21.5 -57.5t51.5 -14.5q40 0 67 19t44 51v342h146v-507h-131l-12 73h-3v0zM155 678h296v-89h-296v89z" />
    <glyph glyph-name="Ubreve" unicode="&#x16c;" horiz-adv-x="691" 
d="M57 695h155v-452q0 -76 39 -112.5t109 -36.5q67 0 108.5 36.5t41.5 112.5v452l124 1v-446q0 -62 -20.5 -110.5t-58 -81.5t-90 -50.5t-117.5 -17.5q-64 0 -117.5 16.5t-92 48.5t-60 80t-21.5 110v450zM362 739q-40 0 -69 11.5t-48.5 31t-29.5 45.5t-10 55h93
q1 -30 18.5 -43t45.5 -13t45 13t18 43h93q0 -29 -10 -55t-29 -45.5t-48.5 -31t-68.5 -11.5z" />
    <glyph glyph-name="ubreve" unicode="&#x16d;" horiz-adv-x="594" 
d="M387 73q-20 -35 -60 -59t-103 -24q-74 0 -121 43t-47 130v344h147v-340q0 -43 21.5 -57.5t51.5 -14.5q40 0 67 19t44 51v342h146v-507h-131l-12 73h-3v0zM303 555q-39 0 -68 12t-47.5 32t-28 46.5t-9.5 56.5h93q1 -32 17 -46t43 -14t42.5 14t16.5 46h93q0 -30 -9.5 -56.5
t-28 -46.5t-47 -32t-67.5 -12z" />
    <glyph glyph-name="Uring" unicode="&#x16e;" horiz-adv-x="691" 
d="M57 695h155v-452q0 -76 39 -112.5t109 -36.5q67 0 108.5 36.5t41.5 112.5v452l124 1v-446q0 -62 -20.5 -110.5t-58 -81.5t-90 -50.5t-117.5 -17.5q-64 0 -117.5 16.5t-92 48.5t-60 80t-21.5 110v450zM362 701q-49 0 -81.5 30t-32.5 77t32.5 76.5t81.5 29.5t81.5 -29.5
t32.5 -76.5t-32.5 -77t-81.5 -30zM362 757q21 0 33.5 14t12.5 37q0 22 -12.5 36.5t-33.5 14.5t-33.5 -14.5t-12.5 -36.5q0 -23 12.5 -37t33.5 -14z" />
    <glyph glyph-name="uring" unicode="&#x16f;" horiz-adv-x="594" 
d="M387 73q-20 -35 -60 -59t-103 -24q-74 0 -121 43t-47 130v344h147v-340q0 -43 21.5 -57.5t51.5 -14.5q40 0 67 19t44 51v342h146v-507h-131l-12 73h-3v0zM303 556q-49 0 -81.5 30t-32.5 77t32.5 76.5t81.5 29.5t81.5 -29.5t32.5 -76.5t-32.5 -77t-81.5 -30zM303 612
q21 0 33.5 14t12.5 37q0 22 -12.5 36t-33.5 14t-33.5 -14t-12.5 -36q0 -23 12.5 -37t33.5 -14z" />
    <glyph glyph-name="Uhungarumlaut" unicode="&#x170;" horiz-adv-x="691" 
d="M57 695h155v-452q0 -76 39 -112.5t109 -36.5q67 0 108.5 36.5t41.5 112.5v452l124 1v-446q0 -62 -20.5 -110.5t-58 -81.5t-90 -50.5t-117.5 -17.5q-64 0 -117.5 16.5t-92 48.5t-60 80t-21.5 110v450zM398 745l41 126h136l-74 -126h-103zM211 745l41 126h136l-74 -126
h-103z" />
    <glyph glyph-name="uhungarumlaut" unicode="&#x171;" horiz-adv-x="594" 
d="M387 73q-20 -35 -60 -59t-103 -24q-74 0 -121 43t-47 130v344h147v-340q0 -43 21.5 -57.5t51.5 -14.5q40 0 67 19t44 51v342h146v-507h-131l-12 73h-3v0zM342 566l55 149h125l-84 -149h-96zM164 566l55 149h125l-83 -149h-97z" />
    <glyph glyph-name="Uogonek" unicode="&#x172;" horiz-adv-x="691" 
d="M403 -72q0 -34 39 -34q14 0 25 3t16 5l10 -74q-8 -5 -27.5 -9t-51.5 -4q-61 0 -95.5 23t-34.5 65q0 32 18 53.5t40 33.5h-9q-61 2 -111.5 19.5t-87 49.5t-57 79t-20.5 107v450h155v-452q0 -76 39 -112.5t109 -36.5q67 0 108.5 36.5t41.5 112.5v452l124 1v-446
q0 -85 -33.5 -139t-90.5 -86q-28 -15 -48 -26.5t-33 -22t-19.5 -21.5t-6.5 -27z" />
    <glyph glyph-name="uogonek" unicode="&#x173;" horiz-adv-x="594" 
d="M347 -97q0 31 17 51.5t40 32.5l-14 86h-3q-20 -35 -60 -59t-103 -24q-74 0 -121 43t-47 130v344h147v-340q0 -43 21.5 -57.5t51.5 -14.5q40 0 67 19t44 51v342h146v-507q-29 -11 -48 -28.5t-19 -43.5q0 -34 39 -34q14 0 25 3t16 5l10 -74q-8 -5 -27.5 -9t-51.5 -4
q-61 0 -95.5 23t-34.5 65z" />
    <glyph glyph-name="Wcircumflex" unicode="&#x174;" horiz-adv-x="943" 
d="M16 695h154l112 -535l135 535h143l135 -534l114 534h118l-149 -695h-185l-123 490l-125 -490h-179zM480 802l-70 -58h-95l91 126h148l92 -126h-96z" />
    <glyph glyph-name="wcircumflex" unicode="&#x175;" horiz-adv-x="768" 
d="M17 507h139l78 -374l94 374h134l92 -377l79 377h118l-112 -507h-172l-82 349l-83 -349h-172zM392 637l-68 -71h-97l101 143h131l101 -143h-100z" />
    <glyph glyph-name="Ycircumflex" unicode="&#x176;" horiz-adv-x="649" 
d="M247 0v284l-234 411h166l163 -298l166 298h128l-233 -411v-284h-156zM344 802l-70 -58h-95l91 126h148l92 -126h-96z" />
    <glyph glyph-name="ycircumflex" unicode="&#x177;" horiz-adv-x="568" 
d="M144 -188q-42 0 -65.5 5t-38.5 13l17 103q7 -4 27 -11.5t52 -7.5q52 0 80 55l-202 538h149l135 -380l135 380h121l-184 -489q-20 -54 -42 -93t-49 -64t-60 -37t-75 -12zM288 637l-68 -71h-97l101 143h131l101 -143h-100z" />
    <glyph glyph-name="Ydieresis" unicode="&#x178;" horiz-adv-x="649" 
d="M247 0v284l-234 411h166l163 -298l166 298h128l-233 -411v-284h-156zM454 739q-33 0 -55 20.5t-22 52.5q0 34 22 53.5t55 19.5q32 0 54.5 -19.5t22.5 -53.5q0 -32 -22.5 -52.5t-54.5 -20.5zM219 739q-32 0 -54 20.5t-22 52.5q0 34 22 53.5t54 19.5q33 0 55 -19.5
t22 -53.5q0 -32 -22 -52.5t-55 -20.5z" />
    <glyph glyph-name="Zacute" unicode="&#x179;" horiz-adv-x="588" 
d="M37 0v94l341 502h-331v99h503v-94l-343 -502h344v-99h-514zM299 870h155l-109 -126h-110z" />
    <glyph glyph-name="zacute" unicode="&#x17a;" horiz-adv-x="481" 
d="M36 0v85l243 330h-235v92h400v-85l-237 -330h238v-92h-409zM243 715h150l-106 -149h-103z" />
    <glyph glyph-name="Zdotaccent" unicode="&#x17b;" horiz-adv-x="588" 
d="M37 0v94l341 502h-331v99h503v-94l-343 -502h344v-99h-514zM303 739q-36 0 -59.5 21t-23.5 56t23.5 56t59.5 21t60.5 -21t24.5 -56t-24.5 -56t-60.5 -21z" />
    <glyph glyph-name="zdotaccent" unicode="&#x17c;" horiz-adv-x="481" 
d="M36 0v85l243 330h-235v92h400v-85l-237 -330h238v-92h-409zM242 564q-35 0 -59 20.5t-24 55.5q0 36 24 57t59 21q36 0 60.5 -21t24.5 -57q0 -35 -24.5 -55.5t-60.5 -20.5z" />
    <glyph glyph-name="Zcaron" unicode="&#x17d;" horiz-adv-x="588" 
d="M37 0v94l341 502h-331v99h503v-94l-343 -502h344v-99h-514zM224 746l-92 129h97l75 -59l75 59h97l-93 -129h-159z" />
    <glyph glyph-name="zcaron" unicode="&#x17e;" horiz-adv-x="481" 
d="M36 0v85l243 330h-235v92h400v-85l-237 -330h238v-92h-409zM176 567l-101 143h100l68 -70l68 70h97l-101 -143h-131z" />
    <glyph glyph-name="uni0192" unicode="&#x192;" horiz-adv-x="508" 
d="M13 -181q-37 0 -58.5 5.5t-29.5 8.5l11 91q5 -2 24 -6.5t40 -4.5q43 0 64.5 26.5t32.5 86.5l55 323h-78l16 82h76l9 56q10 60 31 101t52.5 67t72 37.5t89.5 11.5q19 0 34 -2t26 -4q12 -3 22 -6l-21 -95q-6 2 -23.5 5.5t-35.5 3.5q-49 0 -70 -28t-30 -84l-11 -63h127
l-18 -82h-122l-53 -314q-20 -116 -79.5 -166t-152.5 -50z" />
    <glyph glyph-name="uni0218" unicode="&#x218;" horiz-adv-x="576" 
d="M270 -10q-46 0 -84 7t-67 17t-50 22t-33 23l16 107q14 -11 35.5 -24t48.5 -23.5t58.5 -17.5t65.5 -7q60 0 97.5 23.5t37.5 72.5q0 25 -10.5 41t-30 26.5t-47 17t-60.5 14.5q-37 9 -74 22t-66 36t-47.5 59t-18.5 92q0 54 20 93t55 64t83 37t104 12q75 0 126 -15.5
t73 -34.5l-13 -107q-31 23 -78 38t-104 15q-66 0 -96 -22.5t-30 -64.5q0 -23 10 -37.5t28.5 -25t46.5 -18t64 -14.5q37 -8 75 -20t69 -35.5t50 -60.5t19 -95q0 -64 -24.5 -106t-63.5 -66.5t-87.5 -34.5t-97.5 -10zM211 -237q15 15 28 32t24 38q-23 4 -37 19.5t-14 39.5
q0 27 19 44.5t49 17.5t50.5 -18.5t19.5 -54.5q0 -38 -20 -67.5t-42 -50.5h-77z" />
    <glyph glyph-name="uni0219" unicode="&#x219;" horiz-adv-x="492" 
d="M233 -10q-72 0 -120 14.5t-75 35.5l23 95q26 -21 70 -36t101 -15q95 0 95 58q0 19 -9.5 29.5t-26 17t-38 9.5t-45.5 7q-30 5 -59 13.5t-52 24.5t-37.5 42.5t-14.5 68.5q0 81 55.5 122t162.5 41q64 0 104.5 -12.5t59.5 -23.5l-27 -92q-17 12 -53 24.5t-81 12.5
q-42 0 -69 -12t-27 -41q0 -17 8.5 -26.5t23 -15t33 -8t39.5 -5.5q31 -5 64 -13t60.5 -25t45 -46t17.5 -76q0 -49 -19 -81t-50.5 -51.5t-73 -27.5t-85.5 -8zM166 -233q15 15 28 32t24 38q-23 4 -37 19.5t-14 39.5q0 27 19 44.5t49 17.5t50.5 -18.5t19.5 -54.5
q0 -38 -20 -67.5t-42 -50.5h-77z" />
    <glyph glyph-name="uni021A" unicode="&#x21a;" horiz-adv-x="603" 
d="M379 596v-596h-156v596h-195v99h547v-99h-196zM230 -233q15 15 28 32t24 38q-23 4 -37 19.5t-14 39.5q0 27 19 44.5t49 17.5t50.5 -18.5t19.5 -54.5q0 -38 -20 -67.5t-42 -50.5h-77z" />
    <glyph glyph-name="uni021B" unicode="&#x21b;" horiz-adv-x="410" 
d="M385 15q-17 -10 -44.5 -17.5t-71.5 -7.5q-96 0 -140.5 43.5t-44.5 130.5v249h-60v94h60v106h147v-106h142v-94h-142v-246q0 -41 17.5 -57.5t49.5 -16.5q22 0 39 6.5t28 12.5l20 -97v0zM152 -233q15 15 28 32t24 38q-23 4 -37 19.5t-14 39.5q0 27 19 44.5t49 17.5
t50.5 -18.5t19.5 -54.5q0 -38 -20 -67.5t-42 -50.5h-77z" />
    <glyph glyph-name="uni0237" unicode="&#x237;" horiz-adv-x="271" 
d="M220 49q0 -66 -16 -112t-45.5 -75t-72.5 -43t-97 -15l-22 102q28 1 48.5 7t33.5 20t19.5 37.5t6.5 59.5v477h145v-458z" />
    <glyph glyph-name="uni02BC" unicode="&#x2bc;" horiz-adv-x="246" 
d="M44 456q17 20 31.5 45t24.5 60q-27 9 -38 28.5t-11 39.5q0 30 20 51t54 21q33 0 55 -21.5t22 -61.5q0 -24 -7 -48t-18 -45.5t-24 -39t-25 -29.5h-84z" />
    <glyph glyph-name="circumflex" unicode="&#x2c6;" 
d="M227 637l-68 -71h-97l101 143h131l101 -143h-100z" />
    <glyph glyph-name="caron" unicode="&#x2c7;" 
d="M163 566l-101 143h100l68 -70l68 70h97l-101 -143h-131z" />
    <glyph glyph-name="breve" unicode="&#x2d8;" 
d="M227 555q-39 0 -68 12t-47.5 32t-28 46.5t-9.5 56.5h93q1 -32 17 -46t43 -14t42.5 14t16.5 46h93q0 -30 -9.5 -56.5t-28 -46.5t-47 -32t-67.5 -12z" />
    <glyph glyph-name="dotaccent" unicode="&#x2d9;" 
d="M226 565q-35 0 -59 20.5t-24 55.5q0 36 24 57t59 21q36 0 60.5 -21t24.5 -57q0 -35 -24.5 -55.5t-60.5 -20.5z" />
    <glyph glyph-name="ring" unicode="&#x2da;" 
d="M227 556q-49 0 -81.5 30t-32.5 77t32.5 76.5t81.5 29.5t81.5 -29.5t32.5 -76.5t-32.5 -77t-81.5 -30zM227 612q21 0 33.5 14t12.5 37q0 22 -12.5 36t-33.5 14t-33.5 -14t-12.5 -36q0 -23 12.5 -37t33.5 -14z" />
    <glyph glyph-name="ogonek" unicode="&#x2db;" 
d="M249 -185q-61 0 -95.5 23t-34.5 65q0 20 7.5 36t19.5 28t25.5 20t25.5 13h97q-20 -11 -38 -28.5t-18 -43.5q0 -34 39 -34q14 0 25 3t16 5l10 -74q-8 -5 -27.5 -9t-51.5 -4z" />
    <glyph glyph-name="tilde" unicode="&#x2dc;" horiz-adv-x="455" 
d="M59 572q-4 26 -0.5 50t15.5 42.5t33 29.5t51 11q24 0 42.5 -6.5t33.5 -14t28.5 -13.5t27.5 -6q17 0 24 9.5t7 33.5h74q4 -26 0.5 -50t-15.5 -42.5t-32.5 -29.5t-50.5 -11q-25 0 -43.5 6.5t-33.5 14l-28 14t-28 6.5q-17 0 -24 -10t-6 -34h-75z" />
    <glyph glyph-name="hungarumlaut" unicode="&#x2dd;" horiz-adv-x="453" 
d="M228 566l55 149h125l-84 -149h-96zM50 566l55 149h125l-83 -149h-97z" />
    <glyph glyph-name="acutecomb" unicode="&#x301;" horiz-adv-x="0" 
d="M-270 715h150l-106 -149h-103z" />
    <glyph glyph-name="uni0401" unicode="&#x401;" horiz-adv-x="571" 
d="M67 695h447v-99h-291v-187h240v-99h-240v-211h296v-99h-452v695zM415 739q-33 0 -55 20.5t-22 52.5q0 34 22 53.5t55 19.5q32 0 54.5 -19.5t22.5 -53.5q0 -32 -22.5 -52.5t-54.5 -20.5zM180 739q-32 0 -54 20.5t-22 52.5q0 34 22 53.5t54 19.5q33 0 55 -19.5t22 -53.5
q0 -32 -22 -52.5t-55 -20.5z" />
    <glyph glyph-name="uni0402" unicode="&#x402;" horiz-adv-x="817" 
d="M379 596v-190q23 13 56 23q39 11 87 11q60 0 108.5 -17.5t83 -51t53 -81.5t18.5 -109q0 -66 -20 -118t-57 -88t-88 -55t-113 -19l-18 113q74 0 109.5 44.5t35.5 120.5q0 72 -36 111.5t-107 39.5q-64 0 -112 -31v-299h-156v596h-195v99h547v-99h-196z" />
    <glyph glyph-name="uni0403" unicode="&#x403;" horiz-adv-x="522" 
d="M279 870h155l-109 -126h-110zM218 596v-596h-151v695h417v-99h-266z" />
    <glyph glyph-name="uni0404" unicode="&#x404;" horiz-adv-x="633" 
d="M593 40q-27 -19 -77 -34.5t-121 -15.5q-81 0 -146 24.5t-111.5 70t-71.5 112t-25 150.5t24 150.5t69.5 112t111 70t148.5 24.5q66 0 114 -12.5t74 -30.5l-19 -107q-29 17 -68 30t-89 13q-91 0 -141.5 -51t-60.5 -150h270v-99h-270q20 -200 205 -200q46 0 83 13t68 35
l33 -105v0z" />
    <glyph glyph-name="uni0405" unicode="&#x405;" horiz-adv-x="576" 
d="M270 -10q-46 0 -84 7t-67 17t-50 22t-33 23l16 107q14 -11 35.5 -24t48.5 -23.5t58.5 -17.5t65.5 -7q60 0 97.5 23.5t37.5 72.5q0 25 -10.5 41t-30 26.5t-47 17t-60.5 14.5q-37 9 -74 22t-66 36t-47.5 59t-18.5 92q0 54 20 93t55 64t83 37t104 12q75 0 126 -15.5
t73 -34.5l-13 -107q-31 23 -78 38t-104 15q-66 0 -96 -22.5t-30 -64.5q0 -23 10 -37.5t28.5 -25t46.5 -18t64 -14.5q37 -8 75 -20t69 -35.5t50 -60.5t19 -95q0 -64 -24.5 -106t-63.5 -66.5t-87.5 -34.5t-97.5 -10z" />
    <glyph glyph-name="uni0406" unicode="&#x406;" horiz-adv-x="286" 
d="M219 695v-695h-156v695h156z" />
    <glyph glyph-name="uni0407" unicode="&#x407;" horiz-adv-x="290" 
d="M250 749q-33 0 -54.5 20.5t-21.5 52.5q0 34 21.5 53.5t54.5 19.5q32 0 54.5 -19.5t22.5 -53.5q0 -32 -22.5 -52.5t-54.5 -20.5zM40 749q-33 0 -54.5 20.5t-21.5 52.5q0 34 21.5 53.5t54.5 19.5q32 0 54.5 -19.5t22.5 -53.5q0 -32 -22.5 -52.5t-54.5 -20.5zM223 695v-695
h-156v695h156z" />
    <glyph glyph-name="uni0408" unicode="&#x408;" horiz-adv-x="415" 
d="M349 695v-523q0 -40 -12.5 -73.5t-38.5 -57.5t-67 -37.5t-98 -13.5q-36 0 -65 5.5t-46 16.5l14 99q10 -3 26 -8.5t38 -5.5q51 0 72.5 21.5t21.5 66.5v510h155z" />
    <glyph glyph-name="uni0409" unicode="&#x409;" horiz-adv-x="1040" 
d="M256 196q-22 -111 -80.5 -158.5t-139.5 -39.5l-15 125q50 -5 75.5 22.5t36.5 81.5q13 61 18 179t7 289h467v-242h92q137 0 211 -52t74 -168q0 -61 -20.5 -105t-58 -72.5t-91 -42t-119.5 -13.5h-239v596h-191q-3 -132 -8 -230.5t-19 -169.5zM625 354v-255h88q63 0 97.5 30
t34.5 99q0 67 -32.5 96.5t-97.5 29.5h-90z" />
    <glyph glyph-name="uni040A" unicode="&#x40a;" horiz-adv-x="1073" 
d="M660 326v-227h89q63 0 97.5 26.5t34.5 88.5q0 60 -32.5 86t-97.5 26h-91zM504 326h-281v-326h-156v695h156v-269h281v269h156v-270h93q137 0 211 -49t74 -157q0 -57 -20.5 -98.5t-58 -68.5t-91 -39.5t-119.5 -12.5h-245v326z" />
    <glyph glyph-name="uni040B" unicode="&#x40b;" horiz-adv-x="814" 
d="M379 596v-193q26 15 64 26q40 11 92 11q51 0 93 -14t71 -43.5t45 -76t16 -110.5v-196h-152v200q0 71 -27.5 100.5t-78.5 29.5q-73 0 -123 -34v-296h-156v596h-195v99h547v-99h-196z" />
    <glyph glyph-name="uni040C" unicode="&#x40c;" horiz-adv-x="676" 
d="M487 0l-258 341l276 354h139l-256 -328l276 -367h-177zM223 695v-695h-156v695h156zM342 870h155l-109 -126h-110z" />
    <glyph glyph-name="uni040E" unicode="&#x40e;" horiz-adv-x="645" 
d="M349 727q-46 0 -80.5 12t-57 33t-33.5 49t-11 60h116q0 -43 17.5 -61t48.5 -18q29 0 46.5 18t17.5 61h117q0 -32 -11 -60t-33.5 -49t-56.5 -33t-80 -12zM188 -5q-17 0 -30.5 1.5t-19.5 3.5l-12 117q6 -2 19 -4.5t29 -2.5q36 0 60.5 11.5t41.5 33.5l-259 540h159l174 -380
l157 380h127l-219 -504q-22 -50 -44.5 -87t-49 -61t-59 -36t-74.5 -12z" />
    <glyph glyph-name="uni040F" unicode="&#x40f;" horiz-adv-x="728" 
d="M429 0l-10 -181h-110l-11 181h-230v695h151v-596h290v596h152v-695h-232z" />
    <glyph glyph-name="uni0410" unicode="&#x410;" horiz-adv-x="660" 
d="M313 563l-98 -304h194zM441 161h-257l-52 -161h-119l229 695h177l228 -695h-155z" />
    <glyph glyph-name="uni0411" unicode="&#x411;" horiz-adv-x="632" 
d="M218 334v-235h84q63 0 97.5 27.5t34.5 92.5q0 60 -32.5 87.5t-97.5 27.5h-86zM67 695h469v-99h-318v-163h88q137 0 211 -49.5t74 -159.5q0 -59 -20.5 -101.5t-58 -69.5t-91 -40t-119.5 -13h-235v695z" />
    <glyph glyph-name="uni0412" unicode="&#x412;" horiz-adv-x="627" 
d="M223 600v-197h58q53 0 84.5 24.5t31.5 80.5q0 53 -29 72.5t-86 19.5h-59zM223 313v-218h69q65 0 101 25t36 87q0 58 -33 82t-105 24h-68zM67 695h213q133 0 202.5 -39t69.5 -133q0 -72 -39.5 -109.5t-105.5 -51.5q88 -10 134 -48.5t46 -113.5q0 -55 -23 -93t-63.5 -62
t-96 -34.5t-120.5 -10.5h-217v695z" />
    <glyph glyph-name="uni0413" unicode="&#x413;" horiz-adv-x="522" 
d="M218 596v-596h-151v695h417v-99h-266z" />
    <glyph glyph-name="uni0414" unicode="&#x414;" horiz-adv-x="762" 
d="M256 238q-11 -45 -27 -79t-37 -60h308v497h-208q-6 -121 -14 -209.5t-22 -148.5zM616 0h-475l-21 -181h-110v280h49q26 20 46 56t34 94q17 72 26.5 181t11.5 265h474v-596h96v-280h-110z" />
    <glyph glyph-name="uni0415" unicode="&#x415;" horiz-adv-x="571" 
d="M67 695h447v-99h-291v-187h240v-99h-240v-211h296v-99h-452v695z" />
    <glyph glyph-name="uni0416" unicode="&#x416;" horiz-adv-x="958" 
d="M400 337l-216 -337h-168l234 363l-223 332h147l226 -340v340h155v-340l227 340h143l-219 -323l236 -372h-175l-212 336v-336h-155v337z" />
    <glyph glyph-name="uni0417" unicode="&#x417;" horiz-adv-x="575" 
d="M245 -10q-73 0 -126.5 16.5t-80.5 35.5l30 104q32 -21 74 -35t102 -14q63 0 100 25t37 84q0 56 -34 79t-106 23h-84v98h79q60 0 92 24.5t32 72.5q0 52 -29 73t-78 21t-91.5 -12t-70.5 -27l-37 98q28 17 79.5 32.5t119.5 15.5q123 0 190 -46.5t67 -139.5
q0 -34 -10.5 -59.5t-29.5 -44.5t-45 -31.5t-57 -19.5q78 -13 122.5 -53t44.5 -115q0 -55 -22.5 -94t-62 -63.5t-92.5 -36t-113 -11.5z" />
    <glyph glyph-name="uni0418" unicode="&#x418;" horiz-adv-x="757" 
d="M67 695h151v-504l336 504h136v-695h-151v502l-334 -502h-138v695z" />
    <glyph glyph-name="uni0419" unicode="&#x419;" horiz-adv-x="757" 
d="M379 727q-46 0 -81 12t-59 33t-36 49t-12 60h123q0 -44 17.5 -62t47.5 -18t47.5 18t17.5 62h123q0 -32 -12 -60t-36 -49t-59 -33t-81 -12zM67 695h151v-504l336 504h136v-695h-151v502l-334 -502h-138v695z" />
    <glyph glyph-name="uni041A" unicode="&#x41a;" horiz-adv-x="676" 
d="M223 695v-695h-156v695h156zM487 0l-258 341l276 354h139l-256 -328l276 -367h-177z" />
    <glyph glyph-name="uni041B" unicode="&#x41b;" horiz-adv-x="692" 
d="M256 196q-22 -111 -80.5 -158.5t-139.5 -39.5l-15 123q50 0 78 26t39 80q13 61 17.5 179t6.5 289h463v-695h-151v596h-191q-3 -132 -8 -230.5t-19 -169.5z" />
    <glyph glyph-name="uni041C" unicode="&#x41c;" horiz-adv-x="849" 
d="M199 534l-28 -534h-117l37 695h194l136 -424l143 424h194l37 -695h-156l-28 531l-151 -441h-116z" />
    <glyph glyph-name="uni041D" unicode="&#x41d;" horiz-adv-x="727" 
d="M504 296h-281v-296h-156v695h156v-299h281v299h156v-695h-156v296z" />
    <glyph glyph-name="uni041E" unicode="&#x41e;" horiz-adv-x="785" 
d="M392 -10q-74 0 -138 23t-111.5 67.5t-74.5 111t-27 153.5t27 154t74.5 112.5t111.5 69t138 23.5q73 0 137.5 -22.5t112 -67.5t75 -111t27.5 -153t-27.5 -154t-75 -113t-112 -69.5t-137.5 -23.5zM392 92q41 0 76 13.5t60.5 43.5t40 78.5t14.5 119.5q0 70 -14.5 119t-40 79
t-60.5 43.5t-76 13.5q-42 0 -76.5 -13.5t-60 -43.5t-39.5 -79t-14 -119q0 -71 14 -119.5t39.5 -78.5t60 -43.5t76.5 -13.5z" />
    <glyph glyph-name="uni041F" unicode="&#x41f;" horiz-adv-x="717" 
d="M499 596h-281v-596h-151v695h583v-695h-151v596z" />
    <glyph glyph-name="uni0420" unicode="&#x420;" horiz-adv-x="615" 
d="M223 596v-258h68q63 0 99 32t36 103q0 67 -33.5 95t-97.5 28h-72zM223 239v-239h-156v695h224q138 0 214 -53t76 -166q0 -62 -20.5 -106.5t-58.5 -73.5t-92 -43t-120 -14h-67z" />
    <glyph glyph-name="uni0421" unicode="&#x421;" horiz-adv-x="663" 
d="M397 -10q-79 0 -144.5 24.5t-112.5 70t-73 112t-26 150.5t25.5 150.5t71.5 112t111 70t145 24.5q66 0 115 -12t75 -30l-17 -118q-30 21 -70.5 37t-90.5 16q-100 0 -152 -64t-52 -186q0 -250 209 -250q46 0 82 11.5t67 33.5l33 -102q-27 -19 -76 -34.5t-120 -15.5z" />
    <glyph glyph-name="uni0422" unicode="&#x422;" horiz-adv-x="623" 
d="M379 596v-596h-156v596h-195v99h547v-99h-196z" />
    <glyph glyph-name="uni0423" unicode="&#x423;" horiz-adv-x="645" 
d="M188 -5q-17 0 -30.5 1.5t-19.5 3.5l-12 117q6 -2 19 -4.5t29 -2.5q36 0 60.5 11.5t41.5 33.5l-259 540h159l174 -380l157 380h127l-219 -504q-22 -50 -44.5 -87t-49 -61t-59 -36t-74.5 -12z" />
    <glyph glyph-name="uni0424" unicode="&#x424;" horiz-adv-x="840" 
d="M345 76q-66 2 -123 20t-98.5 52t-65.5 83.5t-24 114.5q0 66 24 115.5t65.5 83.5t98.5 52t123 21v85h148v-85q66 -3 123.5 -21t99.5 -52t66 -83.5t24 -115.5q0 -65 -24 -114.5t-66 -83.5t-99.5 -52t-123.5 -20v-86h-148v86zM654 346q0 47 -12 80.5t-34 54.5t-51.5 31.5
t-63.5 11.5v-355q34 1 63.5 11.5t51.5 32t34 54t12 79.5zM345 524q-34 -1 -63.5 -11.5t-51 -31.5t-33.5 -54.5t-12 -80.5t12 -80t33.5 -54t51 -31.5t63.5 -11.5v355z" />
    <glyph glyph-name="uni0425" unicode="&#x425;" horiz-adv-x="662" 
d="M312 265l-163 -265h-135l229 359l-214 336h170l155 -244l150 244h135l-215 -338l229 -357h-173z" />
    <glyph glyph-name="uni0426" unicode="&#x426;" horiz-adv-x="761" 
d="M636 -181l-21 181h-548v695h151v-596h282v596h150v-596h96v-280h-110z" />
    <glyph glyph-name="uni0427" unicode="&#x427;" horiz-adv-x="684" 
d="M466 0v298q-26 -17 -67.5 -32.5t-99.5 -15.5q-122 0 -184 62.5t-62 185.5v197h151v-196q0 -70 29 -106t100 -36q25 0 47.5 5t39.5 11.5t29 13t17 9.5v299h151v-695h-151z" />
    <glyph glyph-name="uni0428" unicode="&#x428;" horiz-adv-x="957" 
d="M67 695h151v-596h185v596h151v-596h186v596h150v-695h-823v695z" />
    <glyph glyph-name="uni0429" unicode="&#x429;" horiz-adv-x="1007" 
d="M882 -181l-21 181h-794v695h151v-596h189v596h150v-596h190v596h150v-596h95v-280h-110z" />
    <glyph glyph-name="uni042A" unicode="&#x42a;" horiz-adv-x="759" 
d="M343 354v-255h92q63 0 97.5 30t34.5 99q0 67 -32.5 96.5t-96.5 29.5h-95zM192 596h-163v99h314v-242h97q136 0 210 -52t74 -168q0 -61 -20.5 -105t-58 -72.5t-91 -42t-119.5 -13.5h-243v596z" />
    <glyph glyph-name="uni042B" unicode="&#x42b;" horiz-adv-x="878" 
d="M810 694v-694h-151v694h151zM218 354v-255h88q63 0 97.5 30t34.5 99q0 67 -32.5 96.5t-97.5 29.5h-90zM67 695h151v-242h92q137 0 211 -52t74 -168q0 -61 -20.5 -105t-58 -72.5t-91 -42t-119.5 -13.5h-239v695z" />
    <glyph glyph-name="uni042C" unicode="&#x42c;" horiz-adv-x="630" 
d="M218 354v-255h88q63 0 97.5 30t34.5 99q0 67 -32.5 96.5t-97.5 29.5h-90zM67 695h151v-242h92q137 0 211 -52t74 -168q0 -61 -20.5 -105t-58 -72.5t-91 -42t-119.5 -13.5h-239v695z" />
    <glyph glyph-name="uni042D" unicode="&#x42d;" horiz-adv-x="630" 
d="M232 -10q-66 0 -115.5 12.5t-75.5 30.5l19 107q30 -17 69.5 -30t90.5 -13q91 0 142.5 51t62.5 149h-260v99h261q-8 101 -56 151t-139 50q-46 0 -83 -13t-68 -35l-33 105q27 19 77 34.5t121 15.5q78 0 141.5 -24t108.5 -69t69.5 -110.5t24.5 -148.5q0 -85 -24.5 -152.5
t-70 -114t-112 -71t-150.5 -24.5z" />
    <glyph glyph-name="uni042E" unicode="&#x42e;" horiz-adv-x="1009" 
d="M631 -10q-66 0 -123.5 19.5t-101.5 58t-72 96t-35 133.5h-81v-297h-151v695h151v-299h82q8 74 36.5 131.5t72 96.5t100.5 59.5t122 20.5q70 0 131 -22.5t107 -67.5t72.5 -111t26.5 -153t-26.5 -154t-72.5 -113t-107 -69.5t-131 -23.5zM633 92q38 0 70.5 14t56 44.5
t36.5 79t13 117.5t-13.5 117.5t-37 79t-56 45t-70.5 14.5t-70.5 -14.5t-56 -45t-37 -79t-13.5 -117.5t13.5 -117.5t37 -79t56 -44.5t71.5 -14z" />
    <glyph glyph-name="uni042F" unicode="&#x42f;" horiz-adv-x="646" 
d="M427 330v266h-62q-69 0 -107 -33t-38 -102q0 -60 34.5 -95.5t105.5 -35.5h67zM427 231h-89l-150 -231h-167l180 263q-66 26 -101 76.5t-35 116.5q0 119 80 179t218 60h215v-695h-151v231z" />
    <glyph glyph-name="uni0430" unicode="&#x430;" horiz-adv-x="538" 
d="M245 79q36 0 57.5 17.5t33.5 43.5v92h-40q-68 0 -94.5 -21t-26.5 -61q0 -36 19 -53.5t51 -17.5zM356 0q-5 13 -8.5 30.5t-5.5 37.5q-9 -14 -22 -28t-30 -25t-40 -18t-52 -7q-36 0 -67 9t-53 27.5t-34.5 46.5t-12.5 65q0 74 64 119.5t198 45.5h43v28q0 45 -22 67.5
t-82 22.5q-44 0 -76 -14.5t-63 -36.5l-42 101q32 19 80.5 32.5t121.5 13.5q110 0 169.5 -42.5t59.5 -138.5v-255q0 -17 1.5 -42.5t4.5 -38.5h-132z" />
    <glyph glyph-name="uni0431" unicode="&#x431;" horiz-adv-x="608" 
d="M308 -10q-57 0 -106 19t-85 58t-56 99.5t-20 143.5q0 56 5 107.5t18 96t35.5 81t58.5 61.5q48 35 107.5 46.5t127.5 13.5q27 1 45 3.5t31 5t22.5 6t19.5 8.5l15 -112q-20 -14 -49.5 -19t-72.5 -8q-66 -5 -109.5 -12.5t-72.5 -33.5q-35 -25 -49 -73.5t-18 -116.5
q23 64 72 97t121 33q51 0 92 -17.5t70 -49.5t45 -77.5t16 -100.5q0 -62 -20.5 -110t-55.5 -81t-83.5 -50.5t-103.5 -17.5zM305 85q51 0 83 39t32 120q0 80 -31.5 119t-81.5 39q-49 0 -82 -39t-33 -119q0 -82 31.5 -120.5t81.5 -38.5z" />
    <glyph glyph-name="uni0432" unicode="&#x432;" horiz-adv-x="543" 
d="M202 427v-131h53q39 0 61 16.5t22 45.5q0 37 -20 53t-59 16h-57zM202 223v-143h59q42 0 66.5 16t24.5 57q0 38 -22.5 54t-68.5 16h-59zM61 507h226q97 0 144.5 -31.5t47.5 -99.5q0 -46 -25.5 -73.5t-68.5 -38.5q56 -9 85.5 -37.5t29.5 -81.5q0 -73 -57.5 -109t-157.5 -36
h-224v507z" />
    <glyph glyph-name="uni0433" unicode="&#x433;" horiz-adv-x="426" 
d="M205 414v-414h-144v507h332v-93h-188z" />
    <glyph glyph-name="uni0434" unicode="&#x434;" horiz-adv-x="625" 
d="M205 126q-8 -17 -17 -31h194v319h-131q-4 -103 -14.5 -173t-31.5 -115zM477 0h-336l-22 -159h-105v254h39q31 25 47 71q18 51 26.5 134t13.5 207h388v-412h76v-254h-105z" />
    <glyph glyph-name="uni0435" unicode="&#x435;" horiz-adv-x="545" 
d="M286 431q-41 0 -67.5 -31.5t-34.5 -92.5h188q2 64 -21.5 94t-64.5 30zM499 41q-23 -17 -70 -34t-115 -17q-69 0 -121 18.5t-86.5 53t-52 83.5t-17.5 109q0 61 18 109.5t51 82.5t78.5 52.5t101.5 18.5t101 -18t74.5 -54t41 -90t-0.5 -125h-320q7 -72 44.5 -106.5
t103.5 -34.5q42 0 77.5 12t63.5 29z" />
    <glyph glyph-name="uni0436" unicode="&#x436;" horiz-adv-x="834" 
d="M342 246l-158 -246h-159l177 260l-167 247h140l167 -257v257h146v-254l173 254h133l-164 -232l179 -275h-163l-158 250v-250h-146v246z" />
    <glyph glyph-name="uni0437" unicode="&#x437;" horiz-adv-x="503" 
d="M222 -10q-68 0 -113.5 14t-64.5 29l34 96q23 -17 58.5 -30t80.5 -13q44 0 70 16t26 53q0 30 -24.5 45t-80.5 15h-71v85h69q91 0 91 58q0 33 -23.5 48t-55.5 15q-52 0 -85.5 -14t-57.5 -29l-24 97q23 16 68 29t114 13q100 0 154 -34t54 -98q0 -51 -29.5 -79t-85.5 -41
q66 -8 100 -36.5t34 -83.5q0 -39 -18 -68t-50 -48.5t-75.5 -29t-94.5 -9.5z" />
    <glyph glyph-name="uni0438" unicode="&#x438;" horiz-adv-x="622" 
d="M61 507h143v-337l227 337h130v-507h-143v337l-226 -337h-131v507z" />
    <glyph glyph-name="uni0439" unicode="&#x439;" horiz-adv-x="622" 
d="M313 550q-42 0 -73.5 11t-52.5 29.5t-31.5 44t-10.5 55.5h116q0 -33 11.5 -50.5t40.5 -17.5t40.5 17.5t11.5 50.5h115q0 -30 -10.5 -55.5t-31.5 -44t-52 -29.5t-73 -11zM61 507h143v-337l227 337h130v-507h-143v337l-226 -337h-131v507z" />
    <glyph glyph-name="uni043A" unicode="&#x43a;" horiz-adv-x="564" 
d="M207 263v-263h-146v507h146v-242l198 242h130l-181 -223l195 -284h-165z" />
    <glyph glyph-name="uni043B" unicode="&#x43b;" horiz-adv-x="580" 
d="M227 134q-22 -78 -64 -110.5t-115 -24.5l-20 115q37 -6 58.5 12t32.5 66t15 124.5t4 190.5h381v-507h-146v414h-120q-1 -88 -6.5 -158t-19.5 -122z" />
    <glyph glyph-name="uni043C" unicode="&#x43c;" horiz-adv-x="717" 
d="M181 379l-22 -379h-108l30 507h192l83 -286l87 286h191l32 -507h-145l-23 381l-110 -333h-99z" />
    <glyph glyph-name="uni043D" unicode="&#x43d;" horiz-adv-x="604" 
d="M398 213h-191v-213h-146v507h146v-203h191v203h145v-507h-145v213z" />
    <glyph glyph-name="uni043E" unicode="&#x43e;" horiz-adv-x="612" 
d="M305 -10q-56 0 -105 17.5t-85 51t-57 82.5t-21 113t21 113t57 82.5t85 50.5t105 17t105.5 -17t86 -50.5t57.5 -82.5t21 -113t-21 -113t-57.5 -82.5t-85.5 -51t-106 -17.5zM305 85q52 0 86.5 38.5t34.5 130.5q0 91 -34.5 129.5t-86.5 38.5q-26 0 -47.5 -9t-37.5 -29
t-25 -52t-9 -78t9 -78t25 -52.5t37.5 -29.5t47.5 -9z" />
    <glyph glyph-name="uni043F" unicode="&#x43f;" horiz-adv-x="593" 
d="M386 414h-179v-414h-146v507h471v-507h-146v414z" />
    <glyph glyph-name="uni0440" unicode="&#x440;" horiz-adv-x="620" 
d="M322 85q51 0 83.5 40.5t32.5 128.5q0 86 -33 127t-83 41q-51 0 -85.5 -40.5t-34.5 -127.5q0 -44 9 -76t25.5 -52.5t38 -30.5t47.5 -10zM364 -10q-56 0 -95.5 23.5t-65.5 64.5v-259h-146v688h131l11 -84q25 44 66.5 69t100.5 25q44 0 84 -16t70.5 -48.5t48.5 -82
t18 -116.5t-18 -116.5t-49 -82.5t-71 -49t-85 -16z" />
    <glyph glyph-name="uni0441" unicode="&#x441;" horiz-adv-x="497" 
d="M304 -10q-57 0 -106 17t-84.5 50t-56 81t-20.5 111q0 62 21 112t58 84.5t88.5 53t111.5 18.5q52 0 85 -7.5t53 -17.5l-32 -108q-24 17 -46.5 27t-60.5 10q-26 0 -49 -10.5t-40.5 -31t-28 -51.5t-10.5 -73q0 -85 37.5 -127t103.5 -42q29 0 56.5 10.5t47.5 26.5l30 -84
q-19 -17 -58.5 -33t-99.5 -16z" />
    <glyph glyph-name="uni0442" unicode="&#x442;" horiz-adv-x="492" 
d="M319 406v-406h-147v406h-141v101h430v-101h-142z" />
    <glyph glyph-name="uni0443" unicode="&#x443;" horiz-adv-x="568" 
d="M144 -188q-42 0 -65.5 5t-38.5 13l17 103q7 -4 27 -11.5t52 -7.5q52 0 80 55l-202 538h149l135 -380l135 380h121l-184 -489q-20 -54 -42 -93t-49 -64t-60 -37t-75 -12z" />
    <glyph glyph-name="uni0444" unicode="&#x444;" horiz-adv-x="773" 
d="M316 -187v180q-61 4 -112 22.5t-88 51t-58 79t-21 106.5q0 61 21 107t58 78.5t88 50.5t112 23v202h143v-202q60 -5 111 -23.5t88 -51t57.5 -78.5t20.5 -106q0 -61 -21 -107.5t-57.5 -78.5t-87.5 -50.5t-111 -22.5v-180h-143zM182 252q0 -78 37.5 -121t96.5 -48v338
q-58 -6 -96 -48.5t-38 -120.5zM591 252q0 77 -37 120t-95 49v-338q57 6 94.5 49.5t37.5 119.5z" />
    <glyph glyph-name="uni0445" unicode="&#x445;" horiz-adv-x="549" 
d="M259 179l-117 -179h-127l176 262l-162 245h162l103 -166l106 166h128l-166 -250l172 -257h-162z" />
    <glyph glyph-name="uni0446" unicode="&#x446;" horiz-adv-x="638" 
d="M511 -159l-22 159h-428v507h146v-414h187v414h146v-414h77v-252h-106z" />
    <glyph glyph-name="uni0447" unicode="&#x447;" horiz-adv-x="579" 
d="M371 0v212q-7 -6 -19 -14.5t-29 -16t-40 -12.5t-52 -5q-88 0 -134.5 46.5t-46.5 142.5v154h146v-156q0 -46 21 -65.5t66 -19.5q19 0 34.5 4t26.5 9t17.5 10t9.5 8v210h147v-507h-147z" />
    <glyph glyph-name="uni0448" unicode="&#x448;" horiz-adv-x="834" 
d="M61 507h146v-414h137v414h146v-414h138v414h145v-507h-712v507z" />
    <glyph glyph-name="uni0449" unicode="&#x449;" horiz-adv-x="865" 
d="M738 -159l-22 159h-655v507h146v-414h134v414h146v-414h134v414h146v-414h76v-252h-105z" />
    <glyph glyph-name="uni044A" unicode="&#x44a;" horiz-adv-x="634" 
d="M303 264v-179h54q45 0 71 20.5t26 68.5t-24.5 69t-69.5 21h-57zM157 414h-130v93h276v-158h74q107 0 165.5 -43t58.5 -128q0 -44 -16.5 -77t-46.5 -55.5t-71.5 -34t-90.5 -11.5h-219v414z" />
    <glyph glyph-name="uni044B" unicode="&#x44b;" horiz-adv-x="762" 
d="M701 0h-145v507h145v-507zM207 264v-179h52q44 0 70.5 20.5t26.5 68.5t-24.5 69t-69.5 21h-55zM61 507h146v-158h72q106 0 165 -43t59 -128q0 -44 -17 -77t-47 -55.5t-71.5 -34t-90.5 -11.5h-216v507z" />
    <glyph glyph-name="uni044C" unicode="&#x44c;" horiz-adv-x="537" 
d="M205 264v-179h55q44 0 70.5 20.5t26.5 68.5t-24.5 69t-69.5 21h-58zM60 507h145v-158h75q106 0 165 -43t59 -128q0 -44 -16.5 -77t-46.5 -55.5t-71.5 -34t-90.5 -11.5h-219v507z" />
    <glyph glyph-name="uni044D" unicode="&#x44d;" horiz-adv-x="500" 
d="M186 -10q-54 0 -91 10t-63 24l28 105q22 -15 48.5 -27.5t59.5 -12.5q63 0 101 31t46 96h-179v85h177q-10 60 -45.5 88.5t-92.5 28.5q-35 0 -62 -10.5t-49 -26.5l-26 91q22 17 60.5 31t96.5 14q61 0 110.5 -18t84.5 -51.5t54 -82.5t19 -112q0 -62 -19.5 -111t-55.5 -83
t-87.5 -51.5t-114.5 -17.5z" />
    <glyph glyph-name="uni044E" unicode="&#x44e;" horiz-adv-x="809" 
d="M517 -10q-48 0 -91 14.5t-76 42.5t-54.5 69t-27.5 94h-61v-210h-146v507h146v-204h61q7 52 29 92t55 67t75 41t90 14q55 0 102 -17t81.5 -50.5t54.5 -82.5t20 -113t-20 -113t-54.5 -82.5t-81.5 -51t-102 -17.5zM517 93q49 0 78.5 40t29.5 121t-29.5 120.5t-78.5 39.5
q-48 0 -77 -39.5t-29 -120.5t29 -121t77 -40z" />
    <glyph glyph-name="uni044F" unicode="&#x44f;" horiz-adv-x="546" 
d="M339 242v180h-41q-42 0 -69.5 -21t-27.5 -66t27 -69t80 -24h31zM339 159h-56l-106 -159h-152l133 191q-45 15 -74.5 48.5t-29.5 87.5q0 86 61.5 133t173.5 47h196v-507h-146v159z" />
    <glyph glyph-name="uni0451" unicode="&#x451;" horiz-adv-x="545" 
d="M286 431q-41 0 -67.5 -31.5t-34.5 -92.5h188q2 64 -21.5 94t-64.5 30zM499 41q-23 -17 -70 -34t-115 -17q-69 0 -121 18.5t-86.5 53t-52 83.5t-17.5 109q0 61 18 109.5t51 82.5t78.5 52.5t101.5 18.5t101 -18t74.5 -54t41 -90t-0.5 -125h-320q7 -72 44.5 -106.5
t103.5 -34.5q42 0 77.5 12t63.5 29zM405 565q-33 0 -54.5 20t-21.5 53q0 34 21.5 53.5t54.5 19.5q32 0 54.5 -19.5t22.5 -53.5q0 -33 -22.5 -53t-54.5 -20zM183 565q-32 0 -54 20t-22 53q0 34 22 53.5t54 19.5q33 0 55.5 -19.5t22.5 -53.5q0 -33 -22.5 -53t-55.5 -20z" />
    <glyph glyph-name="uni0452" unicode="&#x452;" horiz-adv-x="602" 
d="M547 49q0 -66 -16 -112t-45.5 -75t-72.5 -43t-97 -15l-22 102q28 1 48.5 7t33.5 20t19.5 37.5t6.5 59.5v309q0 42 -22.5 58t-57.5 16q-43 0 -70.5 -19t-44.5 -48v-346h-146v553h-66v77h66v65h146v-65h123v-77h-123v-117h2q22 35 63 58t103 23q78 0 125 -40.5t47 -125.5
v-302v0z" />
    <glyph glyph-name="uni0453" unicode="&#x453;" horiz-adv-x="426" 
d="M205 414v-414h-144v507h332v-93h-188zM242 715h150l-106 -149h-103z" />
    <glyph glyph-name="uni0454" unicode="&#x454;" horiz-adv-x="497" 
d="M453 34q-22 -17 -59 -30.5t-93 -13.5q-61 0 -109.5 18t-83 51.5t-53 82.5t-18.5 112q0 62 19 111t53.5 82.5t84 51.5t110.5 18q54 0 92 -10.5t59 -25.5l-26 -103q-22 15 -48 27.5t-59 12.5q-114 0 -132 -117h178v-85h-179q15 -127 132 -127q32 0 59 10.5t49 26.5l24 -92
v0z" />
    <glyph glyph-name="uni0455" unicode="&#x455;" horiz-adv-x="492" 
d="M233 -10q-72 0 -120 14.5t-75 35.5l23 95q26 -21 70 -36t101 -15q95 0 95 58q0 19 -9.5 29.5t-26 17t-38 9.5t-45.5 7q-30 5 -59 13.5t-52 24.5t-37.5 42.5t-14.5 68.5q0 81 55.5 122t162.5 41q64 0 104.5 -12.5t59.5 -23.5l-27 -92q-17 12 -53 24.5t-81 12.5
q-42 0 -69 -12t-27 -41q0 -17 8.5 -26.5t23 -15t33 -8t39.5 -5.5q31 -5 64 -13t60.5 -25t45 -46t17.5 -76q0 -49 -19 -81t-50.5 -51.5t-73 -27.5t-85.5 -8z" />
    <glyph glyph-name="uni0456" unicode="&#x456;" horiz-adv-x="268" 
d="M134 565q-36 0 -60.5 21t-24.5 56t24.5 56.5t60.5 21.5q35 0 60 -21.5t25 -56.5t-25 -56t-60 -21zM207 507v-507h-146v507h146z" />
    <glyph glyph-name="uni0457" unicode="&#x457;" horiz-adv-x="268" 
d="M230 565q-33 0 -54.5 20t-21.5 53q0 34 21.5 53.5t54.5 19.5q32 0 54.5 -19.5t22.5 -53.5q0 -33 -22.5 -53t-54.5 -20zM42 565q-32 0 -54 20t-22 53q0 34 22 53.5t54 19.5q33 0 55 -19.5t22 -53.5q0 -33 -22 -53t-55 -20zM207 507v-507h-146v507h146z" />
    <glyph glyph-name="uni0458" unicode="&#x458;" horiz-adv-x="267" 
d="M132 565q-36 0 -60 21t-24 56t24 56.5t60 21.5t60.5 -21.5t24.5 -56.5t-24.5 -56t-60.5 -21zM206 49q0 -66 -16 -112t-45.5 -75t-72.5 -43t-97 -15l-22 102q28 1 48.5 7t33.5 20t19.5 37.5t6.5 59.5v477h145v-458z" />
    <glyph glyph-name="uni0459" unicode="&#x459;" horiz-adv-x="860" 
d="M227 134q-22 -78 -64 -110.5t-115 -24.5l-20 115q37 -6 58.5 12t32.5 66t15 124.5t4 190.5h381v-158h84q106 0 165 -43t59 -128q0 -44 -17 -77t-47 -55.5t-71.5 -34t-90.5 -11.5h-228v414h-120q-1 -88 -6.5 -158t-19.5 -122zM589 93q41 0 65.5 18.5t24.5 62.5t-22.5 63
t-64.5 19h-73v-163h70z" />
    <glyph glyph-name="uni045A" unicode="&#x45a;" horiz-adv-x="876" 
d="M398 233h-191v-233h-146v507h146v-183h191v183h145v-182h76q106 0 165 -40.5t59 -118.5q0 -41 -16.5 -72t-46.5 -52t-71.5 -31.5t-90.5 -10.5h-220v233zM543 232v-139h63q40 0 65 15.5t25 53.5t-23 54t-65 16h-65z" />
    <glyph glyph-name="uni045B" unicode="&#x45b;" horiz-adv-x="607" 
d="M212 0h-146v556h-69v74h69v95h146v-95h120v-74h-120v-119h2q22 35 63 57.5t103 22.5q78 0 125 -40.5t47 -125.5v-351h-145v339q0 42 -21.5 58t-58.5 16q-43 0 -70.5 -19t-44.5 -48v-346z" />
    <glyph glyph-name="uni045C" unicode="&#x45c;" horiz-adv-x="564" 
d="M207 263v-263h-146v507h146v-242l198 242h130l-181 -223l195 -284h-165zM301 715h150l-106 -149h-103z" />
    <glyph glyph-name="uni045E" unicode="&#x45e;" horiz-adv-x="568" 
d="M298 550q-42 0 -73.5 11t-52.5 29.5t-31 44t-10 55.5h115q0 -64 52 -64q24 0 38 15.5t14 48.5h114q0 -30 -10.5 -55.5t-31 -44t-51.5 -29.5t-73 -11zM144 -188q-42 0 -65.5 5t-38.5 13l17 103q7 -4 27 -11.5t52 -7.5q52 0 80 55l-202 538h149l135 -380l135 380h121
l-184 -489q-20 -54 -42 -93t-49 -64t-60 -37t-75 -12z" />
    <glyph glyph-name="uni045F" unicode="&#x45f;" horiz-adv-x="617" 
d="M364 0l-12 -159h-106l-12 159h-173v507h146v-414h187v414h146v-507h-176z" />
    <glyph glyph-name="uni0490" unicode="&#x490;" horiz-adv-x="524" 
d="M218 596v-596h-151v695h293l12 174h114v-273h-268z" />
    <glyph glyph-name="uni0491" unicode="&#x491;" horiz-adv-x="426" 
d="M205 414v-414h-144v507h211l16 164h105v-257h-188z" />
    <glyph glyph-name="uni0492" unicode="&#x492;" horiz-adv-x="593" 
d="M31 399h87v296h417v-99h-266v-197h163v-91h-163v-308h-151v308h-87v91z" />
    <glyph glyph-name="uni0493" unicode="&#x493;" horiz-adv-x="474" 
d="M23 291h68v216h332v-93h-188v-123h126v-88h-126v-203h-144v203h-68v88z" />
    <glyph glyph-name="uni049A" unicode="&#x49a;" horiz-adv-x="716" 
d="M487 0l-258 341l276 354h139l-256 -328l186 -247h108v-301h-110l-16 181h-69zM223 695v-695h-156v695h156z" />
    <glyph glyph-name="uni049B" unicode="&#x49b;" horiz-adv-x="592" 
d="M207 263v-263h-146v507h146v-242l198 242h130l-181 -223l118 -172h99v-271h-106l-17 159h-64z" />
    <glyph glyph-name="uni04A2" unicode="&#x4a2;" horiz-adv-x="772" 
d="M504 296h-281v-296h-156v695h156v-299h281v299h156v-575h97v-301h-110l-16 181h-127v296z" />
    <glyph glyph-name="uni04A3" unicode="&#x4a3;" horiz-adv-x="639" 
d="M398 213h-191v-213h-146v507h146v-203h191v203h145v-395h75v-271h-106l-17 159h-97v213z" />
    <glyph glyph-name="uni04AE" unicode="&#x4ae;" horiz-adv-x="649" 
d="M247 0v284l-234 411h166l163 -298l166 298h128l-233 -411v-284h-156z" />
    <glyph glyph-name="uni04AF" unicode="&#x4af;" horiz-adv-x="558" 
d="M204 -187v191l-190 503h149l132 -365l132 365h117l-195 -512v-182h-145z" />
    <glyph glyph-name="uni04B0" unicode="&#x4b0;" horiz-adv-x="649" 
d="M247 0v214h-150v91h138l-222 390h166l163 -298l166 298h128l-221 -390h138v-91h-150v-214h-156z" />
    <glyph glyph-name="uni04B1" unicode="&#x4b1;" horiz-adv-x="558" 
d="M204 -187v101h-120v86h120v4l-190 503h149l132 -365l132 365h117l-193 -507h118v-86h-120v-101h-145z" />
    <glyph glyph-name="uni04BA" unicode="&#x4ba;" horiz-adv-x="694" 
d="M228.028 695v-297.981q25.999 16.999 67.4961 32.498t99.4941 15.499q121.992 0 183.988 -62.4961q61.9961 -62.4971 61.9961 -185.489v-196.988h-150.99v195.988q0 69.9961 -28.998 105.994q-28.999 35.9971 -99.9941 35.9971q-24.999 0 -47.4971 -4.99902
q-22.499 -5 -39.498 -11.5q-16.999 -6.49902 -28.998 -12.999q-11.999 -6.49902 -16.999 -9.49902v-298.982h-150.99v694.958h150.99z" />
    <glyph glyph-name="uni04BB" unicode="&#x4bb;" horiz-adv-x="604" 
d="M207 0h-146v725h146v-288h2q22 35 63 57.5t103 22.5q78 0 125 -40.5t47 -125.5v-351h-145v339q0 42 -21.5 58t-58.5 16q-43 0 -70.5 -19t-44.5 -48v-346z" />
    <glyph glyph-name="uni04D8" unicode="&#x4d8;" horiz-adv-x="730" 
d="M355 -11q-152 0 -233 85t-81 264v60h490q-9 96 -59 147.5t-159 51.5q-65 0 -110 -16.5t-77 -35.5l-35 106q14 8 35 17.5t50 17.5t66 13t84 5q88 0 156 -25t114 -71.5t69.5 -112.5t23.5 -148t-22.5 -148.5t-65.5 -113t-105 -71.5t-141 -25zM356 92q84 0 125.5 53.5
t49.5 154.5h-343q4 -112 43.5 -160t124.5 -48z" />
    <glyph glyph-name="uni04D9" unicode="&#x4d9;" horiz-adv-x="540" 
d="M257.018 72.0264q40.9971 0 67.4961 31.498q26.498 31.498 34.498 92.4941h-187.989q-2 -63.9961 21.499 -93.9941q23.498 -29.998 64.4961 -29.998zM44.0303 462.003q22.999 16.999 69.9961 33.9971q46.9971 16.999 114.993 16.999q68.9951 0 120.992 -18.498
q51.9971 -18.499 86.4951 -52.9971q34.4971 -34.498 51.9961 -83.4951t17.499 -108.993q0 -60.9961 -17.999 -109.493q-17.998 -48.4971 -50.9961 -82.4951t-78.4951 -52.4971q-45.498 -18.499 -101.494 -18.499q-55.9971 0 -100.994 17.999t-74.4951 53.9971
t-40.998 89.9941q-11.499 53.9971 0.5 124.992h319.98q-6.99902 71.9961 -44.4971 106.494t-103.493 34.498q-41.998 0 -77.4961 -12q-35.4971 -11.999 -63.4961 -28.998z" />
    <glyph glyph-name="uni04E8" unicode="&#x4e8;" horiz-adv-x="785" 
d="M392 -10q-74 0 -138 22.5t-111.5 67t-74.5 111t-27 154.5t27.5 155.5t74.5 112.5t111 68t138 23q73 0 137 -23t112 -67.5t75.5 -110.5t27.5 -153q0 -86 -27.5 -153t-75 -113t-112 -70t-137.5 -24zM392 602q-38 0 -70 -11.5t-57 -35.5t-41 -62.5t-22 -92.5h380
q-5 54 -21.5 92.5t-41.5 62.5t-57.5 35.5t-69.5 11.5zM392 92q38 0 70.5 11.5t58 36.5t41.5 65t21 96h-381q5 -56 21 -96t41 -65t57.5 -36.5t70.5 -11.5z" />
    <glyph glyph-name="uni04E9" unicode="&#x4e9;" horiz-adv-x="605" 
d="M301 -10q-56 0 -105 17.5t-85 51t-57 82.5t-21 113t21 113t57 82.5t85 50.5t105 17q57 0 106 -17t85.5 -50.5t57.5 -82.5t21 -113t-21 -113t-57.5 -82.5t-85.5 -51t-106 -17.5zM301 422q-45 0 -79 -29t-43 -96h246q-9 67 -43 96t-81 29zM301 85q48 0 82.5 31t42.5 103
h-248q8 -72 42 -103t81 -31z" />
    <glyph glyph-name="Wgrave" unicode="&#x1e80;" horiz-adv-x="943" 
d="M16 695h154l112 -535l135 535h143l135 -534l114 534h118l-149 -695h-185l-123 490l-125 -490h-179zM439 744l-110 126h162l61 -126h-113z" />
    <glyph glyph-name="wgrave" unicode="&#x1e81;" horiz-adv-x="768" 
d="M17 507h139l78 -374l94 374h134l92 -377l79 377h118l-112 -507h-172l-82 349l-83 -349h-172zM343 566l-106 149h154l57 -149h-105z" />
    <glyph glyph-name="Wacute" unicode="&#x1e82;" horiz-adv-x="943" 
d="M16 695h154l112 -535l135 535h143l135 -534l114 534h118l-149 -695h-185l-123 490l-125 -490h-179zM492 870h155l-109 -126h-110z" />
    <glyph glyph-name="wacute" unicode="&#x1e83;" horiz-adv-x="768" 
d="M17 507h139l78 -374l94 374h134l92 -377l79 377h118l-112 -507h-172l-82 349l-83 -349h-172zM393 715h150l-106 -149h-103z" />
    <glyph glyph-name="Wdieresis" unicode="&#x1e84;" horiz-adv-x="943" 
d="M16 695h154l112 -535l135 535h143l135 -534l114 534h118l-149 -695h-185l-123 490l-125 -490h-179zM606 739q-33 0 -55 20.5t-22 52.5q0 34 22 53.5t55 19.5q32 0 54.5 -19.5t22.5 -53.5q0 -32 -22.5 -52.5t-54.5 -20.5zM371 739q-32 0 -54 20.5t-22 52.5q0 34 22 53.5
t54 19.5q33 0 55 -19.5t22 -53.5q0 -32 -22 -52.5t-55 -20.5z" />
    <glyph glyph-name="wdieresis" unicode="&#x1e85;" horiz-adv-x="768" 
d="M17 507h139l78 -374l94 374h134l92 -377l79 377h118l-112 -507h-172l-82 349l-83 -349h-172zM503 565q-33 0 -54.5 20t-21.5 53q0 34 21.5 53.5t54.5 19.5q32 0 54.5 -19.5t22.5 -53.5q0 -33 -22.5 -53t-54.5 -20zM281 565q-32 0 -54 20t-22 53q0 34 22 53.5t54 19.5
q33 0 55.5 -19.5t22.5 -53.5q0 -33 -22.5 -53t-55.5 -20z" />
    <glyph glyph-name="Ygrave" unicode="&#x1ef2;" horiz-adv-x="649" 
d="M247 0v284l-234 411h166l163 -298l166 298h128l-233 -411v-284h-156zM291 744l-110 126h162l61 -126h-113z" />
    <glyph glyph-name="ygrave" unicode="&#x1ef3;" horiz-adv-x="568" 
d="M144 -188q-42 0 -65.5 5t-38.5 13l17 103q7 -4 27 -11.5t52 -7.5q52 0 80 55l-202 538h149l135 -380l135 380h121l-184 -489q-20 -54 -42 -93t-49 -64t-60 -37t-75 -12zM243 566l-106 149h154l57 -149h-105z" />
    <glyph glyph-name="uni2000" unicode="&#x2000;" horiz-adv-x="545" 
 />
    <glyph glyph-name="uni2001" unicode="&#x2001;" horiz-adv-x="904" 
 />
    <glyph glyph-name="uni2002" unicode="&#x2002;" horiz-adv-x="545" 
 />
    <glyph glyph-name="uni2003" unicode="&#x2003;" horiz-adv-x="904" 
 />
    <glyph glyph-name="uni2004" unicode="&#x2004;" horiz-adv-x="301" 
 />
    <glyph glyph-name="uni2005" unicode="&#x2005;" horiz-adv-x="226" 
 />
    <glyph glyph-name="uni2006" unicode="&#x2006;" horiz-adv-x="151" 
 />
    <glyph glyph-name="uni2007" unicode="&#x2007;" horiz-adv-x="572" 
 />
    <glyph glyph-name="uni2008" unicode="&#x2008;" horiz-adv-x="255" 
 />
    <glyph glyph-name="uni2009" unicode="&#x2009;" horiz-adv-x="181" 
 />
    <glyph glyph-name="uni200A" unicode="&#x200a;" horiz-adv-x="91" 
 />
    <glyph glyph-name="uni200B" unicode="&#x200b;" horiz-adv-x="0" 
 />
    <glyph glyph-name="endash" unicode="&#x2013;" horiz-adv-x="545" 
d="M48 340h449v-91h-449v91z" />
    <glyph glyph-name="emdash" unicode="&#x2014;" horiz-adv-x="904" 
d="M48 340h808v-91h-808v91z" />
    <glyph glyph-name="quoteleft" unicode="&#x2018;" horiz-adv-x="246" 
d="M121 456q-33 0 -55 21.5t-22 61.5q0 24 7 48t18 45.5t24 39t25 29.5h84q-17 -20 -31.5 -45t-24.5 -60q28 -9 38.5 -28.5t10.5 -39.5q0 -30 -20 -51t-54 -21z" />
    <glyph glyph-name="quoteright" unicode="&#x2019;" horiz-adv-x="246" 
d="M44 456q17 20 31.5 45t24.5 60q-27 9 -38 28.5t-11 39.5q0 30 20 51t54 21q33 0 55 -21.5t22 -61.5q0 -24 -7 -48t-18 -45.5t-24 -39t-25 -29.5h-84z" />
    <glyph glyph-name="quotesinglbase" unicode="&#x201a;" horiz-adv-x="246" 
d="M44 -80q17 20 31.5 45t24.5 60q-28 9 -38.5 28.5t-10.5 39.5q0 30 20 51t54 21q33 0 55 -21.5t22 -61.5q0 -24 -7 -48t-18 -45.5t-24 -39t-25 -29.5h-84z" />
    <glyph glyph-name="quotedblleft" unicode="&#x201c;" horiz-adv-x="442" 
d="M121 456q-33 0 -55 21.5t-22 61.5q0 24 7 48t18 45.5t24 39t25 29.5h84q-17 -20 -31.5 -45t-24.5 -60q28 -9 38.5 -28.5t10.5 -39.5q0 -30 -20 -51t-54 -21zM317 456q-33 0 -55 21.5t-22 61.5q0 24 7 48t18 45.5t24 39t25 29.5h84q-17 -20 -31.5 -45t-24.5 -60
q28 -9 38.5 -28.5t10.5 -39.5q0 -30 -20 -51t-54 -21z" />
    <glyph glyph-name="quotedblright" unicode="&#x201d;" horiz-adv-x="442" 
d="M240 456q17 20 31.5 45t24.5 60q-27 9 -38 28.5t-11 39.5q0 30 20 51t54 21q33 0 55 -21.5t22 -61.5q0 -24 -7 -48t-18 -45.5t-24 -39t-25 -29.5h-84zM44 456q17 20 31.5 45t24.5 60q-27 9 -38 28.5t-11 39.5q0 30 20 51t54 21q33 0 55 -21.5t22 -61.5q0 -24 -7 -48
t-18 -45.5t-24 -39t-25 -29.5h-84z" />
    <glyph glyph-name="quotedblbase" unicode="&#x201e;" horiz-adv-x="442" 
d="M240 -80q17 20 31.5 45t24.5 60q-28 9 -38.5 28.5t-10.5 39.5q0 30 20 51t54 21q33 0 55 -21.5t22 -61.5q0 -24 -7 -48t-18 -45.5t-24 -39t-25 -29.5h-84zM44 -80q17 20 31.5 45t24.5 60q-28 9 -38.5 28.5t-10.5 39.5q0 30 20 51t54 21q33 0 55 -21.5t22 -61.5
q0 -24 -7 -48t-18 -45.5t-24 -39t-25 -29.5h-84z" />
    <glyph glyph-name="dagger" unicode="&#x2020;" horiz-adv-x="512" 
d="M317 405v-483h-122v483h-157v99h157v191h122v-191h157v-99h-157z" />
    <glyph glyph-name="daggerdbl" unicode="&#x2021;" horiz-adv-x="512" 
d="M317 113v-191h-122v191h-157v99h157v193h-157v99h157v191h122v-191h157v-99h-157v-193h157v-99h-157z" />
    <glyph glyph-name="bullet" unicode="&#x2022;" horiz-adv-x="306" 
d="M152 149q-24 0 -45.5 9.5t-37.5 25.5t-25 38t-9 46t9 45.5t25 37.5t37.5 25.5t45.5 9.5q25 0 47 -9.5t38 -25.5t25 -37.5t9 -45.5t-9 -46t-25 -38t-38 -25.5t-47 -9.5z" />
    <glyph glyph-name="ellipsis" unicode="&#x2026;" horiz-adv-x="756" 
d="M628 -8q-34 0 -57 23t-23 57t23 57t57 23t57 -23t23 -57t-23 -57t-57 -23zM378 -8q-34 0 -57 23t-23 57t23 57t57 23t57 -23t23 -57t-23 -57t-57 -23zM127 -8q-34 0 -57 23t-23 57t23 57t57 23t57 -23t23 -57t-23 -57t-57 -23z" />
    <glyph glyph-name="uni202F" unicode="&#x202f;" horiz-adv-x="72" 
 />
    <glyph glyph-name="perthousand" unicode="&#x2030;" horiz-adv-x="1268" 
d="M175 -6l410 706h106l-411 -706h-105zM370 505q0 -47 -13.5 -82.5t-37.5 -60.5t-56.5 -37.5t-69.5 -12.5q-39 0 -71.5 12t-56 36t-36.5 59t-13 82t13 83t36.5 61t56 37.5t71.5 12.5q37 0 69.5 -12t56.5 -36t37.5 -59.5t13.5 -82.5zM131 503q0 -66 16.5 -93t45.5 -27t45 27
t16 93t-16 93.5t-45 27.5t-45.5 -27.5t-16.5 -93.5zM849 193q0 -47 -13.5 -82.5t-37 -60.5t-56 -37.5t-69.5 -12.5q-39 0 -71 12t-55.5 36t-36.5 59t-13 82t13 83t36.5 61t55.5 37.5t71 12.5q37 0 69.5 -12.5t56 -36.5t37 -59.5t13.5 -81.5zM1251 193q0 -47 -13.5 -82.5
t-37 -60.5t-55.5 -37.5t-69 -12.5q-78 0 -127.5 48t-49.5 141q0 94 49.5 144t127.5 50q37 0 69 -12.5t55.5 -36.5t37 -59.5t13.5 -81.5zM673 311q-29 0 -45 -27t-16 -93t16 -93t45 -27t45.5 27t16.5 93t-16.5 93t-45.5 27zM1076 311q-30 0 -46 -27t-16 -93t16 -93t46 -27
q29 0 44.5 27t15.5 93t-15.5 93t-44.5 27z" />
    <glyph glyph-name="uni2032" unicode="&#x2032;" horiz-adv-x="254" 
d="M81 695h130l-73 -226h-95z" />
    <glyph glyph-name="uni2033" unicode="&#x2033;" horiz-adv-x="435" 
d="M81 695h130l-73 -226h-95zM261 695h130l-73 -226h-95z" />
    <glyph glyph-name="guilsinglleft" unicode="&#x2039;" horiz-adv-x="312" 
d="M155 83l-118 175l118 175h120l-117 -175l117 -175h-120z" />
    <glyph glyph-name="guilsinglright" unicode="&#x203a;" horiz-adv-x="313" 
d="M155 258l-118 175h121l118 -175l-118 -175h-121z" />
    <glyph glyph-name="fraction" unicode="&#x2044;" horiz-adv-x="486" 
d="M-89 0l558 695h107l-559 -695h-106z" />
    <glyph glyph-name="uni205F" unicode="&#x205f;" horiz-adv-x="201" 
 />
    <glyph glyph-name="zero.sup" unicode="&#x2070;" horiz-adv-x="467" 
d="M234 309q-42 0 -78 14.5t-62.5 43t-42 70.5t-15.5 97t15.5 97t42 70.5t62.5 42.5t78 14t78 -14t62.5 -42t41.5 -70t15 -97t-15 -97t-41.5 -70.5t-62.5 -43.5t-78 -15zM233 384q17 0 32 7.5t26 25t17 46.5t6 71q0 43 -6 71.5t-17 45.5t-25.5 24.5t-31.5 7.5t-31.5 -7.5
t-25.5 -24.5t-17.5 -45.5t-6.5 -71.5q0 -42 6.5 -71t17 -46.5t25 -25t31.5 -7.5z" />
    <glyph glyph-name="four.sup" unicode="&#x2074;" horiz-adv-x="420" 
d="M222 633l-116 -161h116v161zM335 401v-86h-113v86h-198v66l209 285h102v-280h52v-71h-52z" />
    <glyph glyph-name="five.sup" unicode="&#x2075;" horiz-adv-x="392" 
d="M167 309q-46 0 -81.5 8.5t-52.5 21.5l27 74q16 -9 38.5 -18.5t59.5 -9.5q32 0 54 17t22 52q0 31 -18 47t-47 16q-13 0 -21.5 -2.5t-13.5 -5.5q-6 -4 -11 -8h-75v251h282v-80h-189v-93q11 6 28.5 10.5t40.5 4.5q31 0 57.5 -9t45.5 -26t30 -42.5t11 -58.5q0 -75 -51 -112
t-136 -37z" />
    <glyph glyph-name="six.sup" unicode="&#x2076;" horiz-adv-x="433" 
d="M398 468q0 -41 -15 -70.5t-39.5 -49.5t-56 -29.5t-65.5 -9.5q-36 0 -69.5 10t-59.5 31.5t-42 55.5t-16 82q0 47 18 89.5t45.5 77t60.5 59.5t63 38h149v-8q-66 -29 -120.5 -71t-81.5 -100q34 36 91 36q25 0 50 -7.5t44.5 -24.5t31.5 -44t12 -65zM150 479q0 -49 19.5 -72
t48.5 -23q27 0 45 20.5t18 63.5q0 75 -65 75q-19 0 -34 -6.5t-25 -17.5q-1 -4 -4 -13.5t-3 -26.5z" />
    <glyph glyph-name="seven.sup" unicode="&#x2077;" horiz-adv-x="375" 
d="M70 315l155 360h-194v77h316v-68l-156 -369h-121z" />
    <glyph glyph-name="eight.sup" unicode="&#x2078;" horiz-adv-x="411" 
d="M207 309q-38 0 -69.5 8t-54.5 24t-36 38t-13 51q0 43 27 71.5t75 40.5q-41 11 -64 36t-23 64q0 28 12 49.5t33 36.5t50 22.5t63 7.5q68 0 112 -29.5t44 -85.5q0 -40 -23 -64.5t-62 -35.5q46 -12 72.5 -40t26.5 -71q0 -29 -12.5 -51.5t-35 -38.5t-54 -24.5t-68.5 -8.5z
M207 577q21 0 35.5 14t14.5 42q0 26 -14.5 40t-35.5 14q-22 0 -36.5 -14t-14.5 -40q0 -28 14.5 -42t36.5 -14zM206 382q26 0 42 16t16 48t-16 48t-42 16t-42 -16t-16 -48t16 -48t42 -16z" />
    <glyph glyph-name="nine.sup" unicode="&#x2079;" horiz-adv-x="433" 
d="M213 758q37 0 70.5 -11t59 -33t40.5 -56t15 -80q0 -50 -15 -92t-38 -75.5t-50.5 -58t-52.5 -37.5h-158v9q27 13 54.5 31.5t52 40t44 47t31.5 53.5q-17 -17 -40.5 -27t-52.5 -10q-25 0 -49.5 7.5t-44 24t-32 43t-12.5 64.5q0 41 15 71t40 50t57 29.5t66 9.5zM283 589
q0 48 -19.5 71.5t-48.5 23.5q-26 0 -44.5 -20.5t-18.5 -63.5q0 -39 17 -57.5t49 -18.5q20 0 34 7.5t24 19.5q1 3 4 12.5t3 25.5z" />
    <glyph glyph-name="plus.sup" unicode="&#x207a;" horiz-adv-x="377" 
d="M238 513v-116h-100v116h-104v81h104v116h100v-116h105v-81h-105z" />
    <glyph glyph-name="minus.sup" unicode="&#x207b;" horiz-adv-x="377" 
d="M34 523v82h309v-82h-309z" />
    <glyph glyph-name="zero.sub" unicode="&#x2080;" horiz-adv-x="467" 
d="M234 -93q-42 0 -78 14.5t-62.5 43t-42 70.5t-15.5 97t15.5 97t42 70.5t62.5 42.5t78 14t78 -14t62.5 -42t41.5 -70t15 -97t-15 -97t-41.5 -70.5t-62.5 -43.5t-78 -15zM233 -18q17 0 32 7.5t26 25t17 46.5t6 71q0 43 -6 71.5t-17 45.5t-25.5 24.5t-31.5 7.5t-31.5 -7.5
t-25.5 -24.5t-17.5 -45.5t-6.5 -71.5q0 -42 6.5 -71t17 -46.5t25 -25t31.5 -7.5z" />
    <glyph glyph-name="one.sub" unicode="&#x2081;" horiz-adv-x="326" 
d="M139 -87v331l-105 -97v97l116 106h109v-437h-120z" />
    <glyph glyph-name="two.sub" unicode="&#x2082;" horiz-adv-x="393" 
d="M39 -87v70q52 36 88.5 65.5t58.5 55.5t32 50t10 49q0 36 -16.5 57t-54.5 21q-35 0 -57.5 -12t-36.5 -23l-22 77q22 14 54.5 23.5t77.5 9.5q83 0 129 -36t46 -105q0 -65 -44 -119.5t-134 -106.5h183v-76h-314z" />
    <glyph glyph-name="three.sub" unicode="&#x2083;" horiz-adv-x="393" 
d="M172 -93q-51 0 -85 9t-55 21l24 72q14 -8 39 -17.5t64 -9.5q38 0 55.5 17t17.5 45q0 61 -76 61h-49v70h51q26 0 43.5 13t17.5 39q0 25 -16.5 39.5t-49.5 14.5q-29 0 -51 -9t-40 -22l-22 74q20 13 53 22.5t80 9.5q81 0 122 -31.5t41 -82.5q0 -41 -24 -65.5t-60 -31.5
q43 -6 72.5 -34t29.5 -76q0 -57 -45.5 -92.5t-136.5 -35.5z" />
    <glyph glyph-name="four.sub" unicode="&#x2084;" horiz-adv-x="420" 
d="M222 231l-116 -161h116v161zM335 -1v-86h-113v86h-198v66l209 285h102v-280h52v-71h-52z" />
    <glyph glyph-name="five.sub" unicode="&#x2085;" horiz-adv-x="392" 
d="M167 -93q-46 0 -81.5 8.5t-52.5 21.5l27 74q16 -9 38.5 -18.5t59.5 -9.5q32 0 54 17t22 52q0 31 -18 47t-47 16q-13 0 -21.5 -2.5t-13.5 -5.5q-6 -4 -11 -8h-75v251h282v-80h-189v-93q11 6 28.5 10.5t40.5 4.5q31 0 57.5 -9t45.5 -26t30 -42.5t11 -58.5q0 -75 -51 -112
t-136 -37z" />
    <glyph glyph-name="six.sub" unicode="&#x2086;" horiz-adv-x="433" 
d="M398 66q0 -41 -15 -70.5t-39.5 -49.5t-56 -29.5t-65.5 -9.5q-36 0 -69.5 10t-59.5 31.5t-42 55.5t-16 82q0 47 18 89.5t45.5 77t60.5 59.5t63 38h149v-8q-66 -29 -120.5 -71t-81.5 -100q34 36 91 36q25 0 50 -7.5t44.5 -24.5t31.5 -44t12 -65zM150 77q0 -49 19.5 -72
t48.5 -23q27 0 45 20.5t18 63.5q0 75 -65 75q-19 0 -34 -6.5t-25 -17.5q-1 -4 -4 -13.5t-3 -26.5z" />
    <glyph glyph-name="seven.sub" unicode="&#x2087;" horiz-adv-x="375" 
d="M70 -87l155 360h-194v77h316v-68l-156 -369h-121z" />
    <glyph glyph-name="eight.sub" unicode="&#x2088;" horiz-adv-x="411" 
d="M207 -93q-38 0 -69.5 8t-54.5 24t-36 38t-13 51q0 43 27 71.5t75 40.5q-41 11 -64 36t-23 64q0 28 12 49.5t33 36.5t50 22.5t63 7.5q68 0 112 -29.5t44 -85.5q0 -40 -23 -64.5t-62 -35.5q46 -12 72.5 -40t26.5 -71q0 -29 -12.5 -51.5t-35 -38.5t-54 -24.5t-68.5 -8.5z
M207 175q21 0 35.5 14t14.5 42q0 26 -14.5 40t-35.5 14q-22 0 -36.5 -14t-14.5 -40q0 -28 14.5 -42t36.5 -14zM206 -20q26 0 42 16t16 48t-16 48t-42 16t-42 -16t-16 -48t16 -48t42 -16z" />
    <glyph glyph-name="nine.sub" unicode="&#x2089;" horiz-adv-x="433" 
d="M213 356q37 0 70.5 -11t59 -33t40.5 -56t15 -80q0 -50 -15 -92t-38 -75.5t-50.5 -58t-52.5 -37.5h-158v9q27 13 54.5 31.5t52 40t44 47t31.5 53.5q-17 -17 -40.5 -27t-52.5 -10q-25 0 -49.5 7.5t-44 24t-32 43t-12.5 64.5q0 41 15 71t40 50t57 29.5t66 9.5zM283 187
q0 48 -19.5 71.5t-48.5 23.5q-26 0 -44.5 -20.5t-18.5 -63.5q0 -39 17 -57.5t49 -18.5q20 0 34 7.5t24 19.5q1 3 4 12.5t3 25.5z" />
    <glyph glyph-name="plus.sub" unicode="&#x208a;" horiz-adv-x="377" 
d="M238 110v-116h-100v116h-104v81h104v116h100v-116h105v-81h-105z" />
    <glyph glyph-name="minus.sub" unicode="&#x208b;" horiz-adv-x="377" 
d="M34 120v82h309v-82h-309z" />
    <glyph glyph-name="Euro" unicode="&#x20ac;" horiz-adv-x="607" 
d="M565 20q-13 -8 -50.5 -19t-96.5 -11q-131 0 -212 65.5t-106 188.5h-73v68h65q-1 8 -1 17v18q0 11 0.5 21.5t1.5 21.5h-66v68h75q26 120 108 183t210 63q60 0 94 -9t51 -19l-30 -101q-20 10 -48.5 18t-68.5 8q-67 0 -110.5 -34t-61.5 -109h175v-68h-185q-1 -11 -1 -21.5
v-21.5v-18t1 -17h185v-68h-176q17 -79 61.5 -115t113.5 -36q38 0 71.5 8.5t53.5 19.5l20 -101v0z" />
    <glyph glyph-name="uni20B4" unicode="&#x20b4;" horiz-adv-x="611" 
d="M539 47q-12 -10 -32 -20t-46.5 -18.5t-58.5 -13.5t-68 -5q-125 0 -193.5 46.5t-68.5 143.5q0 41 15 73h-51v68h104q28 23 62.5 38.5t71.5 27.5q8 2 14.5 5t13.5 5h-266v68h352q9 19 9 45q0 91 -119 91q-45 0 -81 -11t-55 -22l-30 100q22 12 66.5 24t111.5 12
q121 0 184.5 -46.5t63.5 -135.5q0 -32 -9 -57h46v-68h-95q-27 -23 -62 -39.5t-72 -29.5q-5 -2 -10 -3.5t-10 -3.5h249v-68h-348q-13 -23 -13 -59q0 -52 30.5 -76.5t88.5 -24.5q28 0 55 5t50 12.5t41.5 16.5t29.5 17l30 -97v0z" />
    <glyph glyph-name="uni20B8" unicode="&#x20b8;" horiz-adv-x="581" 
d="M30 695h519v-67h-519v67zM368 464v-464h-156v464h-182v99h519v-99h-181z" />
    <glyph glyph-name="uni20BD" unicode="&#x20bd;" horiz-adv-x="610" 
d="M252 596v-214h65q53 0 82.5 24t29.5 84q0 59 -26.5 82.5t-81.5 23.5h-69zM252 149v-149h-145v149h-77v76h77v80h-77v77h77v313h220q116 0 181.5 -48.5t65.5 -150.5q0 -53 -17.5 -89t-50 -59t-79 -33t-104.5 -10h-71v-80h199v-76h-199z" />
    <glyph glyph-name="uni2116" unicode="&#x2116;" horiz-adv-x="1111" 
d="M1067 521q0 -46 -15 -81.5t-41 -59.5t-61 -36.5t-76 -12.5q-42 0 -77 12t-60.5 36t-40 59t-14.5 81q0 45 14.5 80.5t40 59.5t60.5 36.5t77 12.5q41 0 76 -12t61 -36t41 -59t15 -80zM793 520q0 -59 22.5 -86t58.5 -27t58.5 27t22.5 86t-22.5 85.5t-58.5 26.5
q-35 0 -58 -26.5t-23 -85.5zM185 493v-493h-118v695h163l273 -485v485h118v-695h-160z" />
    <glyph glyph-name="trademark" unicode="&#x2122;" horiz-adv-x="892" 
d="M245 617v-305h-106v305h-118v78h341v-78h-117zM498 565v-253h-83v383h123l96 -217l93 217h124v-383h-102v253l-81 -194h-88z" />
    <glyph glyph-name="onethird" unicode="&#x2153;" horiz-adv-x="1040" 
d="M172 0l558 695h107l-559 -695h-106zM811 -6q-51 0 -85 9t-55 21l24 72q14 -8 39 -17.5t64 -9.5q38 0 55.5 17t17.5 45q0 61 -76 61h-49v70h51q26 0 43.5 13t17.5 39q0 25 -16.5 39.5t-49.5 14.5q-29 0 -51 -9t-40 -22l-22 74q20 13 53 22.5t80 9.5q81 0 122 -31.5
t41 -82.5q0 -41 -24 -65.5t-60 -31.5q43 -6 72.5 -34t29.5 -76q0 -57 -45.5 -92.5t-136.5 -35.5zM155 257v331l-105 -97v97l116 106h109v-437h-120z" />
    <glyph glyph-name="twothirds" unicode="&#x2154;" horiz-adv-x="1096" 
d="M222 0l558 695h107l-559 -695h-106zM867 -5q-51 0 -85 9t-55 21l24 72q14 -8 39 -17.5t64 -9.5q38 0 55.5 17t17.5 45q0 61 -76 61h-49v70h51q26 0 43.5 13t17.5 39q0 25 -16.5 39.5t-49.5 14.5q-29 0 -51 -9t-40 -22l-22 74q20 13 53 22.5t80 9.5q81 0 122 -31.5
t41 -82.5q0 -41 -24 -65.5t-60 -31.5q43 -6 72.5 -34t29.5 -76q0 -57 -45.5 -92.5t-136.5 -35.5zM55 257v70q52 36 88.5 65.5t58.5 55.5t32 50t10 49q0 36 -16.5 57t-54.5 21q-35 0 -57.5 -12t-36.5 -23l-22 77q22 14 54.5 23.5t77.5 9.5q83 0 129 -36t46 -105
q0 -65 -44 -119.5t-134 -106.5h183v-76h-314z" />
    <glyph glyph-name="oneeighth" unicode="&#x215b;" horiz-adv-x="1018" 
d="M155 0l558 695h107l-559 -695h-106zM808 -6q-38 0 -69.5 8t-54.5 24t-36 38t-13 51q0 43 27 71.5t75 40.5q-41 11 -64 36t-23 64q0 28 12 49.5t33 36.5t50 22.5t63 7.5q68 0 112 -29.5t44 -85.5q0 -40 -23 -64.5t-62 -35.5q46 -12 72.5 -40t26.5 -71q0 -29 -12.5 -51.5
t-35 -38.5t-54 -24.5t-68.5 -8.5zM808 262q21 0 35.5 14t14.5 42q0 26 -14.5 40t-35.5 14q-22 0 -36.5 -14t-14.5 -40q0 -28 14.5 -42t36.5 -14zM807 67q26 0 42 16t16 48t-16 48t-42 16t-42 -16t-16 -48t16 -48t42 -16zM155 256v331l-105 -97v97l116 106h109v-437h-120z
" />
    <glyph glyph-name="threeeighths" unicode="&#x215c;" horiz-adv-x="1041" 
d="M180 0l558 695h107l-559 -695h-106zM830 -6q-38 0 -69.5 8t-54.5 24t-36 38t-13 51q0 43 27 71.5t75 40.5q-41 11 -64 36t-23 64q0 28 12 49.5t33 36.5t50 22.5t63 7.5q68 0 112 -29.5t44 -85.5q0 -40 -23 -64.5t-62 -35.5q46 -12 72.5 -40t26.5 -71q0 -29 -12.5 -51.5
t-35 -38.5t-54 -24.5t-68.5 -8.5zM830 262q21 0 35.5 14t14.5 42q0 26 -14.5 40t-35.5 14q-22 0 -36.5 -14t-14.5 -40q0 -28 14.5 -42t36.5 -14zM829 67q26 0 42 16t16 48t-16 48t-42 16t-42 -16t-16 -48t16 -48t42 -16zM188 251q-51 0 -85 9t-55 21l24 72q14 -8 39 -17.5
t64 -9.5q38 0 55.5 17t17.5 45q0 61 -76 61h-49v70h51q26 0 43.5 13t17.5 39q0 25 -16.5 39.5t-49.5 14.5q-29 0 -51 -9t-40 -22l-22 74q20 13 53 22.5t80 9.5q81 0 122 -31.5t41 -82.5q0 -41 -24 -65.5t-60 -31.5q43 -6 72.5 -34t29.5 -76q0 -57 -45.5 -92.5t-136.5 -35.5z
" />
    <glyph glyph-name="fiveeighths" unicode="&#x215d;" horiz-adv-x="1030" 
d="M170 0l558 695h107l-559 -695h-106zM820 -6q-38 0 -69.5 8t-54.5 24t-36 38t-13 51q0 43 27 71.5t75 40.5q-41 11 -64 36t-23 64q0 28 12 49.5t33 36.5t50 22.5t63 7.5q68 0 112 -29.5t44 -85.5q0 -40 -23 -64.5t-62 -35.5q46 -12 72.5 -40t26.5 -71q0 -29 -12.5 -51.5
t-35 -38.5t-54 -24.5t-68.5 -8.5zM820 262q21 0 35.5 14t14.5 42q0 26 -14.5 40t-35.5 14q-22 0 -36.5 -14t-14.5 -40q0 -28 14.5 -42t36.5 -14zM819 67q26 0 42 16t16 48t-16 48t-42 16t-42 -16t-16 -48t16 -48t42 -16zM183 251q-46 0 -81.5 8.5t-52.5 21.5l27 74
q16 -9 38.5 -18.5t59.5 -9.5q32 0 54 17t22 52q0 31 -18 47t-47 16q-13 0 -21.5 -2.5t-13.5 -5.5q-6 -4 -11 -8h-75v251h282v-80h-189v-93q11 6 28.5 10.5t40.5 4.5q31 0 57.5 -9t45.5 -26t30 -42.5t11 -58.5q0 -75 -51 -112t-136 -37z" />
    <glyph glyph-name="seveneighths" unicode="&#x215e;" horiz-adv-x="954" 
d="M94 0l558 695h107l-559 -695h-106zM743 -6q-38 0 -69.5 8t-54.5 24t-36 38t-13 51q0 43 27 71.5t75 40.5q-41 11 -64 36t-23 64q0 28 12 49.5t33 36.5t50 22.5t63 7.5q68 0 112 -29.5t44 -85.5q0 -40 -23 -64.5t-62 -35.5q46 -12 72.5 -40t26.5 -71q0 -29 -12.5 -51.5
t-35 -38.5t-54 -24.5t-68.5 -8.5zM743 262q21 0 35.5 14t14.5 42q0 26 -14.5 40t-35.5 14q-22 0 -36.5 -14t-14.5 -40q0 -28 14.5 -42t36.5 -14zM742 67q26 0 42 16t16 48t-16 48t-42 16t-42 -16t-16 -48t16 -48t42 -16zM86 257l155 360h-194v77h316v-68l-156 -369h-121z
" />
    <glyph glyph-name="minus" unicode="&#x2212;" horiz-adv-x="583" 
d="M45 277v100h493v-100h-493z" />
    <glyph glyph-name="approxequal" unicode="&#x2248;" horiz-adv-x="627" 
d="M49 339q-4 36 3 71t26.5 63t52 45t79.5 17q41 0 69.5 -12.5t50.5 -27.5t42 -27.5t45 -12.5q28 0 46 19.5t17 67.5h98q4 -37 -2.5 -72.5t-25.5 -63t-51 -44t-79 -16.5q-42 0 -70.5 12.5t-51 27.5t-42 27.5t-43.5 12.5q-29 0 -48 -18t-18 -69h-98zM49 106q-4 36 3 71
t26.5 63t52 45t79.5 17q41 0 69.5 -12.5t50.5 -27.5t42 -27.5t45 -12.5q28 0 46 19.5t17 67.5h98q4 -37 -2.5 -72.5t-25.5 -63t-51 -44t-79 -16.5q-42 0 -70.5 12.5t-51 27.5t-42 27.5t-43.5 12.5q-29 0 -48 -18t-18 -69h-98z" />
    <glyph glyph-name="notequal" unicode="&#x2260;" horiz-adv-x="584" 
d="M277 170l-50 -117h-104l50 117h-128v100h171l49 114h-220v99h262l51 118h105l-51 -118h127v-99h-169l-50 -114h219v-100h-262z" />
    <glyph glyph-name="lessequal" unicode="&#x2264;" horiz-adv-x="537" 
d="M45 320v121l447 170v-109l-332 -123l332 -120v-110zM45 0v100h447v-100h-447z" />
    <glyph glyph-name="greaterequal" unicode="&#x2265;" horiz-adv-x="537" 
d="M45 259l334 121l-334 122v109l447 -170v-121l-447 -171v110zM45 100h447v-100h-447v100z" />
    <glyph glyph-name="zero.den" unicode="&#xe402;" horiz-adv-x="467" 
d="M234 -6q-42 0 -78 14.5t-62.5 43t-42 70.5t-15.5 97t15.5 97t42 70.5t62.5 42.5t78 14t78 -14t62.5 -42t41.5 -70t15 -97t-15 -97t-41.5 -70.5t-62.5 -43.5t-78 -15zM233 69q17 0 32 7.5t26 25t17 46.5t6 71q0 43 -6 71.5t-17 45.5t-25.5 24.5t-31.5 7.5t-31.5 -7.5
t-25.5 -24.5t-17.5 -45.5t-6.5 -71.5q0 -42 6.5 -71t17 -46.5t25 -25t31.5 -7.5z" />
    <glyph glyph-name="one.den" unicode="&#xe403;" horiz-adv-x="326" 
d="M139 0v331l-105 -97v97l116 106h109v-437h-120z" />
    <glyph glyph-name="two.den" unicode="&#xe404;" horiz-adv-x="393" 
d="M39 0v70q52 36 88.5 65.5t58.5 55.5t32 50t10 49q0 36 -16.5 57t-54.5 21q-35 0 -57.5 -12t-36.5 -23l-22 77q22 14 54.5 23.5t77.5 9.5q83 0 129 -36t46 -105q0 -65 -44 -119.5t-134 -106.5h183v-76h-314z" />
    <glyph glyph-name="three.den" unicode="&#xe405;" horiz-adv-x="393" 
d="M172 -6q-51 0 -85 9t-55 21l24 72q14 -8 39 -17.5t64 -9.5q38 0 55.5 17t17.5 45q0 61 -76 61h-49v70h51q26 0 43.5 13t17.5 39q0 25 -16.5 39.5t-49.5 14.5q-29 0 -51 -9t-40 -22l-22 74q20 13 53 22.5t80 9.5q81 0 122 -31.5t41 -82.5q0 -41 -24 -65.5t-60 -31.5
q43 -6 72.5 -34t29.5 -76q0 -57 -45.5 -92.5t-136.5 -35.5z" />
    <glyph glyph-name="four.den" unicode="&#xe406;" horiz-adv-x="420" 
d="M222 318l-116 -161h116v161zM335 86v-86h-113v86h-198v66l209 285h102v-280h52v-71h-52z" />
    <glyph glyph-name="five.den" unicode="&#xe407;" horiz-adv-x="392" 
d="M167 -6q-46 0 -81.5 8.5t-52.5 21.5l27 74q16 -9 38.5 -18.5t59.5 -9.5q32 0 54 17t22 52q0 31 -18 47t-47 16q-13 0 -21.5 -2.5t-13.5 -5.5q-6 -4 -11 -8h-75v251h282v-80h-189v-93q11 6 28.5 10.5t40.5 4.5q31 0 57.5 -9t45.5 -26t30 -42.5t11 -58.5q0 -75 -51 -112
t-136 -37z" />
    <glyph glyph-name="six.den" unicode="&#xe408;" horiz-adv-x="433" 
d="M398 153q0 -41 -15 -70.5t-39.5 -49.5t-56 -29.5t-65.5 -9.5q-36 0 -69.5 10t-59.5 31.5t-42 55.5t-16 82q0 47 18 89.5t45.5 77t60.5 59.5t63 38h149v-8q-66 -29 -120.5 -71t-81.5 -100q34 36 91 36q25 0 50 -7.5t44.5 -24.5t31.5 -44t12 -65zM150 164q0 -49 19.5 -72
t48.5 -23q27 0 45 20.5t18 63.5q0 75 -65 75q-19 0 -34 -6.5t-25 -17.5q-1 -4 -4 -13.5t-3 -26.5z" />
    <glyph glyph-name="seven.den" unicode="&#xe409;" horiz-adv-x="375" 
d="M70 0l155 360h-194v77h316v-68l-156 -369h-121z" />
    <glyph glyph-name="eight.den" unicode="&#xe40a;" horiz-adv-x="411" 
d="M207 -6q-38 0 -69.5 8t-54.5 24t-36 38t-13 51q0 43 27 71.5t75 40.5q-41 11 -64 36t-23 64q0 28 12 49.5t33 36.5t50 22.5t63 7.5q68 0 112 -29.5t44 -85.5q0 -40 -23 -64.5t-62 -35.5q46 -12 72.5 -40t26.5 -71q0 -29 -12.5 -51.5t-35 -38.5t-54 -24.5t-68.5 -8.5z
M207 262q21 0 35.5 14t14.5 42q0 26 -14.5 40t-35.5 14q-22 0 -36.5 -14t-14.5 -40q0 -28 14.5 -42t36.5 -14zM206 67q26 0 42 16t16 48t-16 48t-42 16t-42 -16t-16 -48t16 -48t42 -16z" />
    <glyph glyph-name="nine.den" unicode="&#xe40b;" horiz-adv-x="433" 
d="M213 443q37 0 70.5 -11t59 -33t40.5 -56t15 -80q0 -50 -15 -92t-38 -75.5t-50.5 -58t-52.5 -37.5h-158v9q27 13 54.5 31.5t52 40t44 47t31.5 53.5q-17 -17 -40.5 -27t-52.5 -10q-25 0 -49.5 7.5t-44 24t-32 43t-12.5 64.5q0 41 15 71t40 50t57 29.5t66 9.5zM283 274
q0 48 -19.5 71.5t-48.5 23.5q-26 0 -44.5 -20.5t-18.5 -63.5q0 -39 17 -57.5t49 -18.5q20 0 34 7.5t24 19.5q1 3 4 12.5t3 25.5z" />
    <glyph glyph-name="zero.num" unicode="&#xe416;" horiz-adv-x="467" 
d="M234 251q-42 0 -78 14.5t-62.5 43t-42 70.5t-15.5 97t15.5 97t42 70.5t62.5 42.5t78 14t78 -14t62.5 -42t41.5 -70t15 -97t-15 -97t-41.5 -70.5t-62.5 -43.5t-78 -15zM233 326q17 0 32 7.5t26 25t17 46.5t6 71q0 43 -6 71.5t-17 45.5t-25.5 24.5t-31.5 7.5t-31.5 -7.5
t-25.5 -24.5t-17.5 -45.5t-6.5 -71.5q0 -42 6.5 -71t17 -46.5t25 -25t31.5 -7.5z" />
    <glyph glyph-name="one.num" unicode="&#xe417;" horiz-adv-x="326" 
d="M139 256v331l-105 -97v97l116 106h109v-437h-120z" />
    <glyph glyph-name="two.num" unicode="&#xe418;" horiz-adv-x="393" 
d="M39 257v70q52 36 88.5 65.5t58.5 55.5t32 50t10 49q0 36 -16.5 57t-54.5 21q-35 0 -57.5 -12t-36.5 -23l-22 77q22 14 54.5 23.5t77.5 9.5q83 0 129 -36t46 -105q0 -65 -44 -119.5t-134 -106.5h183v-76h-314z" />
    <glyph glyph-name="three.num" unicode="&#xe419;" horiz-adv-x="393" 
d="M172 251q-51 0 -85 9t-55 21l24 72q14 -8 39 -17.5t64 -9.5q38 0 55.5 17t17.5 45q0 61 -76 61h-49v70h51q26 0 43.5 13t17.5 39q0 25 -16.5 39.5t-49.5 14.5q-29 0 -51 -9t-40 -22l-22 74q20 13 53 22.5t80 9.5q81 0 122 -31.5t41 -82.5q0 -41 -24 -65.5t-60 -31.5
q43 -6 72.5 -34t29.5 -76q0 -57 -45.5 -92.5t-136.5 -35.5z" />
    <glyph glyph-name="four.num" unicode="&#xe41a;" horiz-adv-x="420" 
d="M222 575l-116 -161h116v161zM335 343v-86h-113v86h-198v66l209 285h102v-280h52v-71h-52z" />
    <glyph glyph-name="five.num" unicode="&#xe41b;" horiz-adv-x="392" 
d="M167 251q-46 0 -81.5 8.5t-52.5 21.5l27 74q16 -9 38.5 -18.5t59.5 -9.5q32 0 54 17t22 52q0 31 -18 47t-47 16q-13 0 -21.5 -2.5t-13.5 -5.5q-6 -4 -11 -8h-75v251h282v-80h-189v-93q11 6 28.5 10.5t40.5 4.5q31 0 57.5 -9t45.5 -26t30 -42.5t11 -58.5q0 -75 -51 -112
t-136 -37z" />
    <glyph glyph-name="six.num" unicode="&#xe41c;" horiz-adv-x="433" 
d="M398 410q0 -41 -15 -70.5t-39.5 -49.5t-56 -29.5t-65.5 -9.5q-36 0 -69.5 10t-59.5 31.5t-42 55.5t-16 82q0 47 18 89.5t45.5 77t60.5 59.5t63 38h149v-8q-66 -29 -120.5 -71t-81.5 -100q34 36 91 36q25 0 50 -7.5t44.5 -24.5t31.5 -44t12 -65zM150 421q0 -49 19.5 -72
t48.5 -23q27 0 45 20.5t18 63.5q0 75 -65 75q-19 0 -34 -6.5t-25 -17.5q-1 -4 -4 -13.5t-3 -26.5z" />
    <glyph glyph-name="seven.num" unicode="&#xe41d;" horiz-adv-x="375" 
d="M70 257l155 360h-194v77h316v-68l-156 -369h-121z" />
    <glyph glyph-name="eight.num" unicode="&#xe41e;" horiz-adv-x="411" 
d="M207 251q-38 0 -69.5 8t-54.5 24t-36 38t-13 51q0 43 27 71.5t75 40.5q-41 11 -64 36t-23 64q0 28 12 49.5t33 36.5t50 22.5t63 7.5q68 0 112 -29.5t44 -85.5q0 -40 -23 -64.5t-62 -35.5q46 -12 72.5 -40t26.5 -71q0 -29 -12.5 -51.5t-35 -38.5t-54 -24.5t-68.5 -8.5z
M207 519q21 0 35.5 14t14.5 42q0 26 -14.5 40t-35.5 14q-22 0 -36.5 -14t-14.5 -40q0 -28 14.5 -42t36.5 -14zM206 324q26 0 42 16t16 48t-16 48t-42 16t-42 -16t-16 -48t16 -48t42 -16z" />
    <glyph glyph-name="nine.num" unicode="&#xe41f;" horiz-adv-x="433" 
d="M213 700q37 0 70.5 -11t59 -33t40.5 -56t15 -80q0 -50 -15 -92t-38 -75.5t-50.5 -58t-52.5 -37.5h-158v9q27 13 54.5 31.5t52 40t44 47t31.5 53.5q-17 -17 -40.5 -27t-52.5 -10q-25 0 -49.5 7.5t-44 24t-32 43t-12.5 64.5q0 41 15 71t40 50t57 29.5t66 9.5zM283 531
q0 48 -19.5 71.5t-48.5 23.5q-26 0 -44.5 -20.5t-18.5 -63.5q0 -39 17 -57.5t49 -18.5q20 0 34 7.5t24 19.5q1 3 4 12.5t3 25.5z" />
    <glyph glyph-name="f_f" unicode="&#xfb00;" horiz-adv-x="739" 
d="M573 413v-413h-146v413h-187v-413h-146v413h-63v94h63v14q0 94 55.5 143t153.5 49q17 0 30.5 -1.5t23.5 -3.5q11 -2 21 -4l-20 -92q-6 1 -13 2q-6 1 -14 2t-16 1q-36 0 -55.5 -22.5t-19.5 -73.5v-14h187v32q0 93 56.5 144t151.5 51q37 0 63.5 -5.5t37.5 -10.5l-21 -99
q-14 9 -30 14.5t-37 5.5q-35 0 -55 -24.5t-20 -75.5v-32h140v-94h-140z" />
    <glyph glyph-name="fi" unicode="&#xfb01;" horiz-adv-x="657" 
d="M240 413v-413h-146v413h-63v94h63v32q0 93 56.5 144t151.5 51q37 0 63.5 -5.5t37.5 -10.5l-21 -99q-14 9 -30 14.5t-37 5.5q-35 0 -55 -24.5t-20 -75.5v-32h140v-94h-140zM523 565q-36 0 -60.5 21t-24.5 56t24.5 56.5t60.5 21.5q35 0 60 -21.5t25 -56.5t-25 -56t-60 -21z
M596 507v-507h-146v507h146z" />
    <glyph glyph-name="fl" unicode="&#xfb02;" horiz-adv-x="664" 
d="M240 413v-413h-146v413h-63v94h63v32q0 93 56.5 144t151.5 51q37 0 63.5 -5.5t37.5 -10.5l-21 -99q-14 9 -30 14.5t-37 5.5q-35 0 -55 -24.5t-20 -75.5v-32h140v-94h-140zM603 725v-725h-146v725h146z" />
    <glyph glyph-name="uniFEFF" unicode="&#xfeff;" horiz-adv-x="0" 
 />
    <glyph glyph-name="threesuperior" horiz-adv-x="382" 
d="M172 309q-51 0 -85 9t-55 21l24 72q14 -8 39 -17.5t64 -9.5q38 0 55.5 17t17.5 45q0 61 -76 61h-49v70h51q26 0 43.5 13t17.5 39q0 25 -16.5 39.5t-49.5 14.5q-29 0 -51 -9t-40 -22l-22 74q20 13 53 22.5t80 9.5q81 0 122 -31.5t41 -82.5q0 -41 -24 -65.5t-60 -31.5
q43 -6 72.5 -34t29.5 -76q0 -57 -45.5 -92.5t-136.5 -35.5z" />
    <glyph glyph-name="twosuperior" horiz-adv-x="383" 
d="M39 315v70q52 36 88.5 65.5t58.5 55.5t32 50t10 49q0 36 -16.5 57t-54.5 21q-35 0 -57.5 -12t-36.5 -23l-22 77q22 14 54.5 23.5t77.5 9.5q83 0 129 -36t46 -105q0 -65 -44 -119.5t-134 -106.5h183v-76h-314z" />
    <glyph glyph-name="onesuperior" horiz-adv-x="334" 
d="M139 315v331l-105 -97v97l116 106h109v-437h-120z" />
    <glyph glyph-name="idotaccent" horiz-adv-x="268" 
d="M134 565q-36 0 -60.5 21t-24.5 56t24.5 56.5t60.5 21.5q35 0 60 -21.5t25 -56.5t-25 -56t-60 -21zM207 507v-507h-146v507h146z" />
    <glyph glyph-name="space_uni0326" 
d="M160 -233q15 15 28 32t24 38q-23 4 -37 19.5t-14 39.5q0 27 19 44.5t49 17.5t50.5 -18.5t19.5 -54.5q0 -38 -20 -67.5t-42 -50.5h-77z" />
    <glyph glyph-name="space_uni0326.alt" 
d="M202 568q-30 0 -50.5 18.5t-19.5 54.5q0 38 20 67.5t42 50.5h77q-15 -15 -28 -32t-24 -38q23 -4 37 -19.5t14 -39.5q0 -27 -19 -44.5t-49 -17.5z" />
    <glyph glyph-name="one.alt" horiz-adv-x="503" 
d="M63 0v98h139v432l-139 -120v126l184 159h101v-597h139v-98h-424z" />
    <glyph glyph-name="registered.alt" horiz-adv-x="603" 
d="M301 167q-57 0 -106 20t-85 55.5t-56.5 85t-20.5 109.5q0 58 20.5 107.5t56.5 84.5t85 55t106 20q58 0 107 -20t85 -55t56.5 -84.5t20.5 -107.5q0 -60 -20.5 -109.5t-56.5 -85t-85 -55.5t-107 -20zM301 218q47 0 86 16.5t66.5 45.5t43 69t15.5 88q0 47 -15.5 86.5
t-43 68.5t-66.5 45t-86 16q-46 0 -84.5 -16t-66 -45t-43 -68.5t-15.5 -86.5q0 -48 15.5 -88t43 -69t66 -45.5t84.5 -16.5zM273 522v-76h24q19 0 31 8.5t12 31.5q0 20 -11.5 28t-31.5 8h-24zM297 405h-24v-97h-74v263h97q118 0 118 -82q0 -28 -12.5 -45.5t-33.5 -26.5
l62 -109h-79z" />
    <glyph glyph-name="caron.alt" 
d="M166 564l18 161h114l-50 -161h-82z" />
    <glyph glyph-name="questiondown.uc" horiz-adv-x="467" 
d="M12.0264 177.031q0 29.998 7.5 53.4971q7.49902 23.499 19.998 42.4971q12.5 18.999 29.499 34.998q16.998 15.999 34.9971 30.998q21.999 17.999 41.498 31.998t34.498 27.998q14.999 14 23.498 29.999q8.5 15.999 8.5 36.9971v10h113.992v-16.999
q0 -30.998 -6.49902 -53.9971q-6.5 -22.998 -19.499 -42.4971t-30.998 -35.998t-40.9971 -34.498q-28.999 -22.998 -44.998 -47.4971q-15.999 -24.498 -15.999 -59.4961q0 -18.999 5.5 -35.498t17.499 -29.498t31.998 -20.499q19.999 -7.49902 47.9971 -7.49902
q38.9971 0 67.4961 10.999q28.498 10.999 50.4971 21.999l24.998 -98.9941q-22.999 -11 -62.4961 -22.999q-39.498 -11.999 -105.494 -11.999q-56.9961 0 -100.993 13.499t-72.9961 37.998q-28.998 24.498 -43.9971 58.9961t-14.999 75.4951zM267.011 703
q34.998 0 59.4961 -24.999q24.499 -24.998 24.499 -59.9961q0 -35.998 -24.499 -60.4961q-24.498 -24.499 -59.4961 -24.499q-35.998 0 -60.9961 24.499q-24.999 24.498 -24.999 60.4961q0 34.998 24.999 59.9961q24.998 24.999 60.9961 24.999z" />
    <glyph glyph-name="exclamdown.uc" horiz-adv-x="288" 
d="M219 -3.95703l-22 479.971h-107l-22 -479.971h151zM143 703q-36 0 -60 -24.999q-24 -24.998 -24 -59.9961q0 -35.998 24 -60.4961q24 -24.499 60 -24.499t61 24.499q25 24.498 25 60.4961q0 34.998 -25 59.9961q-25 24.999 -61 24.999z" />
    <glyph glyph-name="hyphen.uc" horiz-adv-x="346" 
d="M48 401h250v-109h-250v109z" />
    <glyph glyph-name="endash.uc" horiz-adv-x="545" 
d="M48 389h449v-91h-449v91z" />
    <glyph glyph-name="emdash.uc" horiz-adv-x="904" 
d="M48 389h808v-91h-808v91z" />
    <glyph glyph-name="guilsinglleft.uc" horiz-adv-x="312" 
d="M155 141l-118 175l118 175h120l-117 -175l117 -175h-120z" />
    <glyph glyph-name="guilsinglright.uc" horiz-adv-x="313" 
d="M155 316l-118 175h121l118 -175l-118 -175h-121z" />
    <glyph glyph-name="guillemotleft.uc" horiz-adv-x="515" 
d="M155 141l-118 175l118 175h121l-118 -175l118 -175h-121zM357 141l-119 175l119 175h121l-118 -175l118 -175h-121z" />
    <glyph glyph-name="guillemotright.uc" horiz-adv-x="515" 
d="M155 316l-118 175h121l118 -175l-118 -175h-121zM357 316l-118 175h121l118 -175l-118 -175h-121z" />
    <glyph glyph-name="parenleft.uc" horiz-adv-x="382" 
d="M243 -77q-44 36 -76.5 82.5t-54 99t-32 109t-10.5 113.5t10.5 115.5t32 112t54 99.5t76.5 79h123q-39 -36 -68 -82t-48.5 -98t-29 -109t-9.5 -114q0 -115 38.5 -220t116.5 -187h-123z" />
    <glyph glyph-name="parenright.uc" horiz-adv-x="398" 
d="M133.015 -77q43.9971 36 76.4951 82.5t53.9971 99t31.998 109t10.499 113.5t-10.499 115.5t-31.998 112t-53.9971 99.5t-76.4951 79h-122.992q38.9971 -36 67.9961 -82q28.998 -46 48.4971 -98q19.498 -52 28.998 -109q9.49902 -57 9.49902 -114q0 -115 -38.4971 -220
q-38.498 -105 -116.493 -187h122.992z" />
    <glyph glyph-name="bracketleft.uc" horiz-adv-x="429" 
d="M80 733h318v-91h-178v-628h178v-91h-318v810z" />
    <glyph glyph-name="bracketright.uc" horiz-adv-x="429" 
d="M327.005 733h-317.98v-91h177.989v-628h-177.989v-91h317.98v810z" />
    <glyph glyph-name="braceleft.uc" horiz-adv-x="447" 
d="M397 -69q-69 -13 -118 -7.5t-81 23.5t-47 46t-15 60q0 22 3.5 40t7 33.5t7 31.5t3.5 35t-4.5 35t-16 27t-31.5 18t-50 10v93q31 2 51 8.5t31 17.5t15.5 26t4.5 35q0 15 -3.5 30.5t-7 32.5t-7 36.5t-3.5 43.5q0 33 15 60t46.5 44.5t81 22.5t118.5 -6v-84q-36 7 -59 4
t-36 -12.5t-17.5 -24t-4.5 -32.5q0 -35 3 -60.5t3 -56.5q0 -46 -26.5 -80t-94.5 -53q68 -17 94.5 -50.5t26.5 -77.5q0 -32 -3 -57t-3 -55q0 -20 5 -36.5t17.5 -26.5t35.5 -13t59 4v-85v0z" />
    <glyph glyph-name="braceright.uc" horiz-adv-x="449" 
d="M30.0244 -69q68.9951 -13 117.992 -7.5t80.9951 23.5t46.9971 46t14.999 60q0 22 -3.49902 40q-3.5 18 -7 33.5t-6.99902 31.5q-3.5 16 -3.5 35t4.5 35q4.49902 16 15.999 27q11.499 11 31.498 18q19.998 7 49.9961 10v93q-30.998 2 -50.9961 8.5
q-19.999 6.5 -30.998 17.5q-11 11 -15.499 26q-4.5 15 -4.5 35q0 15 3.5 30.5q3.49902 15.5 6.99902 32.5t7 36.5q3.49902 19.5 3.49902 43.5q0 33 -14.999 60t-46.4971 44.5t-80.9951 22.5t-118.492 -6v-84q35.998 7 58.9961 4q22.999 -3 35.998 -12.5t17.499 -24
t4.5 -32.5q0 -35 -3 -60.5t-3 -56.5q0 -46 26.498 -80q26.499 -34 94.4941 -53q-67.9951 -17 -94.4941 -50.5q-26.498 -33.5 -26.498 -77.5q0 -32 3 -57t3 -55q0 -20 -5 -36.5t-17.499 -26.5t-35.498 -13q-22.998 -3 -58.9961 4v-85v0z" />
    <glyph glyph-name="slash.uc" horiz-adv-x="404" 
d="M0 -39l293 772h111l-294 -772h-110z" />
    <glyph glyph-name="backslash.uc" horiz-adv-x="404" 
d="M0 733h110l294 -772h-111z" />
    <glyph glyph-name="bar.uc" horiz-adv-x="276" 
d="M195 733v-772h-114v772h114z" />
    <glyph glyph-name="at.uc" horiz-adv-x="964" 
d="M464 -89q-88 0 -165.5 24t-135 71.5t-91 118.5t-33.5 165q0 97 34.5 177t96.5 137.5t146.5 89t185.5 31.5q88 0 165 -23.5t134.5 -68.5t90.5 -109.5t33 -146.5q0 -56 -16 -104t-45.5 -83t-72 -55t-95.5 -20q-64 0 -96.5 23.5t-43.5 58.5q-26 -41 -64.5 -61.5t-83.5 -20.5
q-29 0 -56.5 10t-49 31t-35 54.5t-13.5 81.5q0 47 14.5 89.5t40.5 74t62 50t79 18.5q45 0 77.5 -19t49.5 -61l29 55h92l-34 -215q-8 -43 3.5 -72.5t50.5 -29.5q24 0 45.5 11t38 33.5t26.5 56.5t10 80q0 70 -25.5 125t-70.5 92.5t-106.5 57t-133.5 19.5q-80 0 -148.5 -24.5
t-119 -70.5t-79.5 -112.5t-29 -150.5q0 -78 25.5 -138t72 -100.5t111 -61t142.5 -20.5q71 0 121 12.5t77 26.5l13 -70q-15 -7 -38.5 -13.5t-53 -12t-63.5 -8.5t-69 -3zM374 291q0 -31 6.5 -51t16.5 -32t23 -17t27 -5q25 0 45 13t33 34.5t20 50t7 59.5t-6 52t-16.5 33t-24 17
t-27.5 5q-26 0 -45.5 -13.5t-32.5 -36t-19.5 -51t-6.5 -58.5z" />
    <glyph glyph-name="grave.uc" horiz-adv-x="453" 
d="M235 744l-110 126h162l61 -126h-113z" />
    <glyph glyph-name="dieresis.uc" 
d="M344 739q-33 0 -55 20.5t-22 52.5q0 34 22 53.5t55 19.5q32 0 54.5 -19.5t22.5 -53.5q0 -32 -22.5 -52.5t-54.5 -20.5zM109 739q-32 0 -54 20.5t-22 52.5q0 34 22 53.5t54 19.5q33 0 55 -19.5t22 -53.5q0 -32 -22 -52.5t-55 -20.5z" />
    <glyph glyph-name="macron.uc" 
d="M76 854h301v-88h-301v88z" />
    <glyph glyph-name="acute.uc" 
d="M183 870h155l-109 -126h-110z" />
    <glyph glyph-name="circumflex.uc" 
d="M227 802l-70 -58h-95l91 126h148l92 -126h-96z" />
    <glyph glyph-name="caron.uc" 
d="M147 746l-92 129h97l75 -59l75 59h97l-93 -129h-159z" />
    <glyph glyph-name="breve.uc" 
d="M227 738q-40 0 -69 11.5t-48.5 31t-29.5 45.5t-10 55h93q1 -30 18.5 -43t45.5 -13t45 13t18 43h93q0 -29 -10 -55t-29 -45.5t-48.5 -31t-68.5 -11.5z" />
    <glyph glyph-name="dotaccent.uc" 
d="M226 739q-36 0 -59.5 21t-23.5 56t23.5 56t59.5 21t60.5 -21t24.5 -56t-24.5 -56t-60.5 -21z" />
    <glyph glyph-name="ring.uc" 
d="M227 726q-49 0 -81.5 30t-32.5 77t32.5 76.5t81.5 29.5t81.5 -29.5t32.5 -76.5t-32.5 -77t-81.5 -30zM227 782q21 0 33.5 14t12.5 37q0 22 -12.5 36.5t-33.5 14.5t-33.5 -14.5t-12.5 -36.5q0 -23 12.5 -37t33.5 -14z" />
    <glyph glyph-name="tilde.uc" horiz-adv-x="455" 
d="M52 750q-4 25 -0.5 49t15.5 42.5t33 30t52 11.5q25 0 45.5 -6.5t38 -14t33 -13.5t31.5 -6q17 0 24.5 9.5t6.5 33.5h71q4 -26 1 -50t-15 -42.5t-33 -30t-52 -11.5q-26 0 -46.5 6.5t-38 14t-33 14t-31.5 6.5q-17 0 -24.5 -9.5t-6.5 -33.5h-71z" />
    <glyph glyph-name="hungarumlaut.uc" 
d="M238 744l41 126h136l-74 -126h-103zM51 744l41 126h136l-74 -126h-103z" />
    <glyph glyph-name="Cacute.pl" horiz-adv-x="633" 
d="M397 -10q-79 0 -144.5 24.5t-112.5 70t-73 112t-26 150.5t25.5 150.5t71.5 112t111 70t145 24.5q66 0 115 -12t75 -30l-17 -118q-30 21 -70.5 37t-90.5 16q-100 0 -152 -64t-52 -186q0 -250 209 -250q46 0 82 11.5t67 33.5l33 -102q-27 -19 -76 -34.5t-120 -15.5z
M371 870h153l-83 -126h-106z" />
    <glyph glyph-name="Nacute.pl" horiz-adv-x="724" 
d="M185 511v-511h-118v695h168l305 -499v499h117v-695h-159zM360 870h153l-83 -126h-106z" />
    <glyph glyph-name="Oacute.pl" horiz-adv-x="785" 
d="M392 -10q-74 0 -138 23t-111.5 67.5t-74.5 111t-27 153.5t27 154t74.5 112.5t111.5 69t138 23.5q73 0 137.5 -22.5t112 -67.5t75 -111t27.5 -153t-27.5 -154t-75 -113t-112 -69.5t-137.5 -23.5zM392 92q41 0 76 13.5t60.5 43.5t40 78.5t14.5 119.5q0 70 -14.5 119t-40 79
t-60.5 43.5t-76 13.5q-42 0 -76.5 -13.5t-60 -43.5t-39.5 -79t-14 -119q0 -71 14 -119.5t39.5 -78.5t60 -43.5t76.5 -13.5zM370 870h153l-83 -126h-106z" />
    <glyph glyph-name="Sacute.pl" horiz-adv-x="576" 
d="M270 -10q-46 0 -84 7t-67 17t-50 22t-33 23l16 107q14 -11 35.5 -24t48.5 -23.5t58.5 -17.5t65.5 -7q60 0 97.5 23.5t37.5 72.5q0 25 -10.5 41t-30 26.5t-47 17t-60.5 14.5q-37 9 -74 22t-66 36t-47.5 59t-18.5 92q0 54 20 93t55 64t83 37t104 12q75 0 126 -15.5
t73 -34.5l-13 -107q-31 23 -78 38t-104 15q-66 0 -96 -22.5t-30 -64.5q0 -23 10 -37.5t28.5 -25t46.5 -18t64 -14.5q37 -8 75 -20t69 -35.5t50 -60.5t19 -95q0 -64 -24.5 -106t-63.5 -66.5t-87.5 -34.5t-97.5 -10zM279 874h153l-83 -126h-106z" />
    <glyph glyph-name="Zacute.pl" horiz-adv-x="588" 
d="M37 0v94l341 502h-331v99h503v-94l-343 -502h344v-99h-514zM274 870h153l-83 -126h-106z" />
    <glyph glyph-name="acute.pl" horiz-adv-x="460" 
d="M193 720h151l-81 -154h-99z" />
    <glyph glyph-name="acute.ucpl" 
d="M192 870h153l-83 -126h-106z" />
    <glyph glyph-name="cacute.pl" horiz-adv-x="497" 
d="M304 -10q-57 0 -106 17t-84.5 50t-56 81t-20.5 111q0 62 21 112t58 84.5t88.5 53t111.5 18.5q52 0 85 -7.5t53 -17.5l-32 -108q-24 17 -46.5 27t-60.5 10q-26 0 -49 -10.5t-40.5 -31t-28 -51.5t-10.5 -73q0 -85 37.5 -127t103.5 -42q29 0 56.5 10.5t47.5 26.5l30 -84
q-19 -17 -58.5 -33t-99.5 -16zM263 720h151l-81 -154h-99z" />
    <glyph glyph-name="nacute.pl" horiz-adv-x="602" 
d="M323 413q-44 0 -71.5 -19t-44.5 -48v-346h-146v507h134l8 -73h2q23 35 65.5 59t105.5 24q78 0 125 -40.5t47 -125.5v-351h-146v339q0 42 -21.5 58t-57.5 16zM269 720h151l-81 -154h-99z" />
    <glyph glyph-name="oacute.pl" horiz-adv-x="612" 
d="M305 -10q-56 0 -105 17.5t-85 51t-57 82.5t-21 113t21 113t57 82.5t85 50.5t105 17t105.5 -17t86 -50.5t57.5 -82.5t21 -113t-21 -113t-57.5 -82.5t-85.5 -51t-106 -17.5zM305 85q52 0 86.5 38.5t34.5 130.5q0 91 -34.5 129.5t-86.5 38.5q-26 0 -47.5 -9t-37.5 -29
t-25 -52t-9 -78t9 -78t25 -52.5t37.5 -29.5t47.5 -9zM270 720h151l-81 -154h-99z" />
    <glyph glyph-name="one.denalt" horiz-adv-x="367" 
d="M42 0v76h92v248l-92 -90v97l109 106h102v-361h88v-76h-299z" />
    <glyph glyph-name="one.numalt" horiz-adv-x="367" 
d="M42 257v76h92v248l-92 -90v97l109 106h102v-361h88v-76h-299z" />
    <glyph glyph-name="one.subalt" horiz-adv-x="367" 
d="M42 -87v76h92v248l-92 -90v97l109 106h102v-361h88v-76h-299z" />
    <glyph glyph-name="one.supalt" horiz-adv-x="367" 
d="M42 315v76h92v248l-92 -90v97l109 106h102v-361h88v-76h-299z" />
    <glyph glyph-name="sacute.pl" horiz-adv-x="492" 
d="M233 -10q-72 0 -120 14.5t-75 35.5l23 95q26 -21 70 -36t101 -15q95 0 95 58q0 19 -9.5 29.5t-26 17t-38 9.5t-45.5 7q-30 5 -59 13.5t-52 24.5t-37.5 42.5t-14.5 68.5q0 81 55.5 122t162.5 41q64 0 104.5 -12.5t59.5 -23.5l-27 -92q-17 12 -53 24.5t-81 12.5
q-42 0 -69 -12t-27 -41q0 -17 8.5 -26.5t23 -15t33 -8t39.5 -5.5q31 -5 64 -13t60.5 -25t45 -46t17.5 -76q0 -49 -19 -81t-50.5 -51.5t-73 -27.5t-85.5 -8zM218 720h151l-81 -154h-99z" />
    <glyph glyph-name="zacute.pl" horiz-adv-x="481" 
d="M36 0v85l243 330h-235v92h400v-85l-237 -330h238v-92h-409zM217 720h151l-81 -154h-99z" />
    <glyph glyph-name="space.tab" horiz-adv-x="322" 
 />
    <glyph glyph-name="period.tab" horiz-adv-x="322" 
d="M158 -8q-34 0 -57 23t-23 57t23 57t57 23t57 -23t23 -57t-23 -57t-57 -23z" />
    <glyph glyph-name="comma.tab" horiz-adv-x="322" 
d="M73 -105q21 23 37.5 52t23.5 56q-28 8 -41 28.5t-13 42.5q0 33 21.5 55.5t56.5 22.5t57.5 -23t22.5 -64q0 -25 -7 -50.5t-18 -48t-24.5 -41t-26.5 -30.5h-89z" />
    <glyph glyph-name="colon.tab" horiz-adv-x="322" 
d="M158 364q-34 0 -57 23t-23 57t23 57t57 23t57 -23t23 -57t-23 -57t-57 -23zM158 -8q-34 0 -57 23t-23 57t23 57t57 23t57 -23t23 -57t-23 -57t-57 -23z" />
    <glyph glyph-name="semicolon.tab" horiz-adv-x="322" 
d="M73 -105q21 23 37.5 52t23.5 56q-28 8 -41 28.5t-13 42.5q0 33 21.5 55.5t56.5 22.5t57.5 -23t22.5 -64q0 -25 -7 -50.5t-18 -48t-24.5 -41t-26.5 -30.5h-89zM156 364q-34 0 -57 23t-23 57t23 57t57 23t57 -23t23 -57t-23 -57t-57 -23z" />
    <glyph glyph-name="parenleft.tab" horiz-adv-x="322" 
d="M210 -135q-85 79 -127 190t-42 243q0 65 10.5 128t31.5 119.5t53 104.5t74 83h107q-73 -77 -108.5 -189t-35.5 -243q0 -262 144 -436h-107z" />
    <glyph glyph-name="parenright.tab" horiz-adv-x="322" 
d="M84.0127 -135q84.9951 79 126.992 190q41.998 111 41.998 243q0 65 -10.5 128q-10.499 63 -31.498 119.5t-52.9971 104.5t-73.9951 83h-106.993q72.9951 -77 108.493 -189t35.498 -243q0 -262 -143.991 -436h106.993z" />
    <glyph glyph-name="bracketleft.tab" horiz-adv-x="322" 
d="M44 733h265v-91h-133v-686h133v-91h-265v868z" />
    <glyph glyph-name="bracketright.tab" horiz-adv-x="322" 
d="M250.003 733h-264.984v-91h132.992v-686h-132.992v-91h264.984v868z" />
    <glyph glyph-name="braceleft.tab" horiz-adv-x="322" 
d="M290 -129q-59 -11 -100.5 -5t-68.5 25t-39.5 48t-12.5 64q0 24 3.5 42.5t7 35.5l7 34t3.5 38q0 44 -14.5 70t-57.5 30v93q44 3 58 28t14 69q0 16 -3.5 32.5t-7 34.5t-7 39t-3.5 47q0 35 12.5 63.5t39 47t68.5 24.5t101 -4v-84q-24 4 -39.5 0.5t-23.5 -13.5t-11 -26
t-3 -36q0 -38 3 -66t3 -61q0 -50 -26.5 -86.5t-95.5 -56.5q69 -18 95.5 -54t26.5 -84q0 -35 -3 -62t-3 -60q0 -23 3 -40.5t11 -28t23.5 -14.5t39.5 1v-85v0z" />
    <glyph glyph-name="braceright.tab" horiz-adv-x="322" 
d="M10.0176 -129q58.9961 -11 100.494 -5q41.4971 6 68.4961 25q26.998 19 39.4971 48t12.499 64q0 24 -3.49902 42.5q-3.5 18.5 -7 35.5l-7 34q-3.49902 17 -3.49902 38q0 44 14.499 70t57.4961 30v93q-43.9971 3 -57.9961 28t-13.999 69q0 16 3.49902 32.5
q3.5 16.5 7 34.5t7 39q3.49902 21 3.49902 47q0 35 -12.499 63.5t-38.9971 47q-26.499 18.5 -68.4961 24.5q-41.998 6 -100.994 -4v-84q23.999 4 39.498 0.5t23.498 -13.5q8 -10 11 -26q2.99902 -16 2.99902 -36q0 -38 -2.99902 -66q-3 -28 -3 -61q0 -50 26.498 -86.5
t95.4941 -56.5q-68.9961 -18 -95.4941 -54t-26.498 -84q0 -35 3 -62q2.99902 -27 2.99902 -60q0 -23 -2.99902 -40.5q-3 -17.5 -11 -28q-7.99902 -10.5 -23.498 -14.5t-39.498 1v-85v0z" />
    <glyph glyph-name="one.tabalt" horiz-adv-x="572" 
d="M86 0v98h149v440l-149 -120v124l189 153h104v-597h136v-98h-429z" />
    <glyph glyph-name="Euro.tab" horiz-adv-x="572" 
d="M542 20q-13 -8 -49 -19t-93 -11q-127 0 -206 65.5t-102 188.5h-68v68h60q-1 8 -1 17v18v21.5t1 21.5h-60v68h70q25 120 104 183t203 63q58 0 91 -9t50 -19l-29 -101q-20 10 -47.5 18t-65.5 8q-64 0 -105.5 -34t-58.5 -109h166v-68h-176q-1 -10 -1 -21v-22v-18t1 -17h176
v-68h-168q17 -79 59.5 -115t107.5 -36q38 0 69.5 8.5t51.5 19.5l20 -101v0z" />
    <glyph glyph-name="approxequal.tab" horiz-adv-x="552" 
d="M25 339q-3 36 4 71t25 63t48.5 45t74.5 17q39 0 65.5 -12t47.5 -27t40 -27t43 -12q28 0 45 19.5t16 65.5h91q4 -37 -2.5 -72.5t-24 -63t-47.5 -44t-73 -16.5q-39 0 -66 12t-49 27t-41 27t-42 12q-28 0 -45 -17.5t-19 -67.5h-91zM25 107q-3 36 4 71t25 63t48.5 45t74.5 17
q39 0 65.5 -12t47.5 -27t40 -27t43 -12q28 0 45 19.5t16 65.5h91q4 -38 -2.5 -73t-24 -62.5t-47.5 -44t-73 -16.5q-39 0 -66 12t-49 27t-41 27t-42 12q-28 0 -45 -17.5t-19 -67.5h-91z" />
    <glyph glyph-name="cent.tab" horiz-adv-x="572" 
d="M495 39q-14 -13 -40.5 -26t-64.5 -19v-114h-121v117q-44 9 -80.5 29.5t-63 52.5t-41 74.5t-14.5 95.5q0 52 15 96t41.5 77.5t64 55.5t82.5 32v107h120v-102q33 -3 57 -8.5t43 -13.5l-32 -113q-26 18 -53.5 29.5t-68.5 11.5q-23 0 -44 -10.5t-38 -31t-27 -51.5t-10 -73
q0 -85 37.5 -127t103.5 -42q29 0 56.5 10.5t47.5 26.5l30 -84v0z" />
    <glyph glyph-name="divide.tab" horiz-adv-x="552" 
d="M268 447q-34 0 -57 23t-23 57t23 57t57 23q33 0 56.5 -23t23.5 -57t-23.5 -57t-56.5 -23zM41 277v100h469v-100h-469zM268 37q-34 0 -57 23t-23 57t23 57t57 23q33 0 56.5 -23t23.5 -57t-23.5 -57t-56.5 -23z" />
    <glyph glyph-name="dollar.tab" horiz-adv-x="572" 
d="M224 -114v105q-69 6 -109.5 25.5t-60.5 35.5l15 107q13 -10 32 -21.5t42.5 -21t51 -16t57.5 -6.5q55 0 88.5 23.5t33.5 72.5q0 25 -9.5 41.5t-27.5 27.5t-43 18.5t-56 15.5q-41 10 -75 25t-59 38t-38.5 56t-13.5 79q0 83 43.5 135.5t128.5 69.5v106h121v-100
q53 -5 85.5 -18.5t47.5 -24.5l-12 -107q-26 17 -64 32.5t-93 15.5q-64 0 -92 -22.5t-28 -64.5q0 -21 7.5 -35.5t23.5 -25t41 -18.5t59 -16q35 -8 70 -21t63 -37t45.5 -61t17.5 -92q0 -49 -14 -85t-37 -61t-54.5 -40.5t-65.5 -22.5v-112h-121z" />
    <glyph glyph-name="eight.tab" horiz-adv-x="572" 
d="M289 -10q-53 0 -98 13t-78 38t-51.5 61.5t-18.5 82.5q0 69 40 114.5t107 64.5q-57 17 -91 56t-34 102q0 43 17 77t47 57.5t71 35.5t89 12q47 0 88 -12t71 -34.5t47.5 -56.5t17.5 -77q0 -64 -34 -103.5t-91 -56.5q65 -18 105 -62.5t40 -113.5q0 -47 -18.5 -83.5t-51.5 -62
t-77.5 -39t-96.5 -13.5zM289 414q38 0 62 24t24 70t-24 71.5t-62 25.5t-62.5 -25.5t-24.5 -71.5t24.5 -70t62.5 -24zM288 89q44 0 72.5 30t28.5 86t-28.5 84.5t-72.5 28.5q-45 0 -73 -28.5t-28 -84.5t28 -86t73 -30z" />
    <glyph glyph-name="equal.tab" horiz-adv-x="551" 
d="M41 384v103h469v-103h-469zM41 166v104h469v-104h-469z" />
    <glyph glyph-name="five.tab" horiz-adv-x="572" 
d="M229 -10q-64 0 -110 16t-72 38l30 100q15 -11 29.5 -20.5t31.5 -17t38 -12t48 -4.5q67 0 102 34.5t35 100.5q0 62 -30.5 91.5t-82.5 29.5q-33 0 -50 -12.5t-24 -20.5h-97v382h401v-105h-287v-180q14 11 39 21.5t63 10.5q48 0 89 -13.5t70.5 -40t46 -66.5t16.5 -93
q0 -57 -20 -101.5t-57 -75t-90 -46.5t-119 -16z" />
    <glyph glyph-name="florin.tab" horiz-adv-x="574" 
d="M71 -181q-37 0 -58.5 5.5t-29.5 8.5l11 91q5 -2 24 -6.5t40 -4.5q43 0 64.5 26.5t32.5 86.5l55 323h-78l16 82h76l9 56q10 60 30.5 101t50.5 67t69 37.5t87 11.5q19 0 34.5 -2t26.5 -4q12 -3 22 -6l-14 -95q-5 2 -23 5.5t-36 3.5q-49 0 -69.5 -28t-30.5 -84l-11 -63h127
l-18 -82h-122l-53 -314q-20 -116 -79.5 -166t-152.5 -50z" />
    <glyph glyph-name="four.tab" horiz-adv-x="572" 
d="M313 521l-170 -277h170v277zM454 147v-147h-141v147h-273v92l281 456h133v-451h80v-97h-80z" />
    <glyph glyph-name="greater.tab" horiz-adv-x="552" 
d="M69 187l304 140l-304 140v109l413 -189v-121l-413 -188v109z" />
    <glyph glyph-name="greaterequal.tab" horiz-adv-x="552" 
d="M64 259l323 121l-323 122v109l423 -170v-121l-423 -171v110zM64 100h423v-100h-423v100z" />
    <glyph glyph-name="idotless" horiz-adv-x="267" 
d="M206 507v-507h-145v507h145z" />
    <glyph glyph-name="less.tab" horiz-adv-x="552" 
d="M69 266v121l413 189v-109l-304 -140l304 -140v-109z" />
    <glyph glyph-name="lessequal.tab" horiz-adv-x="552" 
d="M64 320v121l423 170v-109l-309 -123l309 -120v-110zM64 0v100h423v-100h-423z" />
    <glyph glyph-name="minus.tab" horiz-adv-x="552" 
d="M41 277v100h469v-100h-469z" />
    <glyph glyph-name="multiply.tab" horiz-adv-x="552" 
d="M273 255l-160 -159l-72 72l159 160l-160 160l72 72l160 -160l162 162l73 -73l-162 -162l163 -163l-72 -72z" />
    <glyph glyph-name="nine.tab" horiz-adv-x="572" 
d="M280 704q57 0 103 -18t79 -54t51 -89t18 -122q0 -84 -25 -151.5t-64 -120t-86 -89.5t-90 -60h-160v10q45 26 89.5 58.5t81.5 71t64 82t37 90.5q-21 -32 -56.5 -52.5t-88.5 -20.5q-38 0 -73 12.5t-62.5 39t-44 67.5t-16.5 99q0 60 18 106t50.5 77.5t77 47.5t97.5 16z
M279 330q41 0 67.5 18.5t43.5 46.5q2 13 2.5 25.5t0.5 26.5q0 85 -31 120.5t-79 35.5q-51 0 -78.5 -35t-27.5 -106q0 -69 27 -100.5t75 -31.5z" />
    <glyph glyph-name="notequal.tab" horiz-adv-x="552" 
d="M261 170l-50 -117h-104l50 117h-116v100h159l49 114h-208v99h250l51 118h105l-51 -118h114v-99h-156l-50 -114h206v-100h-249z" />
    <glyph glyph-name="one.tab" horiz-adv-x="572" 
d="M279 0v551l-188 -159v136l198 167h133v-695h-143z" />
    <glyph glyph-name="percent.tab" horiz-adv-x="672" 
d="M303 519q0 -91 -39.5 -137.5t-101.5 -46.5t-101 44.5t-39 135.5q0 93 39 139t101 46q31 0 56.5 -11t44.5 -33t29.5 -56.5t10.5 -80.5zM68 -6l446 706h89l-446 -706h-89zM118 517q0 -65 11 -89t33 -24t33 24t11 89q0 67 -11 90.5t-33 23.5t-33 -23.5t-11 -90.5zM650 179
q0 -92 -39 -138.5t-102 -46.5q-62 0 -101 44.5t-39 136.5q0 93 39 139t101 46t101.5 -44.5t39.5 -136.5zM466 177q0 -65 10.5 -89t32.5 -24t33.5 24t11.5 89q0 66 -11 89.5t-34 23.5q-22 0 -32.5 -23.5t-10.5 -89.5z" />
    <glyph glyph-name="perthousand.tab" horiz-adv-x="1022" 
d="M308 519q0 -91 -39 -137.5t-102 -46.5q-62 0 -101 44.5t-39 135.5q0 93 39 139t101 46t101.5 -44t39.5 -137zM79 -6l447 706h88l-446 -706h-89zM124 517q0 -63 10.5 -86t32.5 -23q23 0 34 23t11 86q0 64 -11 87t-34 23q-22 0 -32.5 -23t-10.5 -87zM995 179
q0 -92 -39.5 -138.5t-101.5 -46.5t-101 44.5t-39 136.5q0 93 39 139t101 46q31 0 56.5 -11t44.5 -33.5t29.5 -56.5t10.5 -80zM667 179q0 -92 -39 -138.5t-102 -46.5q-62 0 -101 44.5t-39 136.5q0 93 39 139t101 46t101.5 -44.5t39.5 -136.5zM810 177q0 -64 11 -86.5
t33 -22.5t33 22.5t11 86.5t-11 86.5t-33 22.5t-33 -22.5t-11 -86.5zM483 177q0 -64 10.5 -86.5t32.5 -22.5q23 0 33.5 22.5t10.5 86.5t-10.5 86.5t-33.5 22.5q-22 0 -32.5 -22.5t-10.5 -86.5z" />
    <glyph glyph-name="plus.tab" horiz-adv-x="552" 
d="M337 277v-197h-123v197h-173v100h173v196h123v-196h173v-100h-173z" />
    <glyph glyph-name="plusminus.tab" horiz-adv-x="552" 
d="M41 0v100h173v193h-173v100h173v189h123v-189h173v-100h-173v-193h173v-100h-469z" />
    <glyph glyph-name="seven.tab" horiz-adv-x="572" 
d="M103 0l259 589h-311v106h468v-89l-262 -606h-154z" />
    <glyph glyph-name="six.tab" horiz-adv-x="572" 
d="M293 -10q-57 0 -103 18.5t-79 54t-51 88t-18 121.5q0 83 26 151.5t66.5 122t91 91t98.5 58.5h159v-10q-49 -27 -96 -60t-85.5 -70.5t-66 -80t-38.5 -88.5q25 32 58 51t81 19q39 0 75 -12.5t63.5 -39.5t44.5 -69t17 -101t-18 -104.5t-50.5 -76.5t-77 -47t-97.5 -16z
M292 89q49 0 77 35t28 106q0 72 -27.5 103.5t-75.5 31.5q-40 0 -65 -18.5t-45 -46.5q-2 -11 -2.5 -23.5t-0.5 -23.5q0 -45 8 -76.5t23 -51t35.5 -28t44.5 -8.5z" />
    <glyph glyph-name="sterling.tab" horiz-adv-x="572" 
d="M520 0h-468v70q48 38 69.5 74t21.5 82q0 19 -2 36t-5 32h-88v87h60q-11 28 -18.5 56.5t-7.5 64.5q0 91 64 146.5t191 55.5q53 0 90.5 -8.5t60.5 -19.5l-29 -102q-23 12 -55.5 19.5t-69.5 7.5q-54 0 -79 -32.5t-25 -77.5q0 -35 8 -60t17 -50h156v-87h-133q1 -8 1.5 -16.5
t0.5 -17.5q0 -52 -21 -92.5t-59 -69.5h320v-98z" />
    <glyph glyph-name="three.tab" horiz-adv-x="572" 
d="M239 -10q-69 0 -118.5 15.5t-77.5 38.5l30 100q31 -23 70 -38t97 -15q59 0 91 29t32 83q0 108 -128 108h-85v97h87q47 0 76.5 25.5t29.5 73.5q0 47 -28.5 71.5t-85.5 24.5q-46 0 -81 -16t-58 -33l-30 101q37 26 84.5 37.5t104.5 11.5q59 0 104 -13.5t75.5 -38t46 -58.5
t15.5 -75q0 -63 -36.5 -102.5t-94.5 -50.5q34 -5 62.5 -18.5t49.5 -35.5t32.5 -51t11.5 -66q0 -44 -18 -81.5t-53.5 -65t-87 -43t-117.5 -15.5z" />
    <glyph glyph-name="two.tab" horiz-adv-x="572" 
d="M52 0v92q80 68 138 120.5t95.5 97t55 84.5t17.5 84q0 60 -32 92.5t-92 32.5q-52 0 -84.5 -17.5t-55.5 -34.5l-29 106q28 19 74.5 33t112.5 14q130 0 196 -57.5t66 -156.5q0 -58 -20.5 -108t-58.5 -97t-92 -92.5t-122 -94.5h298v-98h-467z" />
    <glyph glyph-name="uni20B4.tab" horiz-adv-x="572" 
d="M482 47q-20 -20 -68 -38.5t-112 -18.5q-110 0 -170 48.5t-60 145.5q0 39 12 69h-46v68h94q24 22 54.5 38t63.5 28q6 2 12 4.5t12 5.5h-236v68h307q3 10 5 21t2 24q0 91 -99 91q-40 0 -71.5 -11t-47.5 -22l-27 100q20 12 58.5 24t98.5 12q106 0 162 -46.5t56 -135.5
q0 -30 -8 -57h51v-68h-94q-24 -23 -55 -39.5t-63 -29.5q-5 -2 -9 -3.5t-8 -3.5h229v-68h-307q-11 -27 -11 -59q0 -52 29.5 -76.5t82.5 -24.5q18 0 38 5t38.5 12.5t34.5 16.5t26 17l26 -97v0z" />
    <glyph glyph-name="uni20B8.tab" horiz-adv-x="572" 
d="M46 695h472v-67h-472v67zM360 460v-460h-156v460h-158v103h472v-103h-158z" />
    <glyph glyph-name="uni20BD.tab" horiz-adv-x="572" 
d="M242 601v-220h41q50 0 78 25t28 87q0 58 -25 83t-77 25h-45zM242 149v-149h-145v149h-65v76h65v80h-65v76h65v314h199q109 0 172 -48.5t63 -150.5q0 -99 -62 -145t-178 -46h-49v-80h184v-76h-184z" />
    <glyph glyph-name="yen.tab" horiz-adv-x="572" 
d="M352 148v-148h-142v148h-144v68h144v70h-144v68h123l-171 341h152l127 -281l133 281h112l-169 -341h123v-68h-144v-70h144v-68h-144z" />
    <glyph glyph-name="zero.tab" horiz-adv-x="572" 
d="M288 -10q-53 0 -97.5 20.5t-76 64t-49 111.5t-17.5 162t17.5 161.5t49 111t76 63.5t97.5 20t96.5 -20t75 -63t49 -110t17.5 -161t-17.5 -162t-49 -112t-75 -65t-96.5 -21zM287 87q25 0 43 13t29.5 43.5t17 80.5t5.5 123t-5.5 123t-17.5 80.5t-29.5 43.5t-41.5 13t-42 -13
t-30.5 -43.5t-18.5 -80.5t-6 -123t5.5 -123t17.5 -80.5t30 -43.5t43 -13z" />
    <glyph glyph-name="colon.uc" horiz-adv-x="255" 
d="M127 414q-34 0 -57 23t-23 57t23 57t57 23t57 -23t23 -57t-23 -57t-57 -23zM127 82q-34 0 -57 23t-23 57t23 57t57 23t57 -23t23 -57t-23 -57t-57 -23z" />
    <glyph glyph-name="colon.tabuc" horiz-adv-x="322" 
d="M158 414q-34 0 -57 23t-23 57t23 57t57 23t57 -23t23 -57t-23 -57t-57 -23zM158 82q-34 0 -57 23t-23 57t23 57t57 23t57 -23t23 -57t-23 -57t-57 -23z" />
    </font>
</defs>
</svg>
