<svg xmlns="http://www.w3.org/2000/svg" width="29.975" height="29.975" viewBox="0 0 351 351">
  <metadata><?xpacket begin="﻿" id="W5M0MpCehiHzreSzNTczkc9d"?>
<x:xmpmeta xmlns:x="adobe:ns:meta/" x:xmptk="Adobe XMP Core 5.6-c142 79.160924, 2017/07/13-01:06:39        ">
   <rdf:RDF xmlns:rdf="http://www.w3.org/1999/02/22-rdf-syntax-ns#">
      <rdf:Description rdf:about=""/>
   </rdf:RDF>
</x:xmpmeta>
                                                                                                    
                                                                                                    
                                                                                                    
                                                                                                    
                                                                                                    
                                                                                                    
                                                                                                    
                                                                                                    
                                                                                                    
                                                                                                    
                                                                                                    
                                                                                                    
                                                                                                    
                                                                                                    
                                                                                                    
                                                                                                    
                                                                                                    
                                                                                                    
                                                                                                    
                                                                                                    
                           
<?xpacket end="w"?></metadata>
<defs>
    <style>
      .cls-1 {
        fill: #f33;
      }

      .cls-2 {
        fill: #fff;
        fill-rule: evenodd;
      }
    </style>
  </defs>
  <circle id="Эллипс_1" data-name="Эллипс 1" class="cls-1" cx="175" cy="175" r="175"/>
  <path id="Я" class="cls-2" d="M174.978,181.506q-13.47,0-20.86-12.389t-7.39-35a83.686,83.686,0,0,1,2.245-20.75,41.16,41.16,0,0,1,6.361-14.251,26.023,26.023,0,0,1,9.541-8.2,27.076,27.076,0,0,1,11.974-2.636h19.457v93.231H174.978Zm21.328,101.651h17.212V66.448H176.849a45.992,45.992,0,0,0-19.363,4.068,39.551,39.551,0,0,0-15.248,12.512,63.068,63.068,0,0,0-9.916,21.12q-3.555,12.672-3.554,29.87,0,24.088,6.922,39.732t19.644,22.523L119.6,283.157h20.953l31.618-79.824h24.134v79.824Z"/>
</svg>
